<?xml version="1.0" standalone="no"?>
<!DOCTYPE svg PUBLIC "-//W3C//DTD SVG 1.1//EN" "http://www.w3.org/Graphics/SVG/1.1/DTD/svg11.dtd" >
<svg xmlns="http://www.w3.org/2000/svg" xmlns:xlink="http://www.w3.org/1999/xlink" version="1.1">
<metadata></metadata>
<defs>
<font id="farao_black_otregular" horiz-adv-x="1683" >
<font-face units-per-em="2048" ascent="1638" descent="-410" />
<missing-glyph horiz-adv-x="430" />
<glyph horiz-adv-x="0" />
<glyph horiz-adv-x="682" />
<glyph unicode=" "  horiz-adv-x="430" />
<glyph unicode="&#x09;" horiz-adv-x="430" />
<glyph unicode="&#xa0;" horiz-adv-x="430" />
<glyph unicode="!" horiz-adv-x="806" d="M201 1292q0 97 59.5 152t140.5 55q83 0 144 -55.5t61 -155.5q0 -70 -28 -210t-56 -312t-28 -322h-177q0 148 -29 320.5t-58 314t-29 213.5zM217 160q0 78 55.5 133t133.5 55t133 -55t55 -133t-55 -133.5t-133 -55.5t-133.5 55.5t-55.5 133.5z" />
<glyph unicode="&#x22;" horiz-adv-x="958" d="M82 1456h367l-99 -651h-164zM518 1456h369l-101 -651h-161z" />
<glyph unicode="#" horiz-adv-x="1681" d="M4 344l43 244h350l37 223h-350l41 244h350l66 401h303l-66 -401h226l65 401h297l-66 -401h386l-41 -244h-385l-37 -223h385l-43 -244h-381l-58 -344h-295l56 344h-225l-58 -344h-303l57 344h-354zM700 588h228l37 223h-228z" />
<glyph unicode="$" horiz-adv-x="1159" d="M68 963q0 148 107.5 246t258.5 98v192h246l-21 -252q93 -64 121 -180l-8 219h262v-407h-319q-5 243 -223 243q-47 0 -75 -22.5t-28 -59.5q0 -24 9 -43.5t30 -34.5t40 -25.5t56 -21t61 -16.5t70 -16q69 -15 122.5 -31t117.5 -47t106 -69t70.5 -97.5t28.5 -132.5 q0 -72 -24.5 -131t-65 -97.5t-96 -65t-113.5 -38t-121 -12.5v-199h-225l18 246q-96 55 -123 162l12 -195h-264v416h314q-3 -260 245 -260q57 0 87 23.5t30 62.5q0 69 -69 103q-43 22 -196 58q-18 4 -30 7q-65 15 -114.5 31t-108.5 46t-97.5 68t-64.5 98t-26 134z" />
<glyph unicode="%" horiz-adv-x="1699" d="M41 1120q0 162 107.5 266.5t277.5 104.5t277.5 -104.5t107.5 -266.5q0 -160 -109 -266t-276 -106q-169 0 -277 105.5t-108 266.5zM152 0l1067 1456h311l-1063 -1456h-315zM291 1120q0 -103 27.5 -144.5t107.5 -41.5q82 0 105.5 36t23.5 150q0 44 -2 70t-9 52t-21 39.5 t-38 21.5t-59 8q-80 0 -107.5 -40.5t-27.5 -150.5zM889 346q0 162 107.5 266.5t275.5 104.5q170 0 278.5 -104.5t108.5 -266.5q0 -160 -109.5 -266.5t-277.5 -106.5t-275.5 106t-107.5 267zM1139 346q0 -103 26.5 -144.5t106.5 -41.5q84 0 107.5 36t23.5 150q0 55 -3.5 85.5 t-16.5 57.5t-39.5 37.5t-71.5 10.5q-80 0 -106.5 -40.5t-26.5 -150.5z" />
<glyph unicode="&#x26;" horiz-adv-x="1783" d="M45 344q0 80 26 148.5t74.5 122.5t102 94t123.5 79q-76 162 -76 293q0 100 44.5 182t116.5 132t158.5 77t176.5 27q95 0 172.5 -28.5t127.5 -91.5t50 -150q0 -43 -13 -82.5t-26 -67.5t-51 -62.5t-55 -50.5t-73.5 -49.5t-71 -41.5t-80.5 -42q-23 -12 -34 -18 q76 -135 181 -256t219 -207q74 64 117.5 148t54.5 168h-197v297h600v-297h-186q-67 -242 -252 -406q70 -37 131 -37q60 0 103.5 34.5t43.5 98.5v84h160v-196q0 -65 -18 -115.5t-47 -81t-71 -50t-85 -27t-94 -7.5q-151 0 -369 129q-234 -114 -479 -114q-142 0 -254.5 40 t-181 124t-68.5 200zM403 434q0 -80 22.5 -137.5t64 -89.5t91 -46t111.5 -14q111 0 201 41q-114 79 -227.5 194t-198.5 239q-64 -84 -64 -187zM633 1139q0 -85 43 -193q126 68 185 128t59 132q0 56 -37.5 89.5t-89.5 33.5q-65 0 -112.5 -49t-47.5 -141z" />
<glyph unicode="'" horiz-adv-x="512" d="M70 1456h366l-98 -651h-164z" />
<glyph unicode="(" horiz-adv-x="798" d="M125 727q0 198 50.5 379t139 317t218 216.5t278.5 80.5l2 -250q-95 0 -174.5 -93t-127.5 -264.5t-48 -385.5t48 -386t127 -264.5t173 -92.5l2 -252q-150 0 -280 80.5t-218.5 216.5t-139 317.5t-50.5 380.5z" />
<glyph unicode=")" horiz-adv-x="798" d="M-10 -268l2 252q94 0 173 92.5t127 264.5t48 386q0 213 -48 385t-127 265t-173 93l-2 250q149 0 278.5 -80.5t218 -216.5t139 -317t50.5 -379q0 -199 -50.5 -381t-139 -317.5t-218 -216t-278.5 -80.5z" />
<glyph unicode="*" horiz-adv-x="999" d="M82 983q0 37 76 37q22 0 73.5 -4t75.5 -4q90 0 90 45q0 43 -82 43q-23 0 -74 -4t-73 -4q-82 0 -82 41q0 17 18 51l89 153q22 39 45 39q22 0 47 -37.5t44.5 -83t46.5 -83t52 -37.5q16 0 26.5 8.5t10.5 23.5q0 31 -68.5 127t-68.5 127q0 35 57 35h227q47 0 47 -31 q0 -29 -66.5 -126.5t-66.5 -131.5q0 -32 33 -32q24 0 50 39t45 85.5t44 85.5t47 39q24 0 43 -36l99 -172q14 -25 14 -43q0 -24 -23 -32.5t-67 -8.5q-21 0 -64.5 2t-62.5 2q-94 0 -94 -43q0 -41 82 -41q25 0 78.5 4t76.5 4q78 0 78 -39q0 -20 -16 -47l-92 -160 q-22 -39 -47 -39q-23 0 -49 38t-46 83t-46.5 83t-49.5 38q-35 0 -35 -37q0 -34 65.5 -128t65.5 -124q0 -35 -61 -35h-213q-51 0 -51 31q0 27 66.5 122t66.5 132q0 41 -35 41q-22 0 -47.5 -39t-45.5 -86t-46 -86t-49 -39q-24 0 -47 41l-99 174q-12 24 -12 39z" />
<glyph unicode="+" horiz-adv-x="1185" d="M63 473v203h433v432h202v-432h430v-203h-430v-430h-202v430h-433z" />
<glyph unicode="," horiz-adv-x="677" d="M100 178q0 81 56.5 136t154.5 55q89 0 154.5 -48.5t96 -121t30.5 -156.5q0 -187 -103 -309.5t-301 -134.5l-36 149q134 19 199 85.5t65 143.5v41q-49 -34 -121 -34q-83 0 -139 55.5t-56 138.5z" />
<glyph unicode="-" horiz-adv-x="606" d="M57 438v267h492v-267h-492z" />
<glyph unicode="." horiz-adv-x="630" d="M96 176q0 86 60.5 146.5t146.5 60.5t146.5 -60.5t60.5 -146.5t-60.5 -146.5t-146.5 -60.5t-146.5 60.5t-60.5 146.5z" />
<glyph unicode="/" horiz-adv-x="1392" d="M6 0l1067 1456h311l-1062 -1456h-316z" />
<glyph unicode="0" horiz-adv-x="1398" d="M66 725q0 219 80.5 393t226 271.5t329.5 97.5q186 0 331.5 -97.5t225.5 -271t80 -393.5q0 -218 -82 -392t-227.5 -271t-327.5 -97q-183 0 -328.5 97.5t-226.5 271t-81 391.5zM453 725q0 -262 56 -375.5t193 -113.5q99 0 151.5 43.5t75.5 147t23 298.5q0 265 -53 378.5 t-197 113.5q-94 0 -147 -45.5t-77.5 -151.5t-24.5 -295z" />
<glyph unicode="1" horiz-adv-x="1398" d="M162 0v301h461v537h-449v260q537 0 541 358h254v-1155h420v-301h-1227z" />
<glyph unicode="2" horiz-adv-x="1398" d="M68 0v94q0 49 8 93.5t19.5 80.5t33.5 70.5t41.5 59.5t51.5 52.5t56 45t63 41t63 37t66.5 36.5t64.5 35q66 36 111 68t87.5 77.5t64 105t21.5 132.5q0 93 -43 158t-105.5 93t-135.5 28q-78 0 -144.5 -33t-93.5 -90q58 30 135 30q95 0 148 -58.5t53 -141.5q0 -102 -76 -179 t-213 -77q-117 0 -186.5 84.5t-69.5 206.5q0 64 20.5 126.5t67 121.5t114 103.5t168.5 71.5t222 27q117 0 220 -29.5t184 -87.5t128.5 -152t47.5 -214q0 -72 -20 -134.5t-47.5 -107.5t-79.5 -86.5t-93.5 -67t-112 -54t-113 -42.5t-118.5 -37q-64 -20 -80.5 -25t-69 -22.5 t-72 -27.5t-52.5 -27.5t-51.5 -36t-31.5 -39.5q49 33 92 44.5t105 11.5q56 0 211 -31t223 -31q80 0 131.5 35.5t51.5 101.5q0 23 -7 58l174 37q37 -104 37 -209q0 -92 -32 -162.5t-87 -111.5t-122 -61t-144 -20q-78 0 -149 19.5t-122 46.5t-96.5 54.5t-92.5 47t-91 19.5 q-77 0 -119 -43.5t-42 -114.5h-172z" />
<glyph unicode="3" horiz-adv-x="1398" d="M94 348q0 110 66.5 182t204.5 72q109 0 171 -64t62 -147q0 -76 -55.5 -127t-167.5 -51q70 -70 239 -70q116 0 182 76t66 180q0 109 -71.5 188t-202.5 79h-76v147h76q122 0 187 73.5t65 176.5q0 101 -60.5 175.5t-163.5 74.5q-82 0 -139.5 -28t-70.5 -75q24 4 38 4 q69 0 112.5 -51t43.5 -119q0 -74 -55 -127t-164 -53q-126 0 -188 70.5t-62 175.5q0 68 31 133.5t93 122.5t169.5 92t245.5 35q120 0 221 -22.5t170 -61t117.5 -89.5t71 -107t22.5 -115q0 -139 -119 -236.5t-338 -97.5v-21q119 0 213.5 -31t152 -83.5t87.5 -118t30 -137.5 q0 -62 -22.5 -120t-72.5 -111.5t-123.5 -93.5t-182.5 -63.5t-242 -23.5q-148 0 -261 35t-176 92.5t-93.5 123t-30.5 136.5z" />
<glyph unicode="4" horiz-adv-x="1398" d="M63 426v225l586 805h402v-788h290v-242h-290v-125h170v-301h-701v301h209v125h-666zM362 668h367v307q0 170 10 258z" />
<glyph unicode="5" horiz-adv-x="1398" d="M109 336q0 108 69 185t178 77q101 0 169.5 -56t68.5 -155q0 -73 -45.5 -123t-122.5 -51q30 -34 81 -55t107 -21q50 0 94.5 16.5t82.5 51.5t60.5 97t22.5 144q0 148 -63 239t-190 91q-133 0 -226 -74h-164v754h951v-315h-764l-8 -258q105 82 301 82q141 0 255 -42.5 t185 -113t109 -158.5t38 -184q0 -97 -39 -186t-112.5 -161t-193 -115.5t-267.5 -43.5q-121 0 -220 22t-164 59t-109.5 86t-64 101t-19.5 107z" />
<glyph unicode="6" horiz-adv-x="1398" d="M104 692q0 127 24 242.5t78 218.5t133 177.5t196.5 118.5t261.5 44q98 0 176 -21.5t127.5 -56.5t82.5 -82.5t46.5 -95t13.5 -98.5q0 -95 -55 -146t-129 -51q-69 0 -119.5 42.5t-50.5 113.5q0 60 36 96.5t97 36.5q-14 42 -65 64t-121 22q-344 0 -344 -504q109 115 321 115 q223 0 359.5 -119t136.5 -338q0 -223 -151.5 -365.5t-418.5 -142.5q-162 0 -285 54t-199 152t-113.5 229.5t-37.5 293.5zM492 553q0 -143 26.5 -223t73.5 -108.5t129 -28.5q110 0 157.5 67.5t47.5 243.5q0 146 -46 224.5t-157 78.5t-171 -71t-60 -183z" />
<glyph unicode="7" horiz-adv-x="1398" d="M80 885v571h235l-14 -323h16q10 106 32 178.5t57 112.5t76 56.5t96 16.5q56 0 105 -17.5t84.5 -43t69.5 -51t75 -43t85 -17.5q52 0 90.5 43t38.5 88h172v-82q0 -49 -5 -96t-11.5 -85t-21 -81t-24.5 -72t-32.5 -70t-34 -62t-39 -62t-39 -56.5t-43 -58t-40.5 -55.5 q-47 -65 -77.5 -114.5t-61.5 -117.5t-46.5 -143.5t-15.5 -161.5q0 -82 -65 -131t-150 -49t-147 51.5t-62 145.5q0 60 12 116.5t30 102.5t48.5 91.5t60 80t71.5 73t74.5 65t78.5 60.5q79 59 120 92t92.5 82t78 93.5t34.5 91.5q-34 -30 -72.5 -38.5t-90.5 -8.5 q-56 0 -204 20.5t-216 20.5q-76 0 -119 -53.5t-43 -159.5h-258z" />
<glyph unicode="8" horiz-adv-x="1398" d="M96 338q0 130 101 225.5t284 116.5q-159 54 -252.5 162t-93.5 252q0 52 15.5 103.5t55.5 106t101 95t161 66.5t226 26q137 0 244 -27.5t172 -75.5t98 -108.5t33 -130.5q0 -108 -86 -186.5t-246 -108.5q176 -62 282.5 -183t106.5 -265q0 -204 -167.5 -323.5t-495.5 -119.5 q-133 0 -238.5 32t-169.5 86t-97.5 119.5t-33.5 137.5zM477 373q0 -232 211 -232q122 0 179 52t57 155q0 197 -324 283q-54 -37 -88.5 -103.5t-34.5 -154.5zM516 1155q0 -88 61.5 -142t213.5 -106q106 66 106 211q0 101 -42.5 154t-152.5 53q-91 0 -138.5 -44.5 t-47.5 -125.5z" />
<glyph unicode="9" horiz-adv-x="1398" d="M104 987q0 223 151.5 365.5t418.5 142.5q162 0 285 -54t199 -152t113.5 -229.5t37.5 -293.5q0 -127 -24 -242t-77.5 -218.5t-132.5 -178.5t-197 -119t-262 -43q-353 0 -505 283l217 178q82 -174 299 -174q60 0 116.5 24.5t104.5 71.5t77 127t29 180 q-58 -70 -141.5 -113.5t-216.5 -43.5q-101 0 -189 30.5t-156.5 89.5t-107.5 154t-39 215zM498 971q0 -163 51.5 -241.5t157.5 -78.5q225 0 225 289q0 195 -55.5 277.5t-174.5 82.5q-111 0 -157.5 -70.5t-46.5 -258.5z" />
<glyph unicode=":" horiz-adv-x="630" d="M96 176q0 86 60.5 146.5t146.5 60.5t146.5 -60.5t60.5 -146.5t-60.5 -146.5t-146.5 -60.5t-146.5 60.5t-60.5 146.5zM96 893q0 86 60.5 146.5t146.5 60.5t146.5 -60.5t60.5 -146.5t-60.5 -146.5t-146.5 -60.5t-146.5 60.5t-60.5 146.5z" />
<glyph unicode=";" horiz-adv-x="677" d="M100 178q0 81 56.5 136t154.5 55q89 0 154.5 -48.5t96 -121t30.5 -156.5q0 -187 -103 -309.5t-301 -134.5l-36 149q134 19 199 85.5t65 143.5v41q-49 -34 -121 -34q-83 0 -139 55.5t-56 138.5zM123 893q0 86 60.5 146.5t146.5 60.5t146.5 -60.5t60.5 -146.5t-60.5 -146.5 t-146.5 -60.5t-146.5 60.5t-60.5 146.5z" />
<glyph unicode="&#x3c;" horiz-adv-x="1179" d="M74 530v164l1020 570v-238l-572 -395l572 -371v-258z" />
<glyph unicode="=" horiz-adv-x="1185" d="M61 344v244h1065v-244h-1065zM61 811v244h1065v-244h-1065z" />
<glyph unicode="&#x3e;" horiz-adv-x="1179" d="M74 2v238l571 395l-571 371v258l1020 -529v-164z" />
<glyph unicode="?" horiz-adv-x="1112" d="M23 967v489h253l-16 -262h10q14 97 77.5 167.5t151.5 104t187 33.5q64 0 124.5 -14.5t114.5 -46t94 -76.5t63.5 -110t23.5 -142q0 -83 -26 -150.5t-68 -112.5t-92 -83.5t-100.5 -71.5t-92.5 -67t-68 -80t-26 -101h-207q-6 54 -6 109t21.5 103t54 80t70 68t70 68t54 79.5 t21.5 101.5q0 87 -52.5 133.5t-138.5 46.5t-149 -66.5t-66 -199.5h-282zM350 160q0 78 55.5 133t133.5 55t133 -55t55 -133t-55 -133.5t-133 -55.5t-133.5 55.5t-55.5 133.5z" />
<glyph unicode="@" horiz-adv-x="1708" d="M55 696q0 99 26 195.5t76 186t129 165.5t179 132t232 88t282 32q145 0 272 -49t215 -132t138.5 -196t50.5 -239q0 -138 -49 -262.5t-133 -200.5t-179 -76q-80 0 -123 45.5t-43 118.5q-30 -77 -111.5 -126.5t-187.5 -49.5q-155 0 -261.5 117.5t-106.5 285.5q0 177 102 286 t254 109q103 0 176 -43t99 -125q-8 73 -11 152h219v-512q0 -47 31 -47q18 0 38.5 19t40 54t32 96t12.5 134q0 212 -135.5 325t-384.5 113q-149 0 -271 -50.5t-198 -134t-117 -187t-41 -213.5q0 -105 37 -200.5t108 -172.5t185.5 -122.5t257.5 -45.5q155 0 249.5 21t188.5 73 l76 -168q-124 -71 -237.5 -101t-294.5 -30q-159 0 -294.5 40.5t-231.5 110.5t-163.5 164t-100 200.5t-32.5 219.5zM737 731q0 -102 40.5 -157.5t115.5 -55.5q84 0 122 50.5t38 162.5q0 227 -168 227q-72 0 -110 -60.5t-38 -166.5z" />
<glyph unicode="A" d="M0 0v301h172l475 1155h359l497 -1155h180v-301h-817v301h209l-37 107h-438l-31 -107h211v-301h-780zM686 657h266q-34 66 -74 187.5t-63 228.5q-25 -108 -62.5 -229.5t-66.5 -186.5z" />
<glyph unicode="B" horiz-adv-x="1576" d="M35 0v301h237v854h-237v301h958q237 0 363.5 -105t126.5 -280q0 -40 -13 -81.5t-42.5 -82.5t-73 -72.5t-110 -51t-146.5 -19.5v-21q82 0 152.5 -22t119.5 -58t84 -82t51.5 -94t16.5 -94q0 -182 -133.5 -287.5t-370.5 -105.5h-983zM670 301h252q108 1 158 43q53 44 53 116 q-1 62 -49 101q-50 41 -158 41h-256v-301zM672 877h233q89 0 134.5 39.5t45.5 99.5q0 64 -45 101.5t-135 37.5h-233v-278z" />
<glyph unicode="C" horiz-adv-x="1550" d="M53 737q0 153 43 282t114 216t164.5 148t193 88.5t200.5 27.5q135 0 255.5 -63t162.5 -176l-12 233h301v-641h-295q-7 151 -100 232t-224 81q-71 0 -135.5 -25t-118.5 -74t-86.5 -133t-32.5 -192t34.5 -193.5t92.5 -137t128 -78.5t145 -27q115 0 207 64t139 198l270 -149 q-23 -125 -105.5 -228t-220 -166t-303.5 -63q-194 0 -349 56.5t-257.5 159t-156.5 245.5t-54 315z" />
<glyph unicode="D" horiz-adv-x="1705" d="M37 0v301h262v854h-262v301h881q147 0 270 -40.5t207.5 -109.5t143 -162.5t85.5 -198t27 -216.5q0 -109 -28.5 -213.5t-88.5 -198t-145 -164t-206 -112t-263 -41.5h-883zM696 301h232q92 0 159.5 60t100.5 155t33 211q0 117 -32.5 213.5t-97 155.5t-149.5 59h-246v-854z " />
<glyph unicode="E" horiz-adv-x="1589" d="M35 0v301h264v854h-264v301h1472v-606h-237v92q0 109 -46 161t-175 52h-353v-291h445v-266h-445v-297h353q129 0 175 52t46 161v100h237v-614h-1472z" />
<glyph unicode="F" horiz-adv-x="1558" d="M35 0v301h264v854h-264v301h1472v-612h-237v98q0 109 -46 161t-175 52h-353v-291h467v-266h-467v-297h355v-301h-1016z" />
<glyph unicode="G" horiz-adv-x="1753" d="M51 737q0 150 44 277.5t118 215t170 149.5t199.5 91t208.5 29q145 0 270.5 -61t173.5 -178l-10 233h303v-612h-291q-21 143 -122.5 222t-237.5 79q-75 0 -143.5 -26t-126 -77.5t-92 -139t-34.5 -198.5q0 -119 35 -213t92.5 -150t125.5 -85t140 -29q116 0 207 71t113 200 h-336v249h881v-249h-211v-533h-203v35q0 111 -16 207q-63 -131 -209 -205t-320 -74q-107 0 -209.5 28t-197.5 89.5t-166 150t-113.5 218.5t-42.5 286z" />
<glyph unicode="H" horiz-adv-x="1978" d="M35 0v301h264v854h-264v301h919v-301h-258v-278h582v278h-254v301h920v-301h-269v-854h269v-301h-920v301h254v301h-582v-301h258v-301h-919z" />
<glyph unicode="I" horiz-adv-x="1001" d="M35 0v301h266v854h-266v301h932v-301h-269v-854h269v-301h-932z" />
<glyph unicode="J" horiz-adv-x="1298" d="M0 422q0 50 11.5 99.5t37 96.5t61.5 83t89.5 57.5t117.5 21.5q105 0 179.5 -70t74.5 -171t-70.5 -171.5t-174.5 -70.5q-77 0 -138 39q32 -65 97.5 -99t142.5 -34q108 0 183 66.5t75 197.5v688h-342v301h930v-301h-191v-645q0 -104 -34 -194t-92 -154t-134 -110 t-160.5 -68.5t-170.5 -22.5q-97 0 -184 29t-156.5 84.5t-110.5 145t-41 202.5z" />
<glyph unicode="K" horiz-adv-x="1806" d="M35 0v301h266v854h-266v301h856v-301h-195v-399l449 399h-184v301h761v-301h-211l-385 -324l498 -530h162v-301h-815v301h168l-279 307l-164 -139v-168h205v-301h-866z" />
<glyph unicode="L" horiz-adv-x="1486" d="M35 0v301h264v854h-264v301h930v-301h-269v-854h293q129 0 176 52.5t47 160.5v199h275v-713h-1452z" />
<glyph unicode="M" horiz-adv-x="2320" d="M35 0v301h266v854h-266v301h860q1 -2 72.5 -226.5t129.5 -421t87 -325.5q29 131 91 329t135 412t79 232h797v-301h-269v-854h269v-301h-846v301h196v537q0 79 21 331q-17 -106 -82 -313l-266 -856h-330l-270 854q-37 114 -78 315q10 -165 10 -319v-549h201v-301h-807z " />
<glyph unicode="N" horiz-adv-x="1841" d="M35 0v301h264v854h-264v301h844q8 -15 55.5 -105.5t69.5 -132.5t68.5 -132.5t75.5 -151.5t66.5 -140t65.5 -146.5t49 -125.5q-10 105 -10 324v309h-195v301h697v-301h-213v-1155h-353l-487 848q-95 168 -143 303q14 -191 14 -350v-500h203v-301h-807z" />
<glyph unicode="O" horiz-adv-x="1677" d="M55 733q0 190 81.5 350.5t225.5 266.5q204 149 474 149q225 0 405.5 -101.5t280.5 -276.5t100 -388q0 -160 -59 -302.5t-161.5 -246t-249.5 -163.5t-316 -60q-168 0 -314 60t-248 163.5t-160.5 246t-58.5 302.5zM506 733q0 -247 75.5 -354t254.5 -107t253 106.5t74 354.5 q0 246 -73 345.5t-254 99.5q-182 0 -256 -99.5t-74 -345.5z" />
<glyph unicode="P" horiz-adv-x="1572" d="M35 0v301h264v854h-264v301h913q155 0 275 -37.5t192.5 -103t109.5 -148.5q38 -85 38 -185q0 -95 -38 -177q-39 -84 -114 -149t-196 -102.5t-275 -37.5h-244v-215h285v-301h-946zM696 782h213q115 0 171.5 54t56.5 135q0 184 -219 184h-222v-373z" />
<glyph unicode="Q" horiz-adv-x="1675" d="M55 729q0 127 37.5 244.5t108 212.5t165.5 165.5t216 109t254 38.5q169 0 315.5 -60t249 -163t161 -245t58.5 -302q0 -206 -93.5 -378t-258.5 -275q36 -45 112 -45q98 0 162 39l2 -312q-101 -24 -164 -24q-131 0 -219 67.5t-131 178.5q-85 -23 -194 -23q-168 0 -314 60 t-248 163t-160.5 245.5t-58.5 303.5zM510 729q0 -158 29 -260t96 -170q-12 38 -12 74q0 109 69 166t176 57q81 0 148.5 -49.5t107.5 -149.5q41 149 41 332q0 247 -73 347t-254 100t-254.5 -100.5t-73.5 -346.5zM784 295q0 -23 16 -40t42 -17q63 0 112 14q-13 56 -33 84.5 t-65 28.5q-34 0 -53 -20.5t-19 -49.5z" />
<glyph unicode="R" horiz-adv-x="1716" d="M35 0v301h264v854h-264v301h952q129 0 234 -32t171.5 -86.5t102 -124t35.5 -146.5q0 -148 -102.5 -244t-294.5 -102v-21q145 0 215.5 -63.5t70.5 -179.5q0 -62 -9 -131.5t-9 -87.5q0 -15 11 -24t28 -9q26 0 47.5 19t21.5 65v174h187v-172q0 -86 -30.5 -151t-84 -103 t-120.5 -57t-146 -19q-131 0 -212 61t-81 181q0 39 7 108t7 111q0 69 -46 111t-142 42h-152v-274h232v-301h-893zM696 817h166q82 0 137.5 13.5t83.5 39t39 53.5t11 64q0 70 -55.5 119t-162.5 49h-219v-338z" />
<glyph unicode="S" horiz-adv-x="1507" d="M141 -25v576h359q3 -89 32 -157.5t74.5 -108t97.5 -59t107 -19.5q91 0 151 46.5t60 127.5q0 37 -16 64.5t-34 43.5t-63.5 30.5t-71.5 20t-91 17.5q-14 3 -21 4q-107 20 -186.5 43t-157 61.5t-126 89.5t-78.5 127t-30 173q0 198 145 320t370 122q146 0 253 -63.5 t152 -173.5l-16 231h290v-588h-346q-4 167 -81.5 256.5t-204.5 89.5q-72 0 -115 -41t-43 -104q0 -52 24 -84t99.5 -62t220.5 -57q262 -47 394 -156t132 -317q0 -87 -32.5 -163t-88 -130t-127.5 -93t-152 -58t-161 -19q-150 0 -268 58.5t-176 185.5l20 -234h-295z" />
<glyph unicode="T" horiz-adv-x="1617" d="M0 743v713h1618v-713h-277v199q0 109 -46 161t-175 52h-114v-854h268v-301h-930v301h264v854h-112q-129 0 -175.5 -52t-46.5 -161v-199h-274z" />
<glyph unicode="U" horiz-adv-x="1875" d="M14 1155v301h910v-301h-277v-598q0 -79 44 -137.5t113 -86.5t152 -28t152.5 28t113.5 86.5t44 137.5v598h-273v301h869v-301h-236v-618q0 -113 -40 -209t-107.5 -162t-157.5 -112t-187.5 -67.5t-199.5 -21.5q-103 0 -200.5 21.5t-186 68t-155 112.5t-105.5 161.5 t-39 208.5v618h-234z" />
<glyph unicode="V" d="M0 1155v301h846v-301h-232l131 -342q106 -277 132 -467q31 196 135 494l108 315h-205v301h768v-301h-174l-475 -1155h-358l-498 1155h-178z" />
<glyph unicode="W" horiz-adv-x="2371" d="M0 1155v301h793v-301h-195l137 -399q70 -205 99 -367q12 121 81 375l105 391h-158v301h690v-301h-159l106 -395q69 -260 80 -371q30 168 98 367l138 399h-193v301h750v-301h-181l-473 -1155h-332q-14 48 -49 168.5t-57 197.5t-49.5 184t-44.5 189q-21 -106 -55.5 -232.5 t-82.5 -287t-65 -219.5h-332l-473 1155h-178z" />
<glyph unicode="X" horiz-adv-x="1744" d="M31 0v301h170l440 418l-436 436h-174v301h835v-301h-178l201 -231l215 231h-168v301h778v-301h-174l-440 -416l440 -438h174v-301h-825v301h168l-205 231l-215 -231h182v-301h-788z" />
<glyph unicode="Y" d="M0 1155v301h868v-301h-196l219 -371l235 371h-188v301h745v-301h-170l-462 -643v-211h266v-301h-930v301h268v191l-485 663h-170z" />
<glyph unicode="Z" horiz-adv-x="1562" d="M51 0v283l905 872h-358q-129 0 -175 -52t-46 -161v-217h-275v731h1403v-282l-927 -873h430q129 0 176 52.5t47 160.5v217h274v-731h-1454z" />
<glyph unicode="[" horiz-adv-x="794" d="M147 -268v1988h664v-250h-350v-1486h350v-252h-664z" />
<glyph unicode="\" horiz-adv-x="1392" d="M4 1456h311l1067 -1456h-315z" />
<glyph unicode="]" horiz-adv-x="798" d="M-16 -16h350v1486h-350v252h663v-1988h-663v250z" />
<glyph unicode="^" horiz-adv-x="1241" d="M10 522l514 934h211l492 -934h-301l-303 514l-365 -514h-248z" />
<glyph unicode="_" horiz-adv-x="1644" d="M14 -160h1622v-166h-1620z" />
<glyph unicode="`" horiz-adv-x="1298" d="M285 1456h342l225 -293h-172z" />
<glyph unicode="a" horiz-adv-x="1298" d="M41 301q0 150 135.5 244t390.5 94q74 0 142 -8v90q0 61 -39.5 90t-108.5 29q-121 0 -121 -158v-8h-348q-10 53 -10 90q0 71 26.5 129.5t72.5 98t109.5 66.5t135.5 39.5t152 12.5q99 0 186.5 -22t158.5 -65t112.5 -114.5t41.5 -163.5q0 -105 -9 -244.5t-9 -205.5 q0 -45 26 -45q43 0 43 63v101h166v-103q0 -156 -65 -242.5t-199 -86.5q-31 0 -58.5 4.5t-59 20t-54 40.5t-37 70t-14.5 104q0 74 8 115h-20q-17 -168 -120.5 -269.5t-250.5 -101.5q-103 0 -189 38.5t-140 116.5t-54 181zM406 356q0 -51 32.5 -78.5t83.5 -27.5q33 0 61.5 11 t56.5 36.5t46 77.5t21 125q-47 8 -95 8q-110 0 -158 -47t-48 -105z" />
<glyph unicode="b" horiz-adv-x="1378" d="M-41 1155v301h543v-24q0 -82 -11 -230q-13 -172 -32 -307q46 104 141 157.5t231 53.5q211 0 354 -160.5t146 -410.5v-9q-1 -148 -67 -274q-68 -130 -187.5 -206.5t-261.5 -76.5q-331 0 -442 242q-23 -111 -23 -227v-19h-194v1190h-197zM504 537q0 -318 235 -318 q101 0 153 84t52 234q0 143 -56 221t-161 78q-117 0 -170 -70.5t-53 -228.5z" />
<glyph unicode="c" horiz-adv-x="1101" d="M41 537q0 116 35.5 212.5t94 162t136 111t160 66.5t166.5 21q79 0 151.5 -20t130.5 -56.5t92.5 -95.5t34.5 -131q0 -95 -62 -155t-153 -60q-99 0 -157 52.5t-58 156.5q0 77 52 129q-91 -3 -157 -49t-97 -117t-31 -156q0 -76 26 -140t68 -104.5t94.5 -62.5t106.5 -22 q142 0 237 159l191 -196q-82 -143 -208.5 -210t-303.5 -67q-155 0 -281.5 78.5t-197 209t-70.5 284.5z" />
<glyph unicode="d" horiz-adv-x="1435" d="M41 535q0 124 39.5 228t107 174t159 109t194.5 39q143 0 245 -60t136 -173q-11 109 -17 303h-233v301h542v-1155h201v-301h-461v18q0 32 4 88q6 72 17 109q-42 -107 -156 -176.5t-262 -69.5q-106 0 -202 45t-164.5 121t-109 180.5t-40.5 219.5zM428 535q0 -143 56 -221 t161 -78q117 0 170 70.5t53 228.5q0 315 -235 315q-101 0 -153 -83t-52 -232z" />
<glyph unicode="e" horiz-adv-x="1193" d="M41 541q0 111 34.5 205t93.5 160t136.5 113t163 69t174.5 22q99 0 189.5 -28.5t163 -82.5t116 -141.5t43.5 -195.5q0 -88 -14 -170h-721q9 -132 88.5 -201.5t208.5 -69.5q181 0 246 162l149 -96q-76 -162 -193 -242t-288 -80q-182 0 -317.5 77t-204 206.5t-68.5 292.5z M428 676h424q1 94 -50 142t-140 48q-91 0 -153.5 -54t-80.5 -136z" />
<glyph unicode="f" horiz-adv-x="933" d="M20 768v162h117q81 0 122.5 46t41.5 120q0 101 33.5 180.5t89 127t122 71.5t138.5 24q157 0 244.5 -67t87.5 -195q0 -75 -50.5 -122.5t-131.5 -47.5t-128 33.5t-47 99.5q0 83 64 125q-32 4 -55 4q-66 0 -108 -50t-42 -118q0 -70 48.5 -124t148.5 -54h182v-215h-293v-467 h230v-301h-775v301h197v467h-236z" />
<glyph unicode="g" horiz-adv-x="1202" d="M57 -190q0 82 47.5 139t120.5 84q-62 5 -104.5 48t-42.5 101q0 66 52.5 121t129.5 74q-68 25 -119 114.5t-51 188.5q0 183 142.5 294t361.5 111q95 0 201 -28q66 -19 94 -19q117 0 117 123q-57 -47 -136 -47q-74 0 -123 41.5t-49 112.5q0 87 57.5 144.5t159.5 57.5 q68 0 121 -22t84.5 -59.5t47.5 -81.5t16 -93q0 -88 -47.5 -160.5t-151.5 -103.5q48 -40 78.5 -112t30.5 -158q0 -91 -39 -165t-106.5 -122.5t-158.5 -75t-196 -26.5q-69 0 -213 33q-49 0 -74.5 -18t-25.5 -42q0 -20 19.5 -33.5t55.5 -13.5q110 0 267.5 10.5t232.5 10.5 q159 0 252.5 -70.5t93.5 -192.5q0 -78 -38.5 -148.5t-113 -128t-198.5 -92t-281 -34.5q-260 0 -387 62.5t-127 175.5zM342 -66q0 -42 62 -56.5t206 -14.5q238 0 238 80q0 31 -19 45t-88 14q-34 0 -127 -3t-139 -3q-53 0 -82 2q-51 -17 -51 -64zM459 657q0 -96 44.5 -139 t131.5 -43q79 0 126.5 47t47.5 135q0 94 -46 142.5t-128 48.5q-84 0 -130 -48t-46 -143z" />
<glyph unicode="h" horiz-adv-x="1419" d="M20 0v301h197v854h-197v301h543v-11q0 -154 -27 -388q-28 -243 -69 -434h22q20 110 59 196.5t86.5 140t105 88.5t111.5 48.5t110 13.5q165 0 237 -103.5t72 -295.5v-410h129v-301h-629v301h156v274q0 127 -31.5 173.5t-116.5 46.5q-97 0 -156 -74.5t-59 -224.5v-195h158 v-301h-701z" />
<glyph unicode="i" horiz-adv-x="749" d="M20 0v301h199v467h-196v297h542v-764h164v-301h-709zM195 1294q0 78 57 133.5t139 55.5t140.5 -55.5t58.5 -133.5t-58.5 -134t-140.5 -56q-81 0 -138.5 56t-57.5 134z" />
<glyph unicode="j" horiz-adv-x="706" d="M0 -90q63 0 99 7t61 28.5t34 58.5t9 100v664h-195v297h543v-1018q0 -113 -44.5 -204t-120.5 -149t-175 -89t-211 -31v336zM180 1294q0 78 57.5 133.5t139.5 55.5t140 -55.5t58 -133.5t-58 -134t-140 -56t-139.5 56t-57.5 134z" />
<glyph unicode="k" horiz-adv-x="1421" d="M20 0v301h197v854h-197v301h545v-893l242 201h-127v301h668v-301h-183l-178 -139l289 -324h125v-301h-682v301h112l-108 123l-158 -123v-301h-545z" />
<glyph unicode="l" horiz-adv-x="749" d="M20 0v301h197v854h-197v301h543v-1155h166v-301h-709z" />
<glyph unicode="m" horiz-adv-x="2048" d="M20 0v301h197v467h-197v297h459q-4 -86 -15 -215t-20 -164h21q26 193 121 303.5t256 110.5q255 0 297 -279q40 142 140.5 215.5t238.5 73.5q183 0 273.5 -107.5t90.5 -285.5v-416h146v-301h-623v301h133v283q0 118 -26.5 159t-104.5 41q-94 0 -139 -49.5t-45 -152.5v-281 h133v-301h-608v301h131v283q0 118 -26.5 159t-104.5 41q-94 0 -139.5 -49.5t-45.5 -152.5v-281h135v-301h-678z" />
<glyph unicode="n" horiz-adv-x="1419" d="M20 0v301h197v467h-197v297h459v-23q0 -64 -8 -182q-10 -140 -20 -196h20q28 220 137.5 333t290.5 113q195 0 283 -102.5t88 -294.5v-412h129v-301h-629v301h156v266q0 121 -30.5 161t-117.5 40q-215 0 -215 -203v-264h158v-301h-701z" />
<glyph unicode="o" horiz-adv-x="1314" d="M41 543q0 160 84.5 291t225.5 203.5t306 72.5q128 0 242 -43t196.5 -118t130.5 -180.5t48 -225.5q0 -114 -49 -220.5t-131.5 -185t-197 -125.5t-239.5 -47q-127 0 -242 47t-196.5 125.5t-129.5 185t-48 220.5zM440 520q0 -128 21.5 -194.5t65.5 -90.5t128 -24 q64 0 101.5 10.5t64.5 44t37 93.5t10 161q0 183 -46 247t-167 64q-57 0 -94.5 -12.5t-66 -46t-41.5 -95t-13 -157.5z" />
<glyph unicode="p" horiz-adv-x="1413" d="M0 -104h197v872h-197v297h506q-4 -139 -17 -203q49 109 142.5 178.5t240.5 69.5q212 0 356 -163t144 -412q0 -161 -68.5 -295t-187 -210.5t-260.5 -76.5q-124 0 -223.5 65t-147.5 154q18 -132 27 -276h197v-297h-709v297zM545 545q0 -169 58.5 -250.5t176.5 -81.5 q102 0 153.5 86t51.5 246q0 143 -56 221t-161 78q-117 0 -170 -70.5t-53 -228.5z" />
<glyph unicode="q" horiz-adv-x="1415" d="M41 532q0 249 144.5 409.5t355.5 160.5q139 0 241.5 -61.5t147.5 -176.5q-6 27 -13 92q-6 57 -6 98v11h504v-297h-198v-872h198v-297h-708v297h204q17 196 47 397h-20q-11 -59 -25 -102t-41.5 -88t-66.5 -72.5t-102 -45.5t-146 -18q-142 0 -261 76t-187 206t-68 283z M426 549q0 -150 53 -234t154 -84q124 0 179.5 73t55.5 245q0 148 -58.5 223.5t-164.5 75.5q-105 0 -162 -78t-57 -221z" />
<glyph unicode="r" horiz-adv-x="1112" d="M20 0v301h197v467h-197v297h472q0 -76 -31 -303h20q30 145 124 246.5t229 101.5q136 0 207 -74.5t71 -175.5q0 -91 -61 -159t-164 -68q-88 0 -143.5 53t-55.5 131q0 55 21 96q-146 -80 -146 -319v-293h262v-301h-805z" />
<glyph unicode="s" horiz-adv-x="1159" d="M68 766q0 148 107.5 246t256.5 98q145 0 233 -64t115 -176l-8 220h262v-408h-319q-3 132 -64.5 188t-158.5 56q-47 0 -75 -22.5t-28 -59.5q0 -24 9 -43.5t29.5 -34.5t40.5 -26t56.5 -21.5t61 -16.5t69.5 -16q69 -15 122.5 -31t117.5 -47t106 -69t70.5 -97.5t28.5 -132.5 q0 -91 -37 -159.5t-99.5 -107.5t-135 -58t-152.5 -19q-49 0 -96 9.5t-94.5 31.5t-84 65t-51.5 103l12 -194h-264v415h314v-6q0 -254 245 -254q57 0 87 23.5t30 62.5q0 69 -69 103q-43 22 -196 58q-18 4 -30 7q-65 15 -114.5 31t-108.5 46t-97.5 68t-64.5 98t-26 134z" />
<glyph unicode="t" horiz-adv-x="1021" d="M-14 768v176h10q171 0 271 102q103 106 102 330h170v-311h426v-297h-422v-428q0 -45 31 -70.5t77 -25.5q47 0 79 25.5t32 72.5v135h203v-192q0 -80 -33.5 -143.5t-89.5 -102t-123 -58.5t-139 -20t-139 21t-123 61t-89.5 105.5t-33.5 146.5v473h-209z" />
<glyph unicode="u" horiz-adv-x="1421" d="M20 768v297h508v-586q0 -122 29.5 -161t116.5 -39q105 0 159 48.5t54 153.5v287h-244v297h590v-764h168v-301h-428q4 86 15 216t20 165h-21q-16 -87 -50 -157.5t-77.5 -117.5t-96 -79t-105 -46t-105.5 -14q-197 0 -285 95t-88 284v422h-160z" />
<glyph unicode="v" horiz-adv-x="1259" d="M0 768v297h643v-297h-135q46 -110 92 -254t68 -244q21 96 67.5 239t93.5 259h-139v297h570v-297h-121l-357 -768h-274l-385 768h-123z" />
<glyph unicode="w" horiz-adv-x="1851" d="M0 768v297h643v-297h-137q78 -222 112 -422q25 96 65.5 219.5t96 280t76.5 219.5h225q14 -42 70 -206t96.5 -293t61.5 -220q36 208 108 422h-135v297h569v-297h-120l-318 -768h-272q-145 410 -201 662q-55 -241 -199 -662h-272l-348 768h-121z" />
<glyph unicode="x" horiz-adv-x="1310" d="M20 0v301h113l311 234l-292 233h-132v297h644v-297h-97l129 -145l109 145h-84v297h569v-297h-112l-314 -219l295 -248h131v-301h-643v301h96l-127 154l-110 -154h84v-301h-570z" />
<glyph unicode="y" horiz-adv-x="1265" d="M-68 -123q0 118 59.5 189t170.5 71q84 0 145.5 -62.5t61.5 -144.5q0 -89 -56.5 -144.5t-146.5 -55.5q-40 0 -74 12q51 -57 162 -57q102 0 167.5 85t65.5 263l-352 735h-125v297h641v-297h-127q104 -265 154 -477q69 246 160 477h-140v297h568v-297h-121l-406 -893 q-47 -103 -123.5 -173t-158.5 -100t-170 -30q-71 0 -133.5 18t-113 53.5t-79.5 95.5t-29 138z" />
<glyph unicode="z" horiz-adv-x="1292" d="M59 0v188l664 631h-160q-57 0 -100 -16t-77 -53q-34 -38 -52 -106q-17 -64 -17 -153v-10h-208v584h1099v-188l-661 -631h180q60 0 105 17t80.5 56t54 110t18.5 173h225v-602h-1151z" />
<glyph unicode="{" horiz-adv-x="794" d="M51 592v274h45q69 0 99 50t30 186q0 160 26 271t88 191.5t167.5 118t261.5 37.5v-250q-150 0 -210 -81t-60 -267q0 -189 -61 -285t-191 -102q124 -9 188 -124.5t64 -303.5q0 -173 60.5 -248t209.5 -75v-252q-294 0 -418.5 131.5t-124.5 437.5q0 127 -10 185.5t-37 82 t-86 23.5h-41z" />
<glyph unicode="|" horiz-adv-x="528" d="M131 -461v1917h260v-1917h-260z" />
<glyph unicode="}" horiz-adv-x="794" d="M29 -16q150 0 210 81t60 267q0 189 61 285t191 102q-124 9 -188 124.5t-64 303.5q0 173 -60.5 248t-209.5 75v252q294 0 418 -131.5t124 -437.5q0 -127 10.5 -186t37.5 -82t86 -23h40v-274h-45q-69 0 -99 -50t-30 -186q0 -160 -26 -271t-87.5 -191.5t-167 -118 t-261.5 -37.5v250z" />
<glyph unicode="~" horiz-adv-x="1191" d="M113 672q0 200 83 295.5t216 95.5q56 0 102.5 -19t76 -46.5t53 -55t46.5 -46.5t45 -19q43 0 67.5 30t24.5 107h224q0 -94 -27.5 -175t-72 -133t-99 -81t-109.5 -29t-99.5 21t-74 51t-56 60.5t-57 51.5t-63.5 21q-35 0 -51.5 -26t-15.5 -103h-213z" />
<glyph unicode="&#xa1;" horiz-adv-x="806" d="M201 182q0 70 28 210t56 312t28 322h176q0 -148 29.5 -320.5t58.5 -314t29 -213.5q0 -97 -59.5 -152t-140.5 -55q-83 0 -144 55.5t-61 155.5zM213 1311q0 78 55 133t133 55t133.5 -55t55.5 -133t-55.5 -133.5t-133.5 -55.5t-133 55.5t-55 133.5z" />
<glyph unicode="&#xa2;" horiz-adv-x="1101" d="M41 729q0 117 35.5 214.5t98 164t138.5 110t164 64.5v217h246l-16 -203q144 -19 239.5 -95.5t95.5 -201.5q0 -95 -62 -155t-153 -60q-99 0 -157 52.5t-58 156.5q0 77 52 129q-91 -3 -157 -49t-97 -116.5t-31 -155.5q0 -76 26 -140t68 -104.5t94.5 -63t106.5 -22.5 q142 0 237 160l191 -197q-140 -242 -422 -272v-199h-229l18 207q-190 43 -309 199.5t-119 359.5z" />
<glyph unicode="&#xa3;" horiz-adv-x="1437" d="M31 188q0 94 73.5 153.5t194.5 59.5q77 0 168 -24q0 62 -59 205h-289v202h207q-52 147 -52 265q0 107 49.5 195t132 143t184 84.5t210.5 29.5q150 0 269 -40t191 -121.5t72 -192.5q0 -125 -60.5 -192.5t-154.5 -67.5q-99 0 -157 52.5t-58 156.5q0 77 52 129 q-48 69 -144 69q-221 0 -221 -319q0 -65 4 -191h373v-202h-365q0 -175 -22 -240q250 -68 391 -68q97 0 147 43t50 111v90h200v-172q0 -175 -100 -279t-283 -104q-111 0 -218.5 46t-244.5 145q-52 -91 -129 -130.5t-188 -39.5q-99 0 -161 54t-62 150zM197 193q0 -35 28 -55.5 t68 -20.5q126 0 158 106q-60 49 -148 49q-106 0 -106 -79z" />
<glyph unicode="&#xa4;" horiz-adv-x="1376" d="M82 1364h274l121 -170q103 41 213 41q116 0 209 -37l121 166h274l-207 -285q144 -141 144 -344q0 -98 -41.5 -190t-114.5 -164l217 -295h-276l-131 176q-97 -33 -195 -33q-100 0 -201 33l-129 -176h-276l217 297q-72 70 -113 162t-41 190q0 196 144 340zM500 717 q0 -113 18.5 -171.5t57 -80t112.5 -21.5q75 0 112.5 20t55.5 78t18 175q0 160 -40 216t-146 56q-67 0 -105.5 -20.5t-60.5 -81t-22 -170.5z" />
<glyph unicode="&#xa5;" d="M0 1155v301h868v-301h-196l219 -371l235 371h-188v301h745v-301h-170l-143 -199h186v-170h-309l-110 -155h311v-172h-397v-158h266v-301h-930v301h268v158h-426v172h324l-113 155h-319v170h194l-145 199h-170z" />
<glyph unicode="&#xa6;" horiz-adv-x="528" d="M131 348h260v-809h-260v809zM131 774v682h260v-682h-260z" />
<glyph unicode="&#xa7;" horiz-adv-x="1429" d="M66 520q0 141 65.5 218t185.5 122q-59 88 -59 215q0 106 45 189.5t120 134t165.5 76.5t187.5 26q114 0 211 -33t159 -102t62 -162q0 -91 -62 -138.5t-149 -47.5q-85 0 -150 45.5t-65 120.5q0 61 23 96t69 55q-56 21 -108 21q-81 0 -134.5 -46.5t-53.5 -131.5 q0 -60 28 -106.5t75.5 -76t109 -52.5t129.5 -41t135.5 -36.5t129 -44t109 -58.5t75.5 -85.5t28 -120.5q0 -133 -63 -210t-189 -128q59 -91 59 -217q0 -106 -45 -189.5t-120 -134t-165.5 -76.5t-187.5 -26q-114 0 -211 33t-159 102t-62 162q0 91 62 138.5t149 47.5 q85 0 150 -45t65 -120q0 -112 -92 -152q56 -21 108 -21q81 0 135 47t54 132q0 61 -28 107t-75.5 75.5t-109 52t-129.5 40.5t-135.5 36.5t-129 44t-109 58.5t-75.5 85.5t-28 120.5zM328 682q0 -58 41 -99.5t105.5 -64t150.5 -46t168 -44t166.5 -60t138.5 -92.5q37 43 37 119 q0 69 -56 113.5t-148 71t-191.5 50t-205 67t-169.5 106.5q-37 -43 -37 -121z" />
<glyph unicode="&#xa8;" horiz-adv-x="1185" d="M201 1303q0 65 45.5 110t109.5 45q65 0 110.5 -45.5t45.5 -109.5q0 -65 -46 -110.5t-110 -45.5t-109.5 45.5t-45.5 110.5zM672 1303q0 65 45 110t110 45t110.5 -45.5t45.5 -109.5q0 -65 -45.5 -110.5t-110.5 -45.5q-64 0 -109.5 45.5t-45.5 110.5z" />
<glyph unicode="&#xa9;" horiz-adv-x="1685" d="M94 731q0 209 100.5 385.5t273 279.5t376.5 103q152 0 291 -61t239 -163.5t159.5 -245t59.5 -298.5t-59.5 -298.5t-159.5 -245t-239 -163.5t-291 -61q-204 0 -376.5 103t-273 279.5t-100.5 385.5zM283 727q0 -158 75 -292.5t204.5 -213t281.5 -78.5t281.5 78.5t204.5 213 t75 292.5t-75 292.5t-204.5 213t-281.5 78.5t-281.5 -78.5t-204.5 -213t-75 -292.5zM395 733q0 96 29.5 176t77.5 134t112.5 91.5t132.5 54.5t138 17q137 0 237.5 -66t100.5 -182q0 -80 -51 -129t-125 -49q-83 0 -131 43t-48 129q0 66 41 107q-111 -3 -172 -79.5t-61 -186.5 q0 -124 74 -198.5t170 -74.5q116 0 194 133l158 -164q-129 -227 -422 -227q-128 0 -233 64.5t-163.5 172.5t-58.5 234z" />
<glyph unicode="&#xab;" horiz-adv-x="1484" d="M80 449v182l708 465v-168l-313 -367l313 -377v-198zM692 449v182l709 465v-168l-314 -367l314 -377v-198z" />
<glyph unicode="&#xad;" horiz-adv-x="606" d="M57 438v267h492v-267h-492z" />
<glyph unicode="&#xae;" horiz-adv-x="1167" d="M72 997q0 134 66 247.5t179.5 180t247.5 66.5t247.5 -66.5t180 -180t66.5 -247.5t-66.5 -247.5t-180 -179.5t-247.5 -66t-247.5 66t-179.5 179.5t-66 247.5zM264 711h365v125h-97v108h64q76 0 76 -61q0 -18 -3 -44.5t-3 -41.5q0 -50 33.5 -75.5t86.5 -25.5 q67 0 110.5 32.5t43.5 100.5v72h-76v-72q0 -32 -26 -32q-17 0 -17 10q0 9 3 37t3 55q0 94 -116 94v13q80 1 121.5 41t41.5 100q0 67 -58.5 112.5t-162.5 45.5h-389v-123h109v-346h-109v-125zM532 1042v140h93q43 0 64.5 -19.5t21.5 -48.5q0 -33 -23 -52.5t-86 -19.5h-70z " />
<glyph unicode="&#xaf;" horiz-adv-x="1191" d="M317 1188v219h656v-219h-656z" />
<glyph unicode="&#xb0;" horiz-adv-x="837" d="M35 1120q0 162 107.5 266.5t277.5 104.5t277.5 -104.5t107.5 -266.5q0 -160 -109 -266t-276 -106q-169 0 -277 105.5t-108 266.5zM285 1120q0 -103 27.5 -144.5t107.5 -41.5q82 0 105.5 36t23.5 150q0 44 -2 70t-9 52t-21 39.5t-38 21.5t-59 8q-80 0 -107.5 -40.5 t-27.5 -150.5z" />
<glyph unicode="&#xb1;" horiz-adv-x="1185" d="M63 0v203h1065v-203h-1065zM63 741v203h433v432h202v-432h430v-203h-430v-430h-202v430h-433z" />
<glyph unicode="&#xb2;" horiz-adv-x="978" d="M137 641v51q0 34 7 63.5t16 51.5t28 44.5t32.5 36t41 31.5t41.5 26.5t46 25.5t44 24q75 40 115.5 87t40.5 124q0 74 -46.5 113t-109.5 39q-43 0 -79.5 -18.5t-51.5 -49.5q34 19 74 19q53 0 81.5 -32.5t28.5 -78.5q0 -56 -41 -98.5t-116 -42.5q-65 0 -103.5 46.5 t-38.5 113.5q0 45 19 87.5t56.5 79t102.5 58.5t148 22q136 0 228 -68.5t92 -197.5q0 -40 -11 -74t-26.5 -59t-43.5 -47.5t-51.5 -36.5t-62 -30t-62.5 -23.5t-65 -20.5q-120 -37 -155 -58q-29 -17 -42 -38q43 29 109 29q30 0 116 -16.5t124 -16.5q44 0 72 19.5t28 56.5 q0 10 -4 30l96 21q19 -56 19 -115q0 -99 -60.5 -146.5t-150.5 -47.5q-53 0 -100.5 16t-76.5 35t-63.5 35t-63.5 16q-42 0 -65 -24t-23 -62h-94z" />
<glyph unicode="&#xb3;" horiz-adv-x="1032" d="M172 836q0 61 36.5 100t113.5 39q59 0 93 -35t34 -80q0 -42 -30 -70t-91 -28q39 -39 131 -39q64 0 99.5 41.5t35.5 99.5q0 61 -39 104.5t-111 43.5h-43v80h43q66 0 102 40.5t36 96.5t-33 96.5t-90 40.5q-45 0 -76.5 -14.5t-38.5 -40.5q3 0 10.5 1t10.5 1q38 0 62 -28.5 t24 -65.5q0 -40 -30.5 -69.5t-90.5 -29.5q-69 0 -103 38.5t-34 96.5q0 83 74.5 147t221.5 64q159 0 244.5 -65t85.5 -152q0 -78 -64.5 -131t-185.5 -53v-12q127 0 197 -60t70 -143q0 -93 -89.5 -160t-265.5 -67q-156 0 -232.5 64t-76.5 149z" />
<glyph unicode="&#xb4;" horiz-adv-x="1167" d="M410 1163l225 293h305l-395 -293h-135z" />
<glyph unicode="&#xb5;" horiz-adv-x="1421" d="M41 768v297h508v-586q0 -122 29 -161t116 -39q105 0 159 48.5t54 153.5v287h-243v297h589v-764h148v-301h-408q4 86 15 216t20 165h-20q-16 -87 -50 -157.5t-77.5 -117.5t-96.5 -79t-105.5 -46t-105.5 -14q-51 0 -105 16t-81 40q2 -79 18 -205.5t39 -218.5h-323 q22 125 51 399.5t29 357.5v412h-160z" />
<glyph unicode="&#xb6;" horiz-adv-x="1654" d="M39 987q1 97 38 180t109.5 148.5t192 103t274.5 37.5h914v-301h-264v-854h264v-301h-514v1155h-74v-1155h-535v301h285v215h-67q-154 0 -275 37.5t-196 102.5t-114 149t-38 182z" />
<glyph unicode="&#xb7;" horiz-adv-x="749" d="M195 1294q0 78 57 133.5t139 55.5t140.5 -55.5t58.5 -133.5t-58.5 -134t-140.5 -56q-81 0 -138.5 56t-57.5 134z" />
<glyph unicode="&#xb8;" horiz-adv-x="1409" d="M537 -389l131 86q8 -20 35 -34.5t59 -14.5q47 0 72.5 19.5t25.5 47.5t-26.5 50t-71.5 22q-52 0 -83 -10.5t-67 -36.5l-49 41l199 219h184l-135 -98q14 2 39 2q117 0 181.5 -49.5t64.5 -120.5q0 -83 -86.5 -145t-243.5 -62q-69 0 -121 18t-108 66z" />
<glyph unicode="&#xb9;" horiz-adv-x="794" d="M66 655v166h253v295h-247v144q295 0 299 196h139v-635h248v-166h-692z" />
<glyph unicode="&#xbb;" horiz-adv-x="1484" d="M78 -14v168l313 366l-313 377v199l708 -463v-182zM690 -14v168l314 366l-314 377v199l709 -463v-182z" />
<glyph unicode="&#xbc;" horiz-adv-x="1740" d="M66 655v166h253v295h-247v144q295 0 299 196h139v-635h137v-166h-581zM221 0l1067 1456h191l-1063 -1456h-195zM938 233v125l313 443h222v-434h159v-134h-159v-67h92v-166h-381v166h114v67h-360zM1112 367h186v170q0 31 7 133z" />
<glyph unicode="&#xbd;" horiz-adv-x="1740" d="M66 655v166h253v295h-247v144q295 0 299 196h139v-635h137v-166h-581zM221 0l1067 1456h191l-1063 -1456h-195zM965 0v51q0 34 7 63.5t16 51.5t28 44.5t32.5 36t41 31.5t41.5 26.5t46 25.5t44 24q75 40 115 87t40 124q0 74 -46 113t-109 39q-43 0 -79.5 -18.5 t-51.5 -49.5q34 19 73 19q53 0 82 -32.5t29 -78.5q0 -56 -41.5 -98.5t-116.5 -42.5q-65 0 -103 46t-38 113q0 45 19 87.5t56.5 79t102 59t147.5 22.5q136 0 228 -68.5t92 -197.5q0 -40 -11 -74t-26.5 -59t-43.5 -47.5t-51.5 -36.5t-62 -30t-62.5 -23.5t-65 -20.5 q-120 -37 -156 -58q-27 -17 -40 -38q43 29 108 29q30 0 116 -16.5t124 -16.5q44 0 72 19.5t28 56.5q0 10 -4 30l96 21q19 -56 19 -115q0 -99 -60.5 -146.5t-150.5 -47.5q-53 0 -100.5 16t-76 35t-63 35t-63.5 16q-42 0 -65 -24t-23 -62h-94z" />
<glyph unicode="&#xbe;" horiz-adv-x="1740" d="M86 836q0 61 36.5 100t113.5 39q59 0 92.5 -35t33.5 -80q0 -42 -29.5 -70t-90.5 -28q39 -39 131 -39q64 0 99.5 41.5t35.5 99.5q0 61 -39 104.5t-111 43.5h-43v80h43q66 0 102 40.5t36 96.5t-33 96.5t-90 40.5q-45 0 -76.5 -14.5t-38.5 -40.5q3 0 10.5 1t10.5 1 q38 0 62 -28.5t24 -65.5q0 -40 -30.5 -69.5t-90.5 -29.5q-69 0 -103.5 38.5t-34.5 96.5q0 83 75 147t222 64q159 0 244.5 -65t85.5 -152q0 -78 -64.5 -131t-185.5 -53v-12q127 0 197 -60t70 -143q0 -93 -89.5 -160t-265.5 -67q-156 0 -232.5 64t-76.5 149zM276 0l1067 1456 h191l-1063 -1456h-195zM948 233v125l314 443h221v-434h159v-134h-159v-67h92v-166h-381v166h115v67h-361zM1122 367h187v170q0 46 6 133z" />
<glyph unicode="&#xbf;" horiz-adv-x="1112" d="M20 360q0 83 26 150.5t68 112.5t92.5 83.5t101 71.5t92.5 67t68 80t26 101h206q7 -63 7 -108q0 -55 -21.5 -103t-54 -80t-70 -68t-70 -68t-54 -79.5t-21.5 -101.5q0 -87 52 -133.5t138 -46.5t149 66.5t66 199.5h283v-490h-254l16 262h-10q-14 -97 -77.5 -167.5 t-151.5 -104t-187 -33.5q-64 0 -124.5 14.5t-114.5 46t-94 76.5t-63.5 110t-23.5 142zM399 1311q0 78 55.5 133t133.5 55t133 -55t55 -133t-55 -133.5t-133 -55.5t-133.5 55.5t-55.5 133.5z" />
<glyph unicode="&#xc0;" d="M0 0v301h172l475 1155h359l497 -1155h180v-301h-817v301h209l-37 107h-438l-31 -107h211v-301h-780zM475 1778h371l241 -240h-184zM686 657h266q-34 66 -74 187.5t-63 228.5q-25 -108 -62.5 -229.5t-66.5 -186.5z" />
<glyph unicode="&#xc1;" d="M0 0v301h172l475 1155h359l497 -1155h180v-301h-817v301h209l-37 107h-438l-31 -107h211v-301h-780zM596 1538l242 240h370l-428 -240h-184zM686 657h266q-34 66 -74 187.5t-63 228.5q-25 -108 -62.5 -229.5t-66.5 -186.5z" />
<glyph unicode="&#xc2;" d="M0 0v301h172l475 1155h359l497 -1155h180v-301h-817v301h209l-37 107h-438l-31 -107h211v-301h-780zM434 1536l262 240h283l260 -240h-199l-219 111l-219 -111h-168zM686 657h266q-34 66 -74 187.5t-63 228.5q-25 -108 -62.5 -229.5t-66.5 -186.5z" />
<glyph unicode="&#xc3;" d="M0 0v301h172l475 1155h359l497 -1155h180v-301h-817v301h209l-37 107h-438l-31 -107h211v-301h-780zM440 1530q17 136 87.5 214.5t160.5 78.5q46 0 87 -12.5t70 -30.5t56 -36.5t58.5 -31t64.5 -12.5q40 0 62 30t32 99l127 -19q-18 -145 -82 -218.5t-159 -73.5 q-53 0 -102.5 19t-80.5 41t-68.5 41t-70.5 19q-47 0 -70 -28t-32 -94zM686 657h266q-34 66 -74 187.5t-63 228.5q-25 -108 -62.5 -229.5t-66.5 -186.5z" />
<glyph unicode="&#xc4;" d="M0 0v301h172l475 1155h359l497 -1155h180v-301h-817v301h209l-37 107h-438l-31 -107h211v-301h-780zM438 1671q0 51 43.5 87t104.5 36t104 -36t43 -87q0 -50 -43 -85.5t-104 -35.5t-104.5 35.5t-43.5 85.5zM686 657h266q-34 66 -74 187.5t-63 228.5 q-25 -108 -62.5 -229.5t-66.5 -186.5zM903 1671q0 51 43.5 87t104.5 36q60 0 102.5 -36t42.5 -87q0 -50 -42.5 -85.5t-102.5 -35.5q-61 0 -104.5 35.5t-43.5 85.5z" />
<glyph unicode="&#xc5;" d="M0 0v301h172l475 1155h359l497 -1155h180v-301h-817v301h209l-37 107h-438l-31 -107h211v-301h-780zM553 1651q0 90 78.5 146t195.5 56t196 -56t79 -146q0 -88 -75.5 -128t-199.5 -40t-199 40t-75 128zM686 657h266q-34 66 -74 187.5t-63 228.5q-25 -108 -62.5 -229.5 t-66.5 -186.5zM707 1651q0 -34 36 -55t84 -21t85.5 21t37.5 55q0 37 -36 56t-87 19q-50 0 -85 -19t-35 -56z" />
<glyph unicode="&#xc6;" horiz-adv-x="2338" d="M-90 0v301h172l655 854h-334v301h1854v-606h-238v92q0 109 -46 161t-175 52h-352v-291h444v-266h-444v-297h352q129 0 175 52t46 161v100h238v-614h-1473v301h265v107h-500l-70 -107h211v-301h-780zM723 657h326v525q-17 -28 -77 -129.5t-97 -163t-82.5 -132.5 t-69.5 -100z" />
<glyph unicode="&#xc7;" horiz-adv-x="1550" d="M53 737q0 153 43 282t114 216t164.5 148t193 88.5t200.5 27.5q135 0 255.5 -63t162.5 -176l-12 233h301v-641h-295q-7 151 -100 232t-224 81q-71 0 -135.5 -25t-118.5 -74t-86.5 -133t-32.5 -192t34.5 -193.5t92.5 -137t128 -78.5t145 -27q115 0 207 64t139 198l270 -149 q-33 -185 -195.5 -313t-402.5 -138l-90 -65q14 2 39 2q117 0 181.5 -49.5t64.5 -120.5q0 -83 -86.5 -145t-243.5 -62q-69 0 -121 18t-108 66l131 86q8 -20 35 -34.5t59 -14.5q47 0 72.5 19.5t25.5 47.5t-26.5 50t-71.5 22q-52 0 -83 -10.5t-67 -36.5l-49 41l172 194 q-326 35 -504 238.5t-178 523.5z" />
<glyph unicode="&#xc8;" horiz-adv-x="1589" d="M35 0v301h264v854h-264v301h1472v-606h-237v92q0 109 -46 161t-175 52h-353v-291h445v-266h-445v-297h353q129 0 175 52t46 161v100h237v-614h-1472zM475 1778h371l241 -240h-184z" />
<glyph unicode="&#xc9;" horiz-adv-x="1589" d="M35 0v301h264v854h-264v301h1472v-606h-237v92q0 109 -46 161t-175 52h-353v-291h445v-266h-445v-297h353q129 0 175 52t46 161v100h237v-614h-1472zM621 1538l241 240h371l-428 -240h-184z" />
<glyph unicode="&#xca;" horiz-adv-x="1589" d="M35 0v301h264v854h-264v301h1472v-606h-237v92q0 109 -46 161t-175 52h-353v-291h445v-266h-445v-297h353q129 0 175 52t46 161v100h237v-614h-1472zM434 1536l262 240h283l260 -240h-199l-219 111l-219 -111h-168z" />
<glyph unicode="&#xcb;" horiz-adv-x="1589" d="M35 0v301h264v854h-264v301h1472v-606h-237v92q0 109 -46 161t-175 52h-353v-291h445v-266h-445v-297h353q129 0 175 52t46 161v100h237v-614h-1472zM461 1671q0 51 43 87t104 36t104.5 -36t43.5 -87q0 -50 -43.5 -85.5t-104.5 -35.5t-104 35.5t-43 85.5zM926 1671 q0 51 43 87t104 36q60 0 103 -36t43 -87q0 -50 -43 -85.5t-103 -35.5q-61 0 -104 35.5t-43 85.5z" />
<glyph unicode="&#xcc;" horiz-adv-x="1001" d="M35 0v301h266v854h-266v301h932v-301h-269v-854h269v-301h-932zM115 1778h370l242 -240h-184z" />
<glyph unicode="&#xcd;" horiz-adv-x="1001" d="M35 0v301h266v854h-266v301h932v-301h-269v-854h269v-301h-932zM322 1538l241 240h371l-428 -240h-184z" />
<glyph unicode="&#xce;" horiz-adv-x="1001" d="M35 0v301h266v854h-266v301h932v-301h-269v-854h269v-301h-932zM111 1536l262 240h282l260 -240h-198l-219 111l-219 -111h-168z" />
<glyph unicode="&#xcf;" horiz-adv-x="1001" d="M35 0v301h266v854h-266v301h932v-301h-269v-854h269v-301h-932zM125 1671q0 51 43 87t104 36t104.5 -36t43.5 -87q0 -50 -43.5 -85.5t-104.5 -35.5t-104 35.5t-43 85.5zM590 1671q0 51 43 87t104 36q60 0 103 -36t43 -87q0 -50 -43 -85.5t-103 -35.5q-61 0 -104 35.5 t-43 85.5z" />
<glyph unicode="&#xd0;" horiz-adv-x="1705" d="M37 0v301h262v336h-211v203h211v315h-262v301h881q147 0 270 -40.5t207.5 -109.5t143 -162.5t85.5 -198t27 -216.5q0 -109 -28.5 -213.5t-88.5 -198t-145 -164t-206 -112t-263 -41.5h-883zM696 301h232q92 0 159.5 60t100.5 155t33 211q0 117 -32.5 213.5t-97 155.5 t-149.5 59h-246v-315h224v-203h-224v-336z" />
<glyph unicode="&#xd1;" horiz-adv-x="1841" d="M35 0v301h264v854h-264v301h844q8 -15 55.5 -105.5t69.5 -132.5t68.5 -132.5t75.5 -151.5t66.5 -140t65.5 -146.5t49 -125.5q-10 105 -10 324v309h-195v301h697v-301h-213v-1155h-353l-487 848q-95 168 -143 303q14 -191 14 -350v-500h203v-301h-807zM588 1530 q17 136 87.5 214.5t160.5 78.5q46 0 86.5 -12.5t69.5 -30.5t56 -36.5t58.5 -31t64.5 -12.5q40 0 62.5 30t32.5 99l127 -19q-18 -145 -82.5 -218.5t-159.5 -73.5q-53 0 -102.5 19t-80.5 41t-68.5 41t-70.5 19q-47 0 -70 -28t-32 -94z" />
<glyph unicode="&#xd2;" horiz-adv-x="1677" d="M55 733q0 190 81.5 350.5t225.5 266.5q204 149 474 149q225 0 405.5 -101.5t280.5 -276.5t100 -388q0 -160 -59 -302.5t-161.5 -246t-249.5 -163.5t-316 -60q-168 0 -314 60t-248 163.5t-160.5 246t-58.5 302.5zM506 733q0 -247 75.5 -354t254.5 -107t253 106.5t74 354.5 q0 246 -73 345.5t-254 99.5q-182 0 -256 -99.5t-74 -345.5zM530 1778h371l242 -240h-185z" />
<glyph unicode="&#xd3;" horiz-adv-x="1677" d="M55 733q0 190 81.5 350.5t225.5 266.5q204 149 474 149q225 0 405.5 -101.5t280.5 -276.5t100 -388q0 -160 -59 -302.5t-161.5 -246t-249.5 -163.5t-316 -60q-168 0 -314 60t-248 163.5t-160.5 246t-58.5 302.5zM506 733q0 -247 75.5 -354t254.5 -107t253 106.5t74 354.5 q0 246 -73 345.5t-254 99.5q-182 0 -256 -99.5t-74 -345.5zM588 1538l241 240h371l-428 -240h-184z" />
<glyph unicode="&#xd4;" horiz-adv-x="1677" d="M55 733q0 190 81.5 350.5t225.5 266.5q204 149 474 149q225 0 405.5 -101.5t280.5 -276.5t100 -388q0 -160 -59 -302.5t-161.5 -246t-249.5 -163.5t-316 -60q-168 0 -314 60t-248 163.5t-160.5 246t-58.5 302.5zM455 1536l262 240h282l261 -240h-199l-219 111l-219 -111 h-168zM506 733q0 -247 75.5 -354t254.5 -107t253 106.5t74 354.5q0 246 -73 345.5t-254 99.5q-182 0 -256 -99.5t-74 -345.5z" />
<glyph unicode="&#xd5;" horiz-adv-x="1677" d="M55 733q0 190 81.5 350.5t225.5 266.5q204 149 474 149q225 0 405.5 -101.5t280.5 -276.5t100 -388q0 -160 -59 -302.5t-161.5 -246t-249.5 -163.5t-316 -60q-168 0 -314 60t-248 163.5t-160.5 246t-58.5 302.5zM465 1542q17 136 87.5 214.5t160.5 78.5q46 0 87 -12.5 t70 -30.5t56 -36.5t58.5 -31t64.5 -12.5q40 0 62 30t32 99l127 -18q-18 -145 -82.5 -219t-159.5 -74q-53 0 -102.5 19t-80 41.5t-68 41.5t-70.5 19q-47 0 -70.5 -28.5t-32.5 -94.5zM506 733q0 -247 75.5 -354t254.5 -107t253 106.5t74 354.5q0 246 -73 345.5t-254 99.5 q-182 0 -256 -99.5t-74 -345.5z" />
<glyph unicode="&#xd6;" horiz-adv-x="1677" d="M55 733q0 190 81.5 350.5t225.5 266.5q204 149 474 149q225 0 405.5 -101.5t280.5 -276.5t100 -388q0 -160 -59 -302.5t-161.5 -246t-249.5 -163.5t-316 -60q-168 0 -314 60t-248 163.5t-160.5 246t-58.5 302.5zM457 1671q0 51 43 87t104 36t104.5 -36t43.5 -87 q0 -50 -43.5 -85.5t-104.5 -35.5t-104 35.5t-43 85.5zM506 733q0 -247 75.5 -354t254.5 -107t253 106.5t74 354.5q0 246 -73 345.5t-254 99.5q-182 0 -256 -99.5t-74 -345.5zM922 1671q0 51 43 87t104 36q60 0 102.5 -36t42.5 -87q0 -50 -42.5 -85.5t-102.5 -35.5 q-61 0 -104 35.5t-43 85.5z" />
<glyph unicode="&#xd7;" horiz-adv-x="1185" d="M150 270l305 305l-305 306l143 143l305 -305l303 303l143 -143l-303 -304l303 -303l-143 -143l-303 303l-305 -305z" />
<glyph unicode="&#xd8;" horiz-adv-x="1677" d="M55 733q0 190 81.5 350.5t225.5 266.5q204 149 474 149q219 0 401 -98l76 98h203l-146 -192q120 -105 186 -254t66 -320q0 -160 -59 -302t-161.5 -244.5t-249.5 -162t-316 -59.5q-221 0 -400 98l-78 -102h-221l158 207q-114 104 -177 250t-63 315zM506 733 q0 -153 29 -252l497 652q-71 45 -196 45q-182 0 -256 -99.5t-74 -345.5zM633 326q74 -54 203 -54q179 0 253 106.5t74 354.5q0 170 -30 256z" />
<glyph unicode="&#xd9;" horiz-adv-x="1875" d="M14 1155v301h910v-301h-277v-598q0 -79 44 -137.5t113 -86.5t152 -28t152.5 28t113.5 86.5t44 137.5v598h-273v301h869v-301h-236v-618q0 -113 -40 -209t-107.5 -162t-157.5 -112t-187.5 -67.5t-199.5 -21.5q-103 0 -200.5 21.5t-186 68t-155 112.5t-105.5 161.5 t-39 208.5v618h-234zM561 1778h371l242 -240h-185z" />
<glyph unicode="&#xda;" horiz-adv-x="1875" d="M14 1155v301h910v-301h-277v-598q0 -79 44 -137.5t113 -86.5t152 -28t152.5 28t113.5 86.5t44 137.5v598h-273v301h869v-301h-236v-618q0 -113 -40 -209t-107.5 -162t-157.5 -112t-187.5 -67.5t-199.5 -21.5q-103 0 -200.5 21.5t-186 68t-155 112.5t-105.5 161.5 t-39 208.5v618h-234zM698 1538l242 240h371l-428 -240h-185z" />
<glyph unicode="&#xdb;" horiz-adv-x="1875" d="M14 1155v301h910v-301h-277v-598q0 -79 44 -137.5t113 -86.5t152 -28t152.5 28t113.5 86.5t44 137.5v598h-273v301h869v-301h-236v-618q0 -113 -40 -209t-107.5 -162t-157.5 -112t-187.5 -67.5t-199.5 -21.5q-103 0 -200.5 21.5t-186 68t-155 112.5t-105.5 161.5 t-39 208.5v618h-234zM571 1536l263 240h282l260 -240h-198l-220 111l-219 -111h-168z" />
<glyph unicode="&#xdc;" horiz-adv-x="1875" d="M14 1155v301h910v-301h-277v-598q0 -79 44 -137.5t113 -86.5t152 -28t152.5 28t113.5 86.5t44 137.5v598h-273v301h869v-301h-236v-618q0 -113 -40 -209t-107.5 -162t-157.5 -112t-187.5 -67.5t-199.5 -21.5q-103 0 -200.5 21.5t-186 68t-155 112.5t-105.5 161.5 t-39 208.5v618h-234zM575 1671q0 51 43.5 87t104.5 36t104 -36t43 -87q0 -50 -43 -85.5t-104 -35.5t-104.5 35.5t-43.5 85.5zM1040 1671q0 51 43.5 87t104.5 36q60 0 102.5 -36t42.5 -87q0 -50 -42.5 -85.5t-102.5 -35.5q-61 0 -104.5 35.5t-43.5 85.5z" />
<glyph unicode="&#xdd;" d="M0 1155v301h868v-301h-196l219 -371l235 371h-188v301h745v-301h-170l-462 -643v-211h266v-301h-930v301h268v191l-485 663h-170zM670 1538l241 240h371l-428 -240h-184z" />
<glyph unicode="&#xde;" horiz-adv-x="1572" d="M35 0v301h264v854h-264v301h661v-246h252q155 0 275 -37.5t192.5 -103t109.5 -148.5t38 -180q1 -98 -38 -182t-114 -149t-196 -102.5t-275 -37.5h-244v-270h-661zM696 537h213q115 0 171.5 53.5t56.5 134.5q0 184 -219 184h-222v-372z" />
<glyph unicode="&#xdf;" horiz-adv-x="1310" d="M20 768v162h117q81 0 122.5 46t41.5 120q0 98 39.5 176.5t105 126t145 72t165.5 24.5q105 0 195 -34.5t148 -105.5t58 -167q0 -52 -18 -96t-43.5 -74t-51 -57t-43.5 -58t-18 -65q0 -36 17 -68t44 -58.5t60 -54t65.5 -60t59.5 -70t44 -91.5t17 -117q0 -155 -122.5 -251.5 t-305.5 -96.5q-60 0 -143 17v231q43 -12 78 -12q100 0 100 90q0 34 -18.5 62.5t-45 54t-53 56t-45 82.5t-18.5 120q0 62 17.5 116t42.5 93t50 76t42.5 83.5t17.5 98.5q0 65 -46 102t-108 37t-105.5 -36.5t-43.5 -104.5q0 -21 10 -140.5t10 -232.5v-764h-545v301h197v467 h-236z" />
<glyph unicode="&#xe0;" horiz-adv-x="1298" d="M41 301q0 150 135.5 244t390.5 94q74 0 142 -8v90q0 61 -39.5 90t-108.5 29q-124 0 -121 -166h-348q-10 53 -10 90q0 71 26.5 129.5t72.5 98t109.5 66.5t135.5 39.5t152 12.5q99 0 186.5 -22t158.5 -65t112.5 -114.5t41.5 -163.5q0 -105 -9 -244.5t-9 -205.5 q0 -45 26 -45q43 0 43 63v101h166v-103q0 -156 -65 -242.5t-199 -86.5q-31 0 -58.5 4.5t-59 20t-54 40.5t-37 70t-14.5 104q0 74 8 115h-20q-17 -168 -120.5 -269.5t-250.5 -101.5q-103 0 -189 38.5t-140 116.5t-54 181zM285 1456h342l225 -293h-172zM406 356 q0 -51 32.5 -78.5t83.5 -27.5q33 0 61.5 11t56.5 36.5t46 77.5t21 125q-47 8 -95 8q-110 0 -158 -47t-48 -105z" />
<glyph unicode="&#xe1;" horiz-adv-x="1298" d="M41 301q0 150 135.5 244t390.5 94q74 0 142 -8v90q0 61 -39.5 90t-108.5 29q-124 0 -121 -166h-348q-10 53 -10 90q0 71 26.5 129.5t72.5 98t109.5 66.5t135.5 39.5t152 12.5q99 0 186.5 -22t158.5 -65t112.5 -114.5t41.5 -163.5q0 -105 -9 -244.5t-9 -205.5 q0 -45 26 -45q43 0 43 63v101h166v-103q0 -156 -65 -242.5t-199 -86.5q-31 0 -58.5 4.5t-59 20t-54 40.5t-37 70t-14.5 104q0 74 8 115h-20q-17 -168 -120.5 -269.5t-250.5 -101.5q-103 0 -189 38.5t-140 116.5t-54 181zM385 1163l225 293h342l-395 -293h-172zM406 356 q0 -51 32.5 -78.5t83.5 -27.5q33 0 61.5 11t56.5 36.5t46 77.5t21 125q-47 8 -95 8q-110 0 -158 -47t-48 -105z" />
<glyph unicode="&#xe2;" horiz-adv-x="1298" d="M41 301q0 150 135.5 244t390.5 94q74 0 142 -8v90q0 61 -39.5 90t-108.5 29q-124 0 -121 -166h-348q-10 53 -10 90q0 71 26.5 129.5t72.5 98t109.5 66.5t135.5 39.5t152 12.5q99 0 186.5 -22t158.5 -65t112.5 -114.5t41.5 -163.5q0 -105 -9 -244.5t-9 -205.5 q0 -45 26 -45q43 0 43 63v101h166v-103q0 -156 -65 -242.5t-199 -86.5q-31 0 -58.5 4.5t-59 20t-54 40.5t-37 70t-14.5 104q0 74 8 115h-20q-17 -168 -120.5 -269.5t-250.5 -101.5q-103 0 -189 38.5t-140 116.5t-54 181zM229 1163l244 293h260l242 -293h-184l-203 150 l-203 -150h-156zM406 356q0 -51 32.5 -78.5t83.5 -27.5q33 0 61.5 11t56.5 36.5t46 77.5t21 125q-47 8 -95 8q-110 0 -158 -47t-48 -105z" />
<glyph unicode="&#xe3;" horiz-adv-x="1298" d="M41 301q0 150 135.5 244t390.5 94q74 0 142 -8v90q0 61 -39.5 90t-108.5 29q-124 0 -121 -166h-348q-10 53 -10 90q0 71 26.5 129.5t72.5 98t109.5 66.5t135.5 39.5t152 12.5q99 0 186.5 -22t158.5 -65t112.5 -114.5t41.5 -163.5q0 -105 -9 -244.5t-9 -205.5 q0 -45 26 -45q43 0 43 63v101h166v-103q0 -156 -65 -242.5t-199 -86.5q-31 0 -58.5 4.5t-59 20t-54 40.5t-37 70t-14.5 104q0 74 8 115h-20q-17 -168 -120.5 -269.5t-250.5 -101.5q-103 0 -189 38.5t-140 116.5t-54 181zM240 1210q9 137 76 216t171 79q50 0 93.5 -18 t69.5 -40t63.5 -40t77.5 -18q82 0 94 108l94 -16q-10 -137 -72.5 -217t-152.5 -80q-41 0 -77 13t-63 31t-52.5 36.5t-56 31.5t-63.5 13q-52 0 -78 -27t-32 -86zM406 356q0 -51 32.5 -78.5t83.5 -27.5q33 0 61.5 11t56.5 36.5t46 77.5t21 125q-47 8 -95 8q-110 0 -158 -47 t-48 -105z" />
<glyph unicode="&#xe4;" horiz-adv-x="1298" d="M41 301q0 150 135.5 244t390.5 94q74 0 142 -8v90q0 61 -39.5 90t-108.5 29q-124 0 -121 -166h-348q-10 53 -10 90q0 88 40 156t110 108t157.5 60t188.5 20q78 0 150 -13t136 -42t111 -70.5t74.5 -102.5t27.5 -135q0 -105 -9 -244.5t-9 -205.5q0 -45 26 -45q43 0 43 63 v101h166v-103q0 -156 -65 -242.5t-199 -86.5q-31 0 -58.5 4.5t-59 20t-54 40.5t-37 70t-14.5 104q0 74 8 115h-20q-17 -168 -120.5 -269.5t-250.5 -101.5q-103 0 -189 38.5t-140 116.5t-54 181zM201 1303q0 65 45.5 110t109.5 45q65 0 110.5 -45.5t45.5 -109.5 q0 -65 -46 -110.5t-110 -45.5t-109.5 45.5t-45.5 110.5zM406 356q0 -51 32.5 -78.5t83.5 -27.5q33 0 61.5 11t56.5 36.5t46 77.5t21 125q-47 8 -95 8q-110 0 -158 -47t-48 -105zM672 1303q0 65 45 110t110 45t110.5 -45.5t45.5 -109.5q0 -65 -45.5 -110.5t-110.5 -45.5 q-64 0 -109.5 45.5t-45.5 110.5z" />
<glyph unicode="&#xe5;" horiz-adv-x="1298" d="M41 301q0 150 135.5 244t390.5 94q74 0 142 -8v90q0 61 -39.5 90t-108.5 29q-124 0 -121 -166h-348q-10 53 -10 90q0 71 26.5 129.5t72.5 98t109.5 66.5t135.5 39.5t152 12.5q99 0 186.5 -22t158.5 -65t112.5 -114.5t41.5 -163.5q0 -105 -9 -244.5t-9 -205.5 q0 -45 26 -45q43 0 43 63v101h166v-103q0 -156 -65 -242.5t-199 -86.5q-31 0 -58.5 4.5t-59 20t-54 40.5t-37 70t-14.5 104q0 74 8 115h-20q-17 -168 -120.5 -269.5t-250.5 -101.5q-103 0 -189 38.5t-140 116.5t-54 181zM377 1319q0 98 69.5 159.5t171.5 61.5t172 -61.5 t70 -159.5q0 -95 -66.5 -138.5t-175.5 -43.5t-175 43.5t-66 138.5zM406 356q0 -51 32.5 -78.5t83.5 -27.5q33 0 61.5 11t56.5 36.5t46 77.5t21 125q-47 8 -95 8q-110 0 -158 -47t-48 -105zM518 1317q0 -40 28.5 -63t71.5 -23t72 23t29 63t-29 62t-72 22t-71.5 -22t-28.5 -62 z" />
<glyph unicode="&#xe6;" horiz-adv-x="1837" d="M41 301q0 150 135.5 244t390.5 94q74 0 142 -8v90q0 61 -39.5 90t-108.5 29q-124 0 -121 -166h-348q-10 53 -10 90q0 88 40 156t110 108t157.5 60t188.5 20q104 0 211 -41.5t149 -110.5q45 68 150 111t202 43q99 0 189.5 -28.5t163 -82.5t116 -141.5t43.5 -195.5 q0 -88 -14 -170h-721q9 -132 88.5 -201.5t208.5 -69.5q181 0 246 162l149 -96q-76 -162 -193 -242t-288 -80q-207 0 -328 104.5t-143 266.5h-12q-17 -168 -120.5 -269.5t-250.5 -101.5q-103 0 -189 38.5t-140 116.5t-54 181zM406 356q0 -51 32.5 -78.5t83.5 -27.5 q33 0 61.5 11t56.5 36.5t46 77.5t21 125q-47 8 -95 8q-110 0 -158 -47t-48 -105zM1075 676h424q1 94 -50 142t-140 48q-91 0 -153.5 -54t-80.5 -136z" />
<glyph unicode="&#xe7;" horiz-adv-x="1101" d="M41 537q0 115 35.5 212t94 162t136 110.5t159.5 66t167 20.5q79 0 151.5 -19.5t130.5 -56t92.5 -95t34.5 -130.5q0 -95 -62 -155t-153 -60q-99 0 -157 52.5t-58 156.5q0 77 52 129q-91 -3 -157 -49t-97 -117t-31 -156q0 -76 26 -140t68 -104.5t94.5 -62.5t106.5 -22 q142 0 237 159l191 -196q-145 -249 -445 -273l-92 -67q14 2 39 2q117 0 181.5 -49.5t64.5 -120.5q0 -83 -86.5 -145t-243.5 -62q-69 0 -121 18t-108 66l131 86q8 -20 35 -34.5t59 -14.5q47 0 72.5 19.5t25.5 47.5t-26.5 50t-71.5 22q-52 0 -82.5 -10.5t-66.5 -36.5l-50 41 l172 194q-197 37 -322.5 195.5t-125.5 366.5z" />
<glyph unicode="&#xe8;" horiz-adv-x="1193" d="M41 541q0 111 34.5 205t93.5 160t136.5 113t163 69t174.5 22q99 0 189.5 -28.5t163 -82.5t116 -141.5t43.5 -195.5q0 -88 -14 -170h-721q9 -132 88.5 -201.5t208.5 -69.5q181 0 246 162l149 -96q-76 -162 -193 -242t-288 -80q-182 0 -317.5 77t-204 206.5t-68.5 292.5z M276 1456h342l226 -293h-172zM428 676h424q1 94 -50 142t-140 48q-91 0 -153.5 -54t-80.5 -136z" />
<glyph unicode="&#xe9;" horiz-adv-x="1193" d="M41 541q0 111 34.5 205t93.5 160t136.5 113t163 69t174.5 22q99 0 189.5 -28.5t163 -82.5t116 -141.5t43.5 -195.5q0 -88 -14 -170h-721q9 -132 88.5 -201.5t208.5 -69.5q181 0 246 162l149 -96q-76 -162 -193 -242t-288 -80q-182 0 -317.5 77t-204 206.5t-68.5 292.5z M393 1163l225 293h343l-396 -293h-172zM428 676h424q1 94 -50 142t-140 48q-91 0 -153.5 -54t-80.5 -136z" />
<glyph unicode="&#xea;" horiz-adv-x="1193" d="M41 541q0 111 34.5 205t93.5 160t136.5 113t163 69t174.5 22q99 0 189.5 -28.5t163 -82.5t116 -141.5t43.5 -195.5q0 -88 -14 -170h-721q9 -132 88.5 -201.5t208.5 -69.5q181 0 246 162l149 -96q-76 -162 -193 -242t-288 -80q-182 0 -317.5 77t-204 206.5t-68.5 292.5z M264 1163l244 293h260l242 -293h-185l-202 150l-203 -150h-156zM428 676h424q1 94 -50 142t-140 48q-91 0 -153.5 -54t-80.5 -136z" />
<glyph unicode="&#xeb;" horiz-adv-x="1193" d="M41 541q0 111 34.5 205t93.5 160t136.5 113t163 69t174.5 22q99 0 189.5 -28.5t163 -82.5t116 -141.5t43.5 -195.5q0 -88 -14 -170h-721q9 -132 88.5 -201.5t208.5 -69.5q181 0 246 162l149 -96q-76 -162 -193 -242t-288 -80q-182 0 -317.5 77t-204 206.5t-68.5 292.5z M250 1303q0 64 45.5 109.5t110.5 45.5q64 0 109.5 -45t45.5 -110t-45.5 -110.5t-109.5 -45.5t-110 45.5t-46 110.5zM428 676h424q1 94 -50 142t-140 48q-91 0 -153.5 -54t-80.5 -136zM721 1303q0 64 45.5 109.5t110.5 45.5t110 -45t45 -110t-45.5 -110.5t-109.5 -45.5 q-65 0 -110.5 45.5t-45.5 110.5z" />
<glyph unicode="&#xec;" horiz-adv-x="749" d="M2 1456h342l225 -293h-172zM20 0v301h199v467h-196v297h542v-764h164v-301h-709z" />
<glyph unicode="&#xed;" horiz-adv-x="749" d="M20 0v297h199v471h-196v297h542v-768h164v-297h-709zM188 1163l226 293h342l-396 -293h-172z" />
<glyph unicode="&#xee;" horiz-adv-x="749" d="M-35 1163l244 293h260l242 -293h-185l-202 150l-203 -150h-156zM20 0v301h199v467h-196v297h542v-764h164v-301h-709z" />
<glyph unicode="&#xef;" horiz-adv-x="749" d="M-25 1303q0 64 45.5 109.5t110.5 45.5t110.5 -45.5t45.5 -109.5q0 -65 -45.5 -110.5t-110.5 -45.5t-110.5 45.5t-45.5 110.5zM20 0v301h199v467h-196v297h542v-764h164v-301h-709zM446 1303q0 64 45.5 109.5t110.5 45.5t110.5 -45.5t45.5 -109.5q0 -65 -46 -110.5 t-110 -45.5t-110 45.5t-46 110.5z" />
<glyph unicode="&#xf0;" horiz-adv-x="1302" d="M45 471q0 219 136.5 338t359.5 119q212 0 321 -115q0 229 -74 352l-272 -121l-119 111l283 127q-130 83 -371 80l39 170q342 -18 557 -152l230 103l118 -111l-215 -96q211 -208 211 -584q0 -162 -37.5 -293.5t-113.5 -229.5t-199 -152t-285 -54q-267 0 -418 142.5 t-151 365.5zM428 483q0 -176 47.5 -243.5t157.5 -67.5q82 0 129 28.5t73.5 108.5t26.5 223q0 112 -60 183t-171 71t-157 -78.5t-46 -224.5z" />
<glyph unicode="&#xf1;" horiz-adv-x="1419" d="M20 0v301h197v467h-197v297h459q2 -64 -8 -204.5t-20 -196.5h20q28 220 137.5 333t290.5 113q195 0 283 -102.5t88 -294.5v-412h129v-301h-629v301h156v266q0 121 -30.5 161t-117.5 40q-215 0 -215 -203v-264h158v-301h-701zM350 1210q9 137 76.5 216t171.5 79 q50 0 93.5 -18t69 -40t63 -40t77.5 -18q82 0 94 108l95 -16q-10 -137 -73 -217t-153 -80q-49 0 -93.5 19.5t-72.5 43t-67 43t-78 19.5q-52 0 -78.5 -27t-32.5 -86z" />
<glyph unicode="&#xf2;" horiz-adv-x="1314" d="M41 543q0 160 84.5 291t225.5 203.5t306 72.5q128 0 242 -43t196.5 -118t130.5 -180.5t48 -225.5q0 -114 -49 -220.5t-131.5 -185t-197 -125.5t-239.5 -47q-127 0 -242 47t-196.5 125.5t-129.5 185t-48 220.5zM285 1456h342l225 -293h-172zM440 520q0 -128 21.5 -194.5 t65.5 -90.5t128 -24q64 0 101.5 10.5t64.5 44t37 93.5t10 161q0 183 -46 247t-167 64q-57 0 -94.5 -12.5t-66 -46t-41.5 -95t-13 -157.5z" />
<glyph unicode="&#xf3;" horiz-adv-x="1314" d="M41 543q0 160 84.5 291t225.5 203.5t306 72.5q128 0 242 -43t196.5 -118t130.5 -180.5t48 -225.5q0 -114 -49 -220.5t-131.5 -185t-197 -125.5t-239.5 -47q-127 0 -242 47t-196.5 125.5t-129.5 185t-48 220.5zM410 1163l225 293h342l-395 -293h-172zM440 520 q0 -128 21.5 -194.5t65.5 -90.5t128 -24q64 0 101.5 10.5t64.5 44t37 93.5t10 161q0 183 -46 247t-167 64q-57 0 -94.5 -12.5t-66 -46t-41.5 -95t-13 -157.5z" />
<glyph unicode="&#xf4;" horiz-adv-x="1314" d="M41 543q0 160 84.5 291t225.5 203.5t306 72.5q128 0 242 -43t196.5 -118t130.5 -180.5t48 -225.5q0 -114 -49 -220.5t-131.5 -185t-197 -125.5t-239.5 -47q-127 0 -242 47t-196.5 125.5t-129.5 185t-48 220.5zM297 1163l244 293h260l241 -293h-184l-203 150l-202 -150 h-156zM440 520q0 -128 21.5 -194.5t65.5 -90.5t128 -24q64 0 101.5 10.5t64.5 44t37 93.5t10 161q0 183 -46 247t-167 64q-57 0 -94.5 -12.5t-66 -46t-41.5 -95t-13 -157.5z" />
<glyph unicode="&#xf5;" horiz-adv-x="1314" d="M41 543q0 160 84.5 291t225.5 203.5t306 72.5q128 0 242 -43t196.5 -118t130.5 -180.5t48 -225.5q0 -114 -49 -220.5t-131.5 -185t-197 -125.5t-239.5 -47q-127 0 -242 47t-196.5 125.5t-129.5 185t-48 220.5zM289 1210q9 137 76.5 216t171.5 79q50 0 93.5 -18t69 -40 t63 -40t77.5 -18q82 0 94 108l94 -16q-10 -137 -72.5 -217t-152.5 -80q-49 0 -93.5 19.5t-72.5 43t-67 43t-78 19.5q-52 0 -78.5 -27t-32.5 -86zM440 520q0 -128 21.5 -194.5t65.5 -90.5t128 -24q64 0 101.5 10.5t64.5 44t37 93.5t10 161q0 183 -46 247t-167 64 q-57 0 -94.5 -12.5t-66 -46t-41.5 -95t-13 -157.5z" />
<glyph unicode="&#xf6;" horiz-adv-x="1314" d="M41 543q0 160 84.5 291t225.5 203.5t306 72.5q128 0 242 -43t196.5 -118t130.5 -180.5t48 -225.5q0 -114 -49 -220.5t-131.5 -185t-197 -125.5t-239.5 -47q-127 0 -242 47t-196.5 125.5t-129.5 185t-48 220.5zM266 1303q0 64 45.5 109.5t110.5 45.5t110.5 -45.5 t45.5 -109.5q0 -65 -46 -110.5t-110 -45.5t-110 45.5t-46 110.5zM440 520q0 -128 21.5 -194.5t65.5 -90.5t128 -24q64 0 101.5 10.5t64.5 44t37 93.5t10 161q0 183 -46 247t-167 64q-57 0 -94.5 -12.5t-66 -46t-41.5 -95t-13 -157.5zM737 1303q0 64 45.5 109.5t110.5 45.5 t110.5 -45.5t45.5 -109.5q0 -65 -45.5 -110.5t-110.5 -45.5t-110.5 45.5t-45.5 110.5z" />
<glyph unicode="&#xf7;" horiz-adv-x="1185" d="M63 473v203h1065v-203h-1065zM408 193q0 71 50 121.5t122 50.5t123 -50.5t51 -121.5q0 -72 -51 -123.5t-123 -51.5t-122 51.5t-50 123.5zM418 950q0 72 50 122t122 50t122 -50t50 -122t-50 -122t-122 -50t-122 50t-50 122z" />
<glyph unicode="&#xf8;" horiz-adv-x="1314" d="M41 543q0 160 84.5 291t225.5 203.5t306 72.5q166 0 310 -72l61 82h158l-113 -151q94 -78 147.5 -188t53.5 -238q0 -114 -49 -220.5t-131.5 -185t-197 -125.5t-239.5 -47q-156 0 -292 68l-74 -105h-172l137 178q-101 79 -158 194t-57 243zM440 520q0 -80 11 -155l335 438 q-46 28 -131 28q-57 0 -94.5 -12.5t-66 -46t-41.5 -95t-13 -157.5zM522 238q45 -27 133 -27q64 0 101.5 10.5t64.5 44t37 93.5t10 161q0 98 -12 162z" />
<glyph unicode="&#xf9;" horiz-adv-x="1421" d="M20 768v297h508v-586q0 -122 29.5 -161t116.5 -39q105 0 159 48.5t54 153.5v287h-244v297h590v-764h168v-301h-428q4 86 15 216t20 165h-21q-16 -87 -50 -157.5t-77.5 -117.5t-96 -79t-105 -46t-105.5 -14q-197 0 -285 95t-88 284v422h-160zM297 1456h342l225 -293h-172z " />
<glyph unicode="&#xfa;" horiz-adv-x="1421" d="M20 768v297h508v-586q0 -122 29.5 -161t116.5 -39q105 0 159 48.5t54 153.5v287h-244v297h590v-768h168v-297h-428q4 86 15 216t20 165h-21q-16 -87 -50 -157.5t-77.5 -117.5t-96 -79t-105 -46t-105.5 -14q-197 0 -285 95t-88 284v422h-160zM483 1163l226 293h342 l-396 -293h-172z" />
<glyph unicode="&#xfb;" horiz-adv-x="1421" d="M20 768v297h508v-586q0 -122 29.5 -161t116.5 -39q105 0 159 48.5t54 153.5v287h-244v297h590v-764h168v-301h-428q4 86 15 216t20 165h-21q-16 -87 -50 -157.5t-77.5 -117.5t-96 -79t-105 -46t-105.5 -14q-197 0 -285 95t-88 284v422h-160zM291 1163l244 293h260 l241 -293h-184l-203 150l-203 -150h-155z" />
<glyph unicode="&#xfc;" horiz-adv-x="1421" d="M20 768v297h508v-586q0 -122 29.5 -161t116.5 -39q105 0 159 48.5t54 153.5v287h-244v297h590v-764h168v-301h-428q4 86 15 216t20 165h-21q-16 -87 -50 -157.5t-77.5 -117.5t-96 -79t-105 -46t-105.5 -14q-197 0 -285 95t-88 284v422h-160zM287 1303q0 65 45.5 110 t109.5 45q65 0 110.5 -45.5t45.5 -109.5q0 -65 -46 -110.5t-110 -45.5t-109.5 45.5t-45.5 110.5zM758 1303q0 65 45 110t110 45t110.5 -45.5t45.5 -109.5q0 -65 -45.5 -110.5t-110.5 -45.5q-64 0 -109.5 45.5t-45.5 110.5z" />
<glyph unicode="&#xfd;" horiz-adv-x="1265" d="M-68 -123q0 118 59.5 189t170.5 71q84 0 145.5 -62.5t61.5 -144.5q0 -89 -56.5 -144.5t-146.5 -55.5q-40 0 -74 12q51 -57 162 -57q102 0 167.5 85t65.5 263l-352 735h-125v297h641v-297h-127q104 -265 154 -477q69 246 160 477h-140v297h568v-297h-121l-406 -893 q-47 -103 -123.5 -173t-158.5 -100t-170 -30q-71 0 -133.5 18t-113 53.5t-79.5 95.5t-29 138zM492 1163l225 293h342l-395 -293h-172z" />
<glyph unicode="&#xfe;" horiz-adv-x="1413" d="M0 -104h197v1259h-197v301h551q-3 -322 -62 -594q49 109 142.5 178.5t240.5 69.5q212 0 356 -163t144 -412q0 -161 -68.5 -295t-187 -210.5t-260.5 -76.5q-124 0 -223.5 65t-147.5 154q18 -132 27 -276h197v-297h-709v297zM545 545q0 -169 58.5 -250.5t176.5 -81.5 q102 0 153.5 86t51.5 246q0 143 -56 221t-161 78q-117 0 -170 -70.5t-53 -228.5z" />
<glyph unicode="&#xff;" horiz-adv-x="1265" d="M-68 -123q0 118 59.5 189t170.5 71q84 0 145.5 -62.5t61.5 -144.5q0 -89 -56.5 -144.5t-146.5 -55.5q-40 0 -74 12q51 -57 162 -57q102 0 167.5 85t65.5 263l-352 735h-125v297h641v-297h-127q104 -265 154 -477q69 246 160 477h-140v297h568v-297h-121l-406 -893 q-47 -103 -123.5 -173t-158.5 -100t-170 -30q-71 0 -133.5 18t-113 53.5t-79.5 95.5t-29 138zM272 1303q0 64 45.5 109.5t110.5 45.5t110.5 -45.5t45.5 -109.5q0 -65 -46 -110.5t-110 -45.5t-110 45.5t-46 110.5zM743 1303q0 64 45.5 109.5t110.5 45.5t110.5 -45.5 t45.5 -109.5q0 -65 -45.5 -110.5t-110.5 -45.5t-110.5 45.5t-45.5 110.5z" />
<glyph unicode="&#x152;" horiz-adv-x="2506" d="M55 733q0 190 81.5 350.5t225.5 266.5q204 149 474 149q146 0 274 -43h1315v-606h-238v92q0 109 -46 161t-175 52h-465q85 -138 111 -291h446v-266h-446q-27 -163 -117 -297h471q129 0 175 52t46 161v100h238v-614h-1346q-113 -35 -243 -35q-168 0 -314 59.5t-248 162 t-160.5 244.5t-58.5 302zM506 733q0 -247 75.5 -354t254.5 -107t253 106.5t74 354.5q0 246 -73 345.5t-254 99.5q-182 0 -256 -99.5t-74 -345.5z" />
<glyph unicode="&#x153;" horiz-adv-x="2000" d="M41 543q0 160 84.5 291t225.5 203.5t306 72.5q116 0 227 -44.5t175 -117.5q58 73 170.5 117.5t220.5 44.5q99 0 189.5 -28.5t163 -82.5t116 -141.5t43.5 -195.5q0 -88 -14 -170h-721q9 -132 88.5 -201.5t208.5 -69.5q180 0 245 162l150 -96q-76 -162 -193 -242t-288 -80 q-121 0 -229 45t-167 119q-67 -74 -171.5 -119t-213.5 -45q-127 0 -242 47t-196.5 125.5t-129.5 185t-48 220.5zM440 520q0 -128 21.5 -194.5t65.5 -90.5t128 -24q64 0 101.5 10.5t64.5 44t37 93.5t10 161q0 183 -46 247t-167 64q-57 0 -94.5 -12.5t-66 -46t-41.5 -95 t-13 -157.5zM1235 676h424q1 94 -50.5 142t-140.5 48q-91 0 -153 -54t-80 -136z" />
<glyph unicode="&#x178;" d="M0 1155v301h868v-301h-196l219 -371l235 371h-188v301h745v-301h-170l-462 -643v-211h266v-301h-930v301h268v191l-485 663h-170zM524 1671q0 51 43.5 87t104.5 36t104 -36t43 -87q0 -50 -43 -85.5t-104 -35.5t-104.5 35.5t-43.5 85.5zM989 1671q0 51 43.5 87t104.5 36 q60 0 102.5 -36t42.5 -87q0 -50 -42.5 -85.5t-102.5 -35.5q-61 0 -104.5 35.5t-43.5 85.5z" />
<glyph unicode="&#x2c6;" horiz-adv-x="989" d="M174 1083l297 373h147l297 -373h-284l-101 144l-94 -144h-262z" />
<glyph unicode="&#x2dc;" horiz-adv-x="1191" d="M281 1182q4 128 65 189t158 61q105 0 194 -64q3 -2 23 -16.5t37 -24.5t26 -10q25 0 35 84h185q-14 -133 -80 -198.5t-160 -65.5q-52 0 -96.5 19.5t-69.5 43t-54.5 43t-54.5 19.5q-32 0 -30 -80h-178z" />
<glyph unicode="&#x2000;" horiz-adv-x="926" />
<glyph unicode="&#x2001;" horiz-adv-x="1853" />
<glyph unicode="&#x2002;" horiz-adv-x="926" />
<glyph unicode="&#x2003;" horiz-adv-x="1853" />
<glyph unicode="&#x2004;" horiz-adv-x="617" />
<glyph unicode="&#x2005;" horiz-adv-x="463" />
<glyph unicode="&#x2006;" horiz-adv-x="308" />
<glyph unicode="&#x2007;" horiz-adv-x="308" />
<glyph unicode="&#x2008;" horiz-adv-x="231" />
<glyph unicode="&#x2009;" horiz-adv-x="370" />
<glyph unicode="&#x200a;" horiz-adv-x="102" />
<glyph unicode="&#x2010;" horiz-adv-x="606" d="M57 438v267h492v-267h-492z" />
<glyph unicode="&#x2011;" horiz-adv-x="606" d="M57 438v267h492v-267h-492z" />
<glyph unicode="&#x2012;" horiz-adv-x="606" d="M57 438v267h492v-267h-492z" />
<glyph unicode="&#x2013;" horiz-adv-x="1185" d="M63 473v203h1065v-203h-1065z" />
<glyph unicode="&#x2014;" horiz-adv-x="1705" d="M63 473v203h1573v-203h-1573z" />
<glyph unicode="&#x2018;" horiz-adv-x="589" d="M80 1169q0 195 88.5 320t259.5 137l31 -149q-59 -10 -102.5 -34.5t-67 -58t-34.5 -68t-11 -69.5v-41q41 35 102 35q74 0 117 -54t43 -128q0 -82 -52 -142.5t-147 -60.5q-100 0 -163.5 96t-63.5 217z" />
<glyph unicode="&#x2019;" horiz-adv-x="589" d="M82 1341q0 82 52 142.5t147 60.5q100 0 163.5 -96t63.5 -217q0 -195 -88.5 -320t-259.5 -137l-31 150q59 10 102.5 34.5t67 57.5t34.5 67.5t11 69.5v41q-41 -35 -102 -35q-74 0 -117 54t-43 128z" />
<glyph unicode="&#x201a;" horiz-adv-x="589" d="M82 166q0 82 52 142.5t147 60.5q100 0 163.5 -96.5t63.5 -217.5q0 -195 -88.5 -319.5t-259.5 -136.5l-31 149q59 10 102.5 34.5t67 57.5t34.5 67.5t11 69.5v41q-40 -34 -102 -34q-74 0 -117 54t-43 128z" />
<glyph unicode="&#x201c;" horiz-adv-x="1112" d="M80 1169q0 195 88.5 320t259.5 137l31 -149q-59 -10 -102.5 -34.5t-67 -58t-34.5 -68t-11 -69.5v-41q41 35 102 35q74 0 117 -54t43 -128q0 -82 -52 -142.5t-147 -60.5q-100 0 -163.5 96t-63.5 217zM598 1169q0 195 88.5 320t259.5 137l31 -149q-59 -10 -102.5 -34.5 t-67 -58t-34.5 -68t-11 -69.5v-41q41 35 102 35q74 0 117 -54t43 -128q0 -82 -52 -142.5t-147 -60.5q-100 0 -163.5 96t-63.5 217z" />
<glyph unicode="&#x201d;" horiz-adv-x="1112" d="M82 1341q0 82 52 142.5t147 60.5q100 0 163.5 -96t63.5 -217q0 -195 -88.5 -320t-259.5 -137l-31 150q59 10 102.5 34.5t67 57.5t34.5 67.5t11 69.5v41q-41 -35 -102 -35q-74 0 -117 54t-43 128zM600 1341q0 82 52 142.5t147 60.5q100 0 163.5 -96t63.5 -217 q0 -195 -88.5 -320t-259.5 -137l-31 150q59 10 102.5 34.5t67 57.5t34.5 67.5t11 69.5v41q-41 -35 -102 -35q-74 0 -117 54t-43 128z" />
<glyph unicode="&#x201e;" horiz-adv-x="1112" d="M82 166q0 82 52 142.5t147 60.5q100 0 163.5 -96.5t63.5 -217.5q0 -195 -88.5 -319.5t-259.5 -136.5l-31 149q59 10 102.5 34.5t67 57.5t34.5 67.5t11 69.5v41q-40 -34 -102 -34q-74 0 -117 54t-43 128zM600 166q0 82 52 142.5t147 60.5q100 0 163.5 -96.5t63.5 -217.5 q0 -195 -88.5 -319.5t-259.5 -136.5l-31 149q59 10 102.5 34.5t67 57.5t34.5 67.5t11 69.5v41q-40 -34 -102 -34q-74 0 -117 54t-43 128z" />
<glyph unicode="&#x2022;" horiz-adv-x="1196" d="M66 657q0 145 71.5 268.5t194.5 195t268 71.5q109 0 208 -42.5t170.5 -114t114 -170.5t42.5 -208q0 -145 -71.5 -268t-195 -194.5t-268.5 -71.5t-268 71.5t-194.5 194.5t-71.5 268z" />
<glyph unicode="&#x2026;" horiz-adv-x="2351" d="M162 176q0 86 60.5 146.5t146.5 60.5t146 -60.5t60 -146.5t-60 -146.5t-146 -60.5t-146.5 60.5t-60.5 146.5zM975 176q0 86 60.5 146.5t146.5 60.5t146.5 -60.5t60.5 -146.5t-60.5 -146.5t-146.5 -60.5t-146.5 60.5t-60.5 146.5zM1782 176q0 86 60.5 146.5t146.5 60.5 t146 -60.5t60 -146.5t-60 -146.5t-146 -60.5t-146.5 60.5t-60.5 146.5z" />
<glyph unicode="&#x202f;" horiz-adv-x="370" />
<glyph unicode="&#x2039;" horiz-adv-x="874" d="M80 449v182l708 465v-168l-313 -367l313 -377v-198z" />
<glyph unicode="&#x203a;" horiz-adv-x="874" d="M80 -14v168l313 366l-313 377v199l708 -463v-182z" />
<glyph unicode="&#x205f;" horiz-adv-x="463" />
<glyph unicode="&#x20ac;" horiz-adv-x="1323" d="M35 506l57 172h72q-2 18 -2 59q0 31 4 97h-119l57 172h91q41 164 121 277t179 164.5t212 51.5q117 0 210.5 -59.5t126.5 -179.5l-10 233h211v-522h-207q-13 75 -75 134.5t-142 59.5q-70 0 -115.5 -37.5t-82.5 -121.5h288l-57 -172h-274q-5 -72 -5 -93q0 -33 3 -63h223 l-58 -172h-137q63 -201 240 -201q26 0 51.5 5t55 17t54.5 38t40 63l172 -272q-79 -95 -178 -145t-205 -50q-260 0 -428.5 145t-223.5 400h-149z" />
<glyph unicode="&#x2122;" horiz-adv-x="2093" d="M86 1133v323h733v-323h-125v90q0 50 -21 73t-79 23h-51v-387h121v-135h-422v135h120v387h-51q-59 0 -79.5 -23t-20.5 -73v-90h-125zM920 797v135h120v387h-120v137h389q111 -350 131 -440q23 97 139 440h360v-137h-120v-387h120v-135h-383v135h89v244q0 68 10 151 q-9 -50 -37 -143l-121 -387h-149l-123 387q-18 56 -35 143q4 -62 4 -145v-250h90v-135h-364z" />
<glyph unicode="&#x25fc;" horiz-adv-x="1064" d="M0 0v1065h1065v-1065h-1065z" />
<glyph unicode="&#xfb01;" horiz-adv-x="1476" d="M20 768v162h117q80 0 122 41t42 90q0 88 31 161.5t83 124t121 85.5t143 51t150 16q88 0 167.5 -20.5t144.5 -60t103 -105.5t38 -150q0 -80 -54.5 -124t-133.5 -44q-80 0 -128 36t-48 112q0 51 28.5 89.5t79.5 53.5q-59 49 -174 49q-107 0 -179.5 -49.5t-72.5 -144.5 q0 -91 61 -131.5t185 -40.5h446v-668h164v-301h-655v301h145v467h-342v-467h148v-301h-693v301h197v467h-236z" />
<glyph unicode="&#xfb02;" horiz-adv-x="1478" d="M20 768v162h117q80 0 122 41t42 90q0 191 138.5 314.5t391.5 123.5q218 0 339.5 -91.5t121.5 -233.5v-873h166v-301h-657v301h145v836q0 91 -45.5 137.5t-124.5 46.5q-93 0 -147 -59t-54 -138q0 -80 54.5 -137t154.5 -57h56v-162h-236v-467h148v-301h-693v301h197v467 h-236z" />
<glyph unicode="&#xfb03;" horiz-adv-x="2166" d="M20 768v162h117q81 0 122.5 46t41.5 120q0 101 33.5 180.5t89 127t122 71.5t138.5 24q137 0 213 -75t76 -187q0 -72 -44 -114t-104 -42q-74 0 -112.5 33t-38.5 94q0 79 55 117q-32 4 -55 4q-67 0 -111.5 -50.5t-44.5 -137.5q0 -88 48 -149.5t149 -61.5h121q77 0 120 47 t43 119q0 118 72 211t190.5 142.5t258.5 49.5q88 0 167.5 -20.5t144 -60t102.5 -105.5t38 -150q0 -80 -54.5 -124t-133.5 -44q-80 0 -128 36t-48 112q0 51 28.5 89.5t79.5 53.5q-59 49 -174 49q-107 0 -179.5 -49.5t-72.5 -144.5q0 -91 61 -131.5t185 -40.5h446v-668h164 v-301h-647v301h137v467h-342v-467h140v-301h-623v301h135v467h-342v-467h137v-301h-682v301h197v467h-236z" />
<glyph unicode="&#xfb04;" horiz-adv-x="2166" d="M20 768v162h117q81 0 122.5 46t41.5 120q0 101 33.5 180.5t89 127t122 71.5t138.5 24q137 0 213 -75t76 -187q0 -72 -44 -114t-104 -42q-74 0 -112.5 33t-38.5 94q0 79 55 117q-32 4 -55 4q-67 0 -111.5 -50.5t-44.5 -137.5q0 -88 48 -149.5t149 -61.5h121q77 0 120 47 t43 119q0 80 33 151.5t96.5 128t165 90t228.5 33.5q218 0 339 -91.5t121 -233.5v-873h164v-301h-647v301h137v836q0 91 -45.5 137.5t-124.5 46.5q-93 0 -146.5 -59t-53.5 -138q0 -80 54.5 -137t154.5 -57h55v-162h-236v-467h140v-301h-623v301h135v467h-342v-467h137v-301 h-682v301h197v467h-236z" />
</font>
</defs>
</svg>
