<?xml version="1.0" encoding="utf-8"?>
<!-- Generator: Adobe Illustrator 22.1.0, SVG Export Plug-In . SVG Version: 6.00 Build 0)  -->
<svg version="1.1" id="Layer_1" xmlns="http://www.w3.org/2000/svg" xmlns:xlink="http://www.w3.org/1999/xlink" x="0px" y="0px"
	 viewBox="0 0 1435.6 760.3" style="enable-background:new 0 0 1435.6 760.3;" xml:space="preserve">
<style type="text/css">
	.st0{opacity:0.21;}
	.st1{fill:#FFFFFF;}
	.st2{opacity:0.21;fill:#FFFFFF;enable-background:new    ;}
</style>
<g class="st0">
	<g>
		<path class="st1" d="M1018.9,33.3c0,10.7,5.9,15.4,8.3,16.8c2.4-1.4,8.3-6,8.3-16.8c0-8.9-3.9-19.7-7-26.8c-0.4-1-2.1-1.1-2.5-0.1
			C1022.8,13.4,1018.9,24.4,1018.9,33.3z"/>
		<path class="st1" d="M1034.1,55.2c1.4,1,4.6,2.7,9.3,2.7c3,0,6.2-0.8,9.4-2.2c8.4-3.9,16.9-12.5,22-18.3c0.5-0.6,0.7-1.7-0.5-1.7
			c-7.7,0.2-19.9,1-28.4,4.9C1036.1,45.2,1034.4,52.5,1034.1,55.2z"/>
		<path class="st1" d="M1040.4,33.3c0,1.8-0.1,3.5-0.4,5c1.2-0.7,2.4-1.4,3.8-2.1c1.8-0.8,3.7-1.5,5.6-2.1
			c2.4-5.4,4.1-11.2,5.1-15.8c0.3-1.3-0.4-2-1.2-1.6c-4,2.1-9.1,5.5-13.6,9.4C1040.1,28.5,1040.4,30.9,1040.4,33.3z"/>
		<path class="st1" d="M1001.4,55.7c3.2,1.5,6.4,2.2,9.4,2.2c4.6,0,7.8-1.7,9.3-2.7c-0.3-2.7-2-10-11.7-14.5
			c-8.2-3.8-20.3-4.8-28-4.9c-1,0-1.3,1.2-0.8,1.8C984.6,43.3,993.1,51.8,1001.4,55.7z"/>
		<path class="st1" d="M1001.5,15c0.5,5.4,1.6,12.8,3.8,19.2c1.8,0.6,3.5,1.2,5.1,1.9c1.4,0.6,2.7,1.3,3.8,2.1
			c-0.2-1.5-0.4-3.2-0.4-5c0-2.8,0.3-5.7,0.9-8.6c-4-4.3-8.5-8.2-12-10.8C1001.8,13.1,1001.5,14.2,1001.5,15z"/>
		<path class="st1" d="M1062.9,94.7c-2.8-7.2-7.8-17.9-14.2-24.3c-5.3-5.3-10.5-6.4-14-6.4c-1.6,0-2.9,0.2-3.7,0.4
			c-0.7,2.7-1.6,10.1,6,17.7c6.5,6.5,17.4,11.4,24.5,14.2C1062.4,96.6,1063.3,95.5,1062.9,94.7z"/>
		<path class="st1" d="M1054.9,60.2c-2.6,1.2-5.3,2-7.9,2.4c1.7,1.1,3.5,2.5,5.2,4.2c0.6,0.6,1.2,1.2,1.8,1.9
			c6.3,0,12.8-1.2,17.6-2.1c1.3-0.3,1.3-1.1,0.8-1.5c-3.3-2.3-7.8-5.3-12.6-7.7C1058.2,58.5,1056.6,59.4,1054.9,60.2z"/>
		<path class="st1" d="M1034.8,86.7c-0.4-0.4-0.9-0.8-1.3-1.2c-3.3-3.3-5.3-6.5-6.4-9.6c-1.1,2.8-2.9,5.9-5.8,9
			c1.5,7.3,3.5,13.7,6,19.1c0.5,1.1,1.9,1.2,2.4,0.1C1031.9,99.5,1034.3,92.4,1034.8,86.7z"/>
		<path class="st1" d="M999.6,68.5c0.3,0,0.5,0,0.8,0c0.5-0.6,1-1.1,1.5-1.6c1.7-1.7,3.5-3.1,5.2-4.2c-2.6-0.4-5.2-1.2-7.9-2.4
			c-2.2-1-4.5-2.4-6.7-3.9c-4.9,2.1-9.7,4.7-13.3,7c-0.8,0.5-0.6,1.9,0.6,2.2C985.4,66.9,992.9,68.5,999.6,68.5L999.6,68.5
			L999.6,68.5z"/>
		<path class="st1" d="M1023.2,64.3c-0.8-0.2-2.1-0.4-3.7-0.4c-3.5,0-8.7,1.1-14,6.4c-6.3,6.3-11.2,16.9-14,24
			c-0.4,1,0.7,2.1,1.7,1.7c7.1-2.8,17.7-7.7,24-14C1024.8,74.4,1023.9,67,1023.2,64.3z"/>
	</g>
	<g>
		<g>
			<circle class="st1" cx="1023.2" cy="55.6" r="1.9"/>
		</g>
		<g>
			<circle class="st1" cx="1030.3" cy="55.6" r="1.9"/>
		</g>
	</g>
	<g>
		<circle class="st1" cx="1026.7" cy="61.1" r="1.9"/>
	</g>
</g>
<g class="st0">
	<g>
		<path class="st1" d="M1095.6,357c0,5.8,3.2,8.3,4.5,9.1c1.3-0.8,4.5-3.2,4.5-9.1c0-4.8-2.1-10.7-3.8-14.5c-0.2-0.6-1.1-0.6-1.4,0
			C1097.8,346.2,1095.6,352.1,1095.6,357z"/>
		<path class="st1" d="M1103.9,368.8c0.8,0.5,2.5,1.5,5,1.5c1.6,0,3.4-0.4,5.1-1.2c4.5-2.1,9.2-6.8,11.9-9.9
			c0.3-0.3,0.4-0.9-0.3-0.9c-4.2,0.1-10.8,0.5-15.4,2.7C1104.9,363.4,1104,367.4,1103.9,368.8z"/>
		<path class="st1" d="M1107.2,357c0,1-0.1,1.9-0.2,2.7c0.6-0.4,1.3-0.8,2.1-1.1c1-0.4,2-0.8,3-1.1c1.3-2.9,2.2-6.1,2.7-8.5
			c0.1-0.7-0.2-1.1-0.7-0.9c-2.2,1.1-4.9,3-7.3,5.1C1107.1,354.4,1107.2,355.7,1107.2,357z"/>
		<path class="st1" d="M1086.2,369.1c1.7,0.8,3.5,1.2,5.1,1.2c2.5,0,4.2-0.9,5-1.5c-0.2-1.5-1.1-5.4-6.4-7.9
			c-4.4-2.1-11-2.6-15.2-2.7c-0.5,0-0.7,0.7-0.4,1C1077.1,362.4,1081.6,367,1086.2,369.1z"/>
		<path class="st1" d="M1086.2,347.1c0.3,2.9,0.9,6.9,2.1,10.4c1,0.3,1.9,0.6,2.8,1.1c0.8,0.4,1.4,0.7,2.1,1.1
			c-0.1-0.8-0.2-1.7-0.2-2.7c0-1.5,0.2-3.1,0.5-4.7c-2.1-2.3-4.6-4.4-6.5-5.8C1086.4,346.1,1086.2,346.6,1086.2,347.1z"/>
		<path class="st1" d="M1119.5,390.2c-1.5-3.9-4.2-9.7-7.7-13.2c-2.9-2.9-5.7-3.5-7.6-3.5c-0.9,0-1.6,0.1-2,0.2
			c-0.4,1.4-0.9,5.5,3.3,9.6c3.5,3.5,9.4,6.2,13.3,7.7C1119.2,391.2,1119.6,390.7,1119.5,390.2z"/>
		<path class="st1" d="M1115.1,371.5c-1.4,0.7-2.8,1.1-4.3,1.3c0.9,0.6,1.9,1.3,2.8,2.3c0.3,0.3,0.7,0.7,1,1c3.4,0,6.9-0.6,9.5-1.1
			c0.7-0.1,0.7-0.6,0.4-0.8c-1.8-1.3-4.2-2.9-6.8-4.2C1116.9,370.6,1116,371.1,1115.1,371.5z"/>
		<path class="st1" d="M1104.2,385.9c-0.2-0.2-0.5-0.4-0.7-0.6c-1.8-1.8-2.8-3.5-3.5-5.2c-0.6,1.5-1.6,3.2-3.1,4.8
			c0.8,3.9,1.9,7.4,3.3,10.4c0.3,0.6,1,0.6,1.3,0.1C1102.7,392.8,1104,389,1104.2,385.9z"/>
		<path class="st1" d="M1085.2,376c0.2,0,0.3,0,0.4,0c0.3-0.3,0.5-0.6,0.8-0.9c0.9-0.9,1.9-1.7,2.8-2.3c-1.4-0.2-2.8-0.7-4.3-1.3
			c-1.2-0.6-2.4-1.3-3.6-2.1c-2.7,1.1-5.2,2.6-7.2,3.8c-0.4,0.3-0.4,1,0.3,1.2C1077.5,375.2,1081.5,376,1085.2,376L1085.2,376
			L1085.2,376z"/>
		<path class="st1" d="M1098,373.8c-0.4-0.1-1.1-0.2-2-0.2c-1.9,0-4.7,0.6-7.6,3.5c-3.4,3.4-6.1,9.1-7.6,13
			c-0.2,0.5,0.4,1.1,0.9,0.9c3.9-1.5,9.6-4.2,13-7.6C1098.8,379.2,1098.3,375.2,1098,373.8z"/>
	</g>
	<g>
		<g>
			<circle class="st1" cx="1097.9" cy="369.1" r="1"/>
		</g>
		<g>
			<circle class="st1" cx="1101.8" cy="369.1" r="1"/>
		</g>
	</g>
	<g>
		<circle class="st1" cx="1099.9" cy="372" r="1"/>
	</g>
</g>
<g class="st0">
	<g>
		<path class="st1" d="M214.9,14.9c0,5.8,3.2,8.3,4.5,9.1c1.3-0.8,4.5-3.2,4.5-9.1c0-4.8-2.1-10.7-3.8-14.5c-0.2-0.6-1.1-0.6-1.4,0
			C217.1,4.3,214.9,10.2,214.9,14.9z"/>
		<path class="st1" d="M223.2,26.9c0.8,0.5,2.5,1.5,5,1.5c1.6,0,3.4-0.4,5.1-1.2c4.5-2.1,9.2-6.8,11.9-9.9c0.3-0.3,0.4-0.9-0.3-0.9
			c-4.2,0.1-10.8,0.5-15.4,2.7C224.3,21.5,223.4,25.4,223.2,26.9z"/>
		<path class="st1" d="M226.6,14.9c0,1-0.1,1.9-0.2,2.7c0.6-0.4,1.3-0.8,2.1-1.1c1-0.4,2-0.8,3-1.1c1.3-2.9,2.2-6.1,2.7-8.5
			c0.1-0.7-0.2-1.1-0.7-0.9c-2.2,1.1-4.9,3-7.3,5.1C226.5,12.4,226.6,13.8,226.6,14.9z"/>
		<path class="st1" d="M205.5,27.2c1.7,0.8,3.5,1.2,5.1,1.2c2.5,0,4.2-0.9,5-1.5c-0.2-1.5-1.1-5.4-6.4-7.9c-4.4-2.1-11-2.6-15.2-2.7
			c-0.5,0-0.7,0.7-0.4,1C196.4,20.5,201,25.1,205.5,27.2z"/>
		<path class="st1" d="M205.6,5.2c0.3,2.9,0.9,6.9,2.1,10.4c1,0.3,1.9,0.6,2.8,1.1c0.8,0.4,1.4,0.7,2.1,1.1
			c-0.1-0.8-0.2-1.7-0.2-2.7c0-1.5,0.2-3.1,0.5-4.7c-2.1-2.3-4.6-4.4-6.5-5.8C205.7,4.1,205.5,4.7,205.6,5.2z"/>
		<path class="st1" d="M238.8,48.3c-1.5-3.9-4.2-9.7-7.7-13.2c-2.9-2.9-5.7-3.5-7.6-3.5c-0.9,0-1.6,0.1-2,0.2
			c-0.4,1.4-0.9,5.5,3.3,9.6c3.5,3.5,9.4,6.2,13.3,7.7C238.5,49.3,239,48.8,238.8,48.3z"/>
		<path class="st1" d="M234.4,29.6c-1.4,0.7-2.8,1.1-4.3,1.3c0.9,0.6,1.9,1.3,2.8,2.3c0.3,0.3,0.7,0.7,1,1c3.4,0,6.9-0.6,9.5-1.1
			c0.7-0.1,0.7-0.6,0.4-0.8c-1.8-1.3-4.2-2.9-6.8-4.2C236.2,28.7,235.3,29.2,234.4,29.6z"/>
		<path class="st1" d="M223.6,44c-0.2-0.2-0.5-0.4-0.7-0.6c-1.8-1.8-2.8-3.5-3.5-5.2c-0.6,1.5-1.6,3.2-3.1,4.8
			c0.8,3.9,1.9,7.4,3.3,10.4c0.3,0.6,1,0.6,1.3,0.1C222,50.8,223.3,47,223.6,44z"/>
		<path class="st1" d="M204.5,34c0.2,0,0.3,0,0.4,0c0.3-0.3,0.5-0.6,0.8-0.9c0.9-0.9,1.9-1.7,2.8-2.3c-1.4-0.2-2.8-0.7-4.3-1.3
			c-1.2-0.6-2.4-1.3-3.6-2.1c-2.7,1.1-5.2,2.6-7.2,3.8c-0.4,0.3-0.4,1,0.3,1.2C196.9,33.1,200.9,34,204.5,34L204.5,34L204.5,34z"/>
		<path class="st1" d="M217.3,31.9c-0.4-0.1-1.1-0.2-2-0.2c-1.9,0-4.7,0.6-7.6,3.5c-3.4,3.4-6.1,9.1-7.6,13
			c-0.2,0.5,0.4,1.1,0.9,0.9c3.9-1.5,9.6-4.2,13-7.6C218.2,37.3,217.7,33.3,217.3,31.9z"/>
	</g>
	<g>
		<g>
			<circle class="st1" cx="217.3" cy="27.1" r="1"/>
		</g>
		<g>
			<circle class="st1" cx="221.1" cy="27.1" r="1"/>
		</g>
	</g>
	<g>
		<circle class="st1" cx="219.2" cy="30.1" r="1"/>
	</g>
</g>
<g class="st0">
	<g>
		<path class="st1" d="M239.3,559.3c0,4.9,2.7,7,3.8,7.6c1.1-0.6,3.8-2.7,3.8-7.6c0-4-1.8-9-3.2-12.2c-0.2-0.5-0.9-0.5-1.1,0
			C241.2,550.3,239.3,555.3,239.3,559.3z"/>
		<path class="st1" d="M246.3,569.3c0.7,0.4,2.1,1.2,4.2,1.2c1.4,0,2.8-0.3,4.3-1c3.8-1.8,7.7-5.7,10-8.3c0.2-0.3,0.3-0.8-0.2-0.8
			c-3.5,0.1-9.1,0.5-12.9,2.2C247.2,564.8,246.4,568.1,246.3,569.3z"/>
		<path class="st1" d="M249.1,559.3c0,0.8-0.1,1.6-0.2,2.3c0.5-0.3,1.1-0.7,1.7-0.9c0.8-0.4,1.7-0.7,2.6-1c1.1-2.4,1.9-5.1,2.3-7.2
			c0.1-0.6-0.2-0.9-0.5-0.7c-1.8,0.9-4.1,2.5-6.2,4.3C249,557.2,249.1,558.3,249.1,559.3z"/>
		<path class="st1" d="M231.4,569.5c1.5,0.7,2.9,1,4.3,1c2.1,0,3.6-0.8,4.2-1.2c-0.1-1.2-0.9-4.6-5.3-6.6c-3.7-1.7-9.2-2.2-12.8-2.2
			c-0.4,0-0.6,0.6-0.4,0.8C223.8,563.9,227.6,567.8,231.4,569.5z"/>
		<path class="st1" d="M231.5,551c0.2,2.4,0.7,5.8,1.7,8.7c0.8,0.3,1.6,0.5,2.3,0.9c0.6,0.3,1.2,0.6,1.7,0.9
			c-0.1-0.7-0.2-1.5-0.2-2.3c0-1.3,0.2-2.6,0.4-3.9c-1.8-2-3.9-3.7-5.5-4.9C231.6,550.2,231.4,550.7,231.5,551z"/>
		<path class="st1" d="M259.4,587.3c-1.3-3.3-3.5-8.2-6.4-11.1c-2.4-2.4-4.8-2.9-6.4-2.9c-0.7,0-1.3,0.1-1.7,0.2
			c-0.3,1.2-0.7,4.6,2.7,8.1c2.9,2.9,7.9,5.2,11.2,6.5C259.2,588.1,259.6,587.7,259.4,587.3z"/>
		<path class="st1" d="M255.7,571.6c-1.2,0.6-2.4,0.9-3.6,1.1c0.8,0.5,1.6,1.1,2.4,1.9c0.3,0.3,0.5,0.6,0.8,0.9c2.9,0,5.8-0.5,8-1
			c0.6-0.1,0.6-0.5,0.4-0.7c-1.5-1.1-3.6-2.4-5.7-3.5C257.3,570.8,256.5,571.2,255.7,571.6z"/>
		<path class="st1" d="M246.6,583.7c-0.2-0.2-0.4-0.4-0.6-0.5c-1.5-1.5-2.4-3-2.9-4.4c-0.5,1.3-1.3,2.7-2.6,4.1
			c0.7,3.3,1.6,6.2,2.7,8.7c0.2,0.5,0.9,0.5,1.1,0C245.3,589.5,246.4,586.3,246.6,583.7z"/>
		<path class="st1" d="M230.6,575.3c0.1,0,0.3,0,0.4,0c0.2-0.3,0.5-0.5,0.7-0.7c0.8-0.8,1.6-1.4,2.4-1.9c-1.2-0.2-2.4-0.5-3.6-1.1
			c-1-0.5-2-1.1-3-1.8c-2.2,0.9-4.4,2.2-6,3.2c-0.4,0.2-0.3,0.9,0.3,1C224.1,574.6,227.5,575.3,230.6,575.3L230.6,575.3L230.6,575.3
			z"/>
		<path class="st1" d="M241.3,573.5c-0.4-0.1-1-0.2-1.7-0.2c-1.6,0-4,0.5-6.4,2.9c-2.9,2.9-5.1,7.7-6.4,10.9c-0.2,0.5,0.3,1,0.8,0.8
			c3.3-1.3,8.1-3.5,10.9-6.4C242.1,578.1,241.6,574.7,241.3,573.5z"/>
	</g>
	<g>
		<g>
			<circle class="st1" cx="241.3" cy="569.5" r="0.8"/>
		</g>
		<g>
			<circle class="st1" cx="244.5" cy="569.5" r="0.8"/>
		</g>
	</g>
	<g>
		<circle class="st1" cx="242.9" cy="572" r="0.8"/>
	</g>
</g>
<g class="st0">
	<g>
		<path class="st1" d="M1406.3,295c0,5.6,3.1,8,4.3,8.8c1.2-0.7,4.3-3.1,4.3-8.8c0-4.6-2.1-10.3-3.7-14c-0.2-0.5-1.1-0.6-1.3,0
			C1408.3,284.6,1406.3,290.3,1406.3,295z"/>
		<path class="st1" d="M1414.2,306.5c0.7,0.5,2.4,1.4,4.8,1.4c1.6,0,3.2-0.4,4.9-1.2c4.4-2,8.8-6.6,11.5-9.6
			c0.3-0.3,0.4-0.9-0.3-0.9c-4,0.1-10.4,0.5-14.9,2.6C1415.3,301.2,1414.4,305,1414.2,306.5z"/>
		<path class="st1" d="M1417.5,295c0,0.9-0.1,1.8-0.2,2.6c0.6-0.4,1.3-0.8,2-1.1c0.9-0.4,1.9-0.8,2.9-1.1c1.2-2.8,2.1-5.9,2.6-8.2
			c0.1-0.7-0.2-1.1-0.6-0.8c-2.1,1.1-4.7,2.9-7.1,4.9C1417.4,292.5,1417.5,293.8,1417.5,295z"/>
		<path class="st1" d="M1397.1,306.7c1.7,0.8,3.3,1.2,4.9,1.2c2.4,0,4.1-0.9,4.8-1.4c-0.1-1.4-1-5.2-6.1-7.6
			c-4.3-2-10.6-2.5-14.6-2.6c-0.5,0-0.7,0.6-0.4,0.9C1388.3,300.2,1392.8,304.7,1397.1,306.7z"/>
		<path class="st1" d="M1397.2,285.5c0.3,2.8,0.8,6.7,2,10c0.9,0.3,1.8,0.6,2.7,1c0.7,0.3,1.4,0.7,2,1.1c-0.1-0.8-0.2-1.7-0.2-2.6
			c0-1.5,0.2-3,0.5-4.5c-2.1-2.2-4.4-4.3-6.3-5.6C1397.3,284.5,1397.2,285,1397.2,285.5z"/>
		<path class="st1" d="M1429.3,327.1c-1.5-3.7-4.1-9.4-7.4-12.7c-2.8-2.8-5.5-3.4-7.3-3.4c-0.8,0-1.5,0.1-1.9,0.2
			c-0.4,1.4-0.8,5.3,3.1,9.2c3.4,3.4,9.1,6,12.8,7.4C1429,328.1,1429.5,327.6,1429.3,327.1z"/>
		<path class="st1" d="M1425.1,309.1c-1.4,0.6-2.8,1.1-4.1,1.3c0.9,0.6,1.8,1.3,2.7,2.2c0.3,0.3,0.6,0.7,0.9,1
			c3.3,0,6.7-0.6,9.2-1.1c0.7-0.1,0.7-0.6,0.4-0.8c-1.7-1.2-4.1-2.8-6.6-4C1426.8,308.2,1426,308.7,1425.1,309.1z"/>
		<path class="st1" d="M1414.6,322.9c-0.2-0.2-0.4-0.4-0.7-0.6c-1.7-1.7-2.7-3.4-3.4-5c-0.6,1.5-1.5,3.1-3,4.7
			c0.8,3.8,1.8,7.2,3.1,10c0.3,0.6,1,0.6,1.3,0.1C1413.1,329.6,1414.3,325.9,1414.6,322.9z"/>
		<path class="st1" d="M1396.2,313.4c0.1,0,0.3,0,0.4,0c0.3-0.3,0.5-0.6,0.8-0.9c0.9-0.9,1.8-1.6,2.7-2.2c-1.4-0.2-2.7-0.6-4.1-1.3
			c-1.2-0.5-2.3-1.2-3.5-2c-2.6,1.1-5.1,2.5-6.9,3.6c-0.4,0.3-0.3,1,0.3,1.2C1388.8,312.6,1392.7,313.4,1396.2,313.4L1396.2,313.4
			L1396.2,313.4z"/>
		<path class="st1" d="M1408.5,311.2c-0.4-0.1-1.1-0.2-1.9-0.2c-1.8,0-4.5,0.6-7.3,3.4c-3.3,3.3-5.9,8.8-7.3,12.6
			c-0.2,0.5,0.4,1.1,0.9,0.9c3.7-1.5,9.3-4,12.6-7.3C1409.4,316.5,1408.9,312.6,1408.5,311.2z"/>
	</g>
	<g>
		<g>
			<circle class="st1" cx="1408.5" cy="306.7" r="1"/>
		</g>
		<g>
			<circle class="st1" cx="1412.2" cy="306.7" r="1"/>
		</g>
	</g>
	<g>
		<circle class="st1" cx="1410.4" cy="309.5" r="1"/>
	</g>
</g>
<path class="st2" d="M723,708.7c0,0,35.5,18.9,55.8,45.6c0-68.7-86.6-68.3-86.6-68.3c22.6,75.6,64.9,76.2,80.5,73.6
	C760.6,745.3,740.2,726.2,723,708.7z"/>
<path class="st2" d="M1372.1,524c3.3-7.8,15.5-27,56.4-15.8c0,0-24.5,39.6-55.8,20.1c17.9-1.7,36.7-12.5,36.7-12.5
	C1396.7,518.6,1382.1,522.6,1372.1,524z"/>
<path class="st2" d="M314.2,325.8c0.2-11.5,6.3-41.4,63.1-47.1c0,0-11.5,61.5-60.2,52.1c21.7-10.8,39.9-33.4,39.9-33.4
	C342.3,307.3,326,319.1,314.2,325.8z"/>
<path class="st2" d="M27.1,472.8c0,0,25.7,21,52.5,28C27.2,522.7,0,456.5,0,456.5c64.9-6.8,78.7,25.3,81.7,38.1
	C66.9,489.8,45.9,480.3,27.1,472.8z"/>
</svg>
