<?xml version="1.0" encoding="utf-8"?>
<!-- Generator: Adobe Illustrator 22.1.0, SVG Export Plug-In . SVG Version: 6.00 Build 0)  -->
<svg version="1.1" id="Layer_1" xmlns="http://www.w3.org/2000/svg" xmlns:xlink="http://www.w3.org/1999/xlink" x="0px" y="0px"
	 viewBox="0 0 1732.9 804.7" style="enable-background:new 0 0 1732.9 804.7;" xml:space="preserve">
<style type="text/css">
	.st0{opacity:0.5;}
	.st1{fill:#FFFFFF;}
	.st2{opacity:0.5;fill:#FFFFFF;enable-background:new    ;}
</style>
<g class="st0">
	<g>
		<path class="st1" d="M783.7,21.8c0,7.7,4.2,11.1,6,12.1c1.7-1,6-4.3,6-12.1c0-6.4-2.8-14.2-5-19.3c-0.3-0.7-1.5-0.8-1.8-0.1
			C786.5,7.5,783.7,15.4,783.7,21.8z"/>
		<path class="st1" d="M794.6,37.5c1,0.7,3.3,1.9,6.7,1.9c2.2,0,4.5-0.6,6.8-1.6c6-2.8,12.1-9,15.8-13.2c0.4-0.4,0.5-1.2-0.4-1.2
			c-5.5,0.1-14.3,0.7-20.4,3.5C796,30.3,794.8,35.6,794.6,37.5z"/>
		<path class="st1" d="M799.1,21.8c0,1.3-0.1,2.5-0.3,3.6c0.9-0.5,1.7-1,2.7-1.5c1.3-0.6,2.7-1.1,4-1.5c1.7-3.9,2.9-8.1,3.7-11.4
			c0.2-0.9-0.3-1.4-0.9-1.2c-2.9,1.5-6.5,4-9.8,6.8C798.9,18.3,799.1,20,799.1,21.8z"/>
		<path class="st1" d="M771.1,37.9c2.3,1.1,4.6,1.6,6.8,1.6c3.3,0,5.6-1.2,6.7-1.9c-0.2-1.9-1.4-7.2-8.4-10.4
			c-5.9-2.7-14.6-3.5-20.1-3.5c-0.7,0-0.9,0.9-0.6,1.3C759,29,765.1,35.1,771.1,37.9z"/>
		<path class="st1" d="M771.2,8.6c0.4,3.9,1.2,9.2,2.7,13.8c1.3,0.4,2.5,0.9,3.7,1.4c1,0.4,1.9,0.9,2.7,1.5
			c-0.1-1.1-0.3-2.3-0.3-3.6c0-2,0.2-4.1,0.6-6.2c-2.9-3.1-6.1-5.9-8.6-7.8C771.4,7.2,771.2,8,771.2,8.6z"/>
		<path class="st1" d="M815.3,65.9c-2-5.2-5.6-12.9-10.2-17.5c-3.8-3.8-7.5-4.6-10.1-4.6c-1.2,0-2.1,0.1-2.7,0.3
			c-0.5,1.9-1.2,7.3,4.3,12.7c4.7,4.7,12.5,8.2,17.6,10.2C814.9,67.3,815.6,66.5,815.3,65.9z"/>
		<path class="st1" d="M809.6,41.1c-1.9,0.9-3.8,1.4-5.7,1.7c1.2,0.8,2.5,1.8,3.7,3c0.4,0.4,0.9,0.9,1.3,1.4c4.5,0,9.2-0.9,12.7-1.5
			c0.9-0.2,0.9-0.8,0.6-1.1c-2.4-1.7-5.6-3.8-9.1-5.5C811.9,39.9,810.8,40.5,809.6,41.1z"/>
		<path class="st1" d="M795.1,60.1c-0.3-0.3-0.6-0.6-0.9-0.9c-2.4-2.4-3.8-4.7-4.6-6.9c-0.8,2-2.1,4.2-4.2,6.5
			c1.1,5.2,2.5,9.8,4.3,13.7c0.4,0.8,1.4,0.9,1.7,0.1C793,69.4,794.7,64.2,795.1,60.1z"/>
		<path class="st1" d="M769.8,47.1c0.2,0,0.4,0,0.6,0c0.4-0.4,0.7-0.8,1.1-1.2c1.2-1.2,2.5-2.2,3.7-3c-1.9-0.3-3.7-0.9-5.7-1.7
			c-1.6-0.7-3.2-1.7-4.8-2.8c-3.5,1.5-7,3.4-9.6,5c-0.6,0.4-0.4,1.4,0.4,1.6C759.6,45.9,765,47.1,769.8,47.1L769.8,47.1L769.8,47.1z
			"/>
		<path class="st1" d="M786.8,44c-0.6-0.1-1.5-0.3-2.7-0.3c-2.5,0-6.3,0.8-10.1,4.6c-4.5,4.5-8.1,12.1-10.1,17.3
			c-0.3,0.7,0.5,1.5,1.2,1.2c5.1-2,12.7-5.5,17.3-10.1C787.9,51.3,787.3,46,786.8,44z"/>
	</g>
	<g>
		<g>
			<circle class="st1" cx="786.8" cy="37.8" r="1.4"/>
		</g>
		<g>
			<circle class="st1" cx="791.9" cy="37.8" r="1.4"/>
		</g>
	</g>
	<g>
		<circle class="st1" cx="789.3" cy="41.7" r="1.4"/>
	</g>
</g>
<g class="st0">
	<g>
		<path class="st1" d="M1458,600.2c0,3.9,2.1,5.6,3,6.1c0.9-0.5,3-2.2,3-6.1c0-3.2-1.4-7.2-2.5-9.7c-0.1-0.4-0.8-0.4-0.9,0
			C1459.4,593,1458,597,1458,600.2z"/>
		<path class="st1" d="M1463.5,608.2c0.5,0.4,1.7,1,3.4,1c1.1,0,2.3-0.3,3.4-0.8c3.1-1.4,6.1-4.5,8-6.6c0.2-0.2,0.3-0.6-0.2-0.6
			c-2.8,0.1-7.2,0.4-10.3,1.8C1464.2,604.5,1463.6,607.2,1463.5,608.2z"/>
		<path class="st1" d="M1465.8,600.2c0,0.7,0,1.3-0.1,1.8c0.4-0.3,0.9-0.5,1.4-0.8c0.7-0.3,1.3-0.5,2-0.8c0.9-2,1.5-4.1,1.9-5.7
			c0.1-0.5-0.1-0.7-0.4-0.6c-1.5,0.8-3.3,2-4.9,3.4C1465.7,598.5,1465.8,599.4,1465.8,600.2z"/>
		<path class="st1" d="M1451.6,608.4c1.2,0.5,2.3,0.8,3.4,0.8c1.7,0,2.8-0.6,3.4-1c-0.1-1-0.7-3.6-4.2-5.3c-3-1.4-7.4-1.7-10.2-1.8
			c-0.4,0-0.5,0.4-0.3,0.7C1445.5,603.9,1448.6,606.9,1451.6,608.4z"/>
		<path class="st1" d="M1451.6,593.6c0.2,2,0.6,4.6,1.4,7c0.7,0.2,1.3,0.4,1.9,0.7c0.5,0.2,1,0.5,1.4,0.8c-0.1-0.5-0.1-1.2-0.1-1.8
			c0-1,0.1-2.1,0.3-3.1c-1.5-1.6-3.1-3-4.4-3.9C1451.8,592.9,1451.6,593.3,1451.6,593.6z"/>
		<path class="st1" d="M1473.9,622.5c-1-2.6-2.8-6.5-5.2-8.8c-1.9-1.9-3.8-2.3-5.1-2.3c-0.6,0-1.1,0.1-1.3,0.1
			c-0.3,1-0.6,3.7,2.2,6.4c2.4,2.4,6.3,4.1,8.9,5.2C1473.8,623.2,1474.1,622.8,1473.9,622.5z"/>
		<path class="st1" d="M1471,610c-0.9,0.4-1.9,0.7-2.9,0.9c0.6,0.4,1.3,0.9,1.9,1.5c0.2,0.2,0.4,0.4,0.7,0.7c2.3,0,4.6-0.4,6.4-0.8
			c0.5-0.1,0.5-0.4,0.3-0.5c-1.2-0.8-2.8-1.9-4.6-2.8C1472.2,609.4,1471.7,609.7,1471,610z"/>
		<path class="st1" d="M1463.7,619.6c-0.1-0.1-0.3-0.3-0.5-0.4c-1.2-1.2-1.9-2.4-2.3-3.5c-0.4,1-1.1,2.1-2.1,3.3
			c0.5,2.7,1.3,5,2.2,6.9c0.2,0.4,0.7,0.4,0.9,0C1462.7,624.3,1463.6,621.7,1463.7,619.6z"/>
		<path class="st1" d="M1451,613c0.1,0,0.2,0,0.3,0c0.2-0.2,0.4-0.4,0.5-0.6c0.6-0.6,1.3-1.1,1.9-1.5c-0.9-0.1-1.9-0.4-2.9-0.9
			c-0.8-0.4-1.6-0.9-2.4-1.4c-1.8,0.8-3.5,1.7-4.8,2.5c-0.3,0.2-0.2,0.7,0.2,0.8C1445.8,612.4,1448.5,613,1451,613L1451,613
			L1451,613z"/>
		<path class="st1" d="M1459.5,611.5c-0.3-0.1-0.8-0.1-1.3-0.1c-1.3,0-3.2,0.4-5.1,2.3c-2.3,2.3-4.1,6.1-5.1,8.7
			c-0.1,0.4,0.3,0.8,0.6,0.6c2.6-1,6.4-2.8,8.7-5.1C1460.1,615.1,1459.8,612.5,1459.5,611.5z"/>
	</g>
	<g>
		<g>
			<circle class="st1" cx="1459.5" cy="608.3" r="0.7"/>
		</g>
		<g>
			<circle class="st1" cx="1462.1" cy="608.3" r="0.7"/>
		</g>
	</g>
	<g>
		<circle class="st1" cx="1460.8" cy="610.3" r="0.7"/>
	</g>
</g>
<g class="st0">
	<g>
		<path class="st1" d="M1419.7,84.7c0,6,3.3,8.6,4.6,9.4c1.3-0.8,4.6-3.4,4.6-9.4c0-5-2.2-11-3.9-15c-0.2-0.6-1.2-0.6-1.4-0.1
			C1421.9,73.5,1419.7,79.7,1419.7,84.7z"/>
		<path class="st1" d="M1428.3,96.9c0.8,0.6,2.6,1.5,5.2,1.5c1.7,0,3.5-0.4,5.3-1.2c4.7-2.2,9.5-7,12.3-10.2c0.3-0.3,0.4-1-0.3-1
			c-4.3,0.1-11.1,0.6-15.9,2.7C1429.4,91.3,1428.4,95.4,1428.3,96.9z"/>
		<path class="st1" d="M1431.8,84.7c0,1-0.1,2-0.2,2.8c0.7-0.4,1.3-0.8,2.1-1.2c1-0.4,2.1-0.8,3.1-1.2c1.3-3,2.3-6.3,2.9-8.8
			c0.2-0.7-0.2-1.1-0.7-0.9c-2.2,1.2-5.1,3.1-7.6,5.3C1431.6,82,1431.8,83.3,1431.8,84.7z"/>
		<path class="st1" d="M1410,97.2c1.8,0.8,3.6,1.2,5.3,1.2c2.6,0,4.4-1,5.2-1.5c-0.2-1.5-1.1-5.6-6.5-8.1
			c-4.6-2.1-11.4-2.7-15.7-2.7c-0.6,0-0.7,0.7-0.4,1C1400.6,90.2,1405.3,95,1410,97.2z"/>
		<path class="st1" d="M1410,74.4c0.3,3,0.9,7.2,2.1,10.7c1,0.3,2,0.7,2.9,1.1c0.8,0.3,1.5,0.7,2.1,1.2c-0.1-0.8-0.2-1.8-0.2-2.8
			c0-1.6,0.2-3.2,0.5-4.8c-2.2-2.4-4.8-4.6-6.7-6C1410.2,73.3,1410,74,1410,74.4z"/>
		<path class="st1" d="M1444.4,119c-1.6-4-4.4-10-7.9-13.6c-3-3-5.9-3.6-7.8-3.6c-0.9,0-1.6,0.1-2.1,0.2c-0.4,1.5-0.9,5.7,3.4,9.9
			c3.6,3.6,9.7,6.4,13.7,7.9C1444.1,120.1,1444.6,119.5,1444.4,119z"/>
		<path class="st1" d="M1439.9,99.7c-1.5,0.7-3,1.1-4.4,1.3c1,0.6,2,1.4,2.9,2.4c0.3,0.3,0.7,0.7,1,1.1c3.5,0,7.2-0.7,9.8-1.2
			c0.7-0.2,0.7-0.6,0.4-0.8c-1.8-1.3-4.4-3-7.1-4.3C1441.7,98.8,1440.8,99.3,1439.9,99.7z"/>
		<path class="st1" d="M1428.6,114.5c-0.2-0.2-0.5-0.4-0.7-0.7c-1.8-1.8-3-3.6-3.6-5.4c-0.6,1.6-1.6,3.3-3.2,5
			c0.8,4.1,2,7.7,3.4,10.7c0.3,0.6,1.1,0.7,1.3,0.1C1427,121.7,1428.4,117.7,1428.6,114.5z"/>
		<path class="st1" d="M1408.9,104.3c0.2,0,0.3,0,0.4,0c0.3-0.3,0.6-0.6,0.8-0.9c1-1,2-1.7,2.9-2.4c-1.5-0.2-2.9-0.7-4.4-1.3
			c-1.2-0.6-2.5-1.3-3.7-2.2c-2.7,1.2-5.4,2.6-7.4,3.9c-0.4,0.3-0.3,1.1,0.3,1.2C1401,103.5,1405.2,104.3,1408.9,104.3L1408.9,104.3
			L1408.9,104.3z"/>
		<path class="st1" d="M1422.2,102c-0.4-0.1-1.2-0.2-2.1-0.2c-2,0-4.9,0.6-7.8,3.6c-3.5,3.5-6.3,9.5-7.8,13.4c-0.2,0.6,0.4,1.2,1,1
			c4-1.6,9.9-4.3,13.4-7.8C1423,107.6,1422.5,103.5,1422.2,102z"/>
	</g>
	<g>
		<g>
			<circle class="st1" cx="1422.2" cy="97.1" r="1.1"/>
		</g>
		<g>
			<circle class="st1" cx="1426.1" cy="97.1" r="1.1"/>
		</g>
	</g>
	<g>
		<circle class="st1" cx="1424.1" cy="100.2" r="1.1"/>
	</g>
</g>
<g class="st0">
	<g>
		<path class="st1" d="M352.9,32.3c0,3.9,2.1,5.6,3,6.1c0.9-0.5,3-2.2,3-6.1c0-3.2-1.4-7.2-2.5-9.8c-0.1-0.4-0.8-0.4-0.9,0
			C354.3,25,352.9,29,352.9,32.3z"/>
		<path class="st1" d="M358.4,40.3c0.5,0.4,1.7,1,3.4,1c1.1,0,2.3-0.3,3.4-0.8c3.1-1.4,6.2-4.6,8-6.7c0.2-0.2,0.3-0.6-0.2-0.6
			c-2.8,0.1-7.2,0.4-10.3,1.8C359.2,36.6,358.6,39.3,358.4,40.3z"/>
		<path class="st1" d="M360.7,32.3c0,0.7,0,1.3-0.1,1.8c0.4-0.3,0.9-0.5,1.4-0.8c0.7-0.3,1.3-0.5,2-0.8c0.9-2,1.5-4.1,1.9-5.8
			c0.1-0.5-0.1-0.7-0.4-0.6c-1.5,0.8-3.3,2-5,3.4C360.6,30.5,360.7,31.4,360.7,32.3z"/>
		<path class="st1" d="M346.5,40.4c1.2,0.5,2.3,0.8,3.4,0.8c1.7,0,2.8-0.6,3.4-1c-0.1-1-0.7-3.6-4.3-5.3c-3-1.4-7.4-1.7-10.2-1.8
			c-0.4,0-0.5,0.4-0.3,0.7C340.4,35.9,343.5,39,346.5,40.4z"/>
		<path class="st1" d="M346.6,25.6c0.2,2,0.6,4.7,1.4,7c0.7,0.2,1.3,0.4,1.9,0.7c0.5,0.2,1,0.5,1.4,0.8c-0.1-0.5-0.1-1.2-0.1-1.8
			c0-1,0.1-2.1,0.3-3.1c-1.5-1.6-3.1-3-4.4-3.9C346.7,24.9,346.6,25.3,346.6,25.6z"/>
		<path class="st1" d="M368.9,54.6c-1-2.6-2.8-6.5-5.2-8.9c-1.9-1.9-3.8-2.3-5.1-2.3c-0.6,0-1.1,0.1-1.3,0.1c-0.3,1-0.6,3.7,2.2,6.4
			c2.4,2.4,6.3,4.2,8.9,5.2C368.8,55.3,369.1,54.9,368.9,54.6z"/>
		<path class="st1" d="M366,42.1c-0.9,0.4-1.9,0.7-2.9,0.9c0.6,0.4,1.3,0.9,1.9,1.5c0.2,0.2,0.4,0.4,0.7,0.7c2.3,0,4.7-0.4,6.4-0.8
			c0.5-0.1,0.5-0.4,0.3-0.5c-1.2-0.8-2.8-1.9-4.6-2.8C367.2,41.5,366.6,41.8,366,42.1z"/>
		<path class="st1" d="M358.7,51.7c-0.1-0.1-0.3-0.3-0.5-0.4c-1.2-1.2-1.9-2.4-2.3-3.5c-0.4,1-1.1,2.1-2.1,3.3c0.5,2.7,1.3,5,2.2,7
			c0.2,0.4,0.7,0.4,0.9,0C357.6,56.4,358.5,53.8,358.7,51.7z"/>
		<path class="st1" d="M345.9,45.1c0.1,0,0.2,0,0.3,0c0.2-0.2,0.4-0.4,0.5-0.6c0.6-0.6,1.3-1.1,1.9-1.5c-0.9-0.1-1.9-0.4-2.9-0.9
			c-0.8-0.4-1.6-0.9-2.4-1.4c-1.8,0.8-3.5,1.7-4.8,2.5c-0.3,0.2-0.2,0.7,0.2,0.8C340.7,44.5,343.4,45.1,345.9,45.1L345.9,45.1
			L345.9,45.1z"/>
		<path class="st1" d="M354.5,43.6c-0.3-0.1-0.8-0.1-1.3-0.1c-1.3,0-3.2,0.4-5.1,2.3c-2.3,2.3-4.1,6.2-5.1,8.7
			c-0.1,0.4,0.3,0.8,0.6,0.6c2.6-1,6.4-2.8,8.7-5.1C355.1,47.3,354.7,44.6,354.5,43.6z"/>
	</g>
	<g>
		<g>
			<circle class="st1" cx="354.5" cy="40.4" r="0.7"/>
		</g>
		<g>
			<circle class="st1" cx="357.1" cy="40.4" r="0.7"/>
		</g>
	</g>
	<g>
		<circle class="st1" cx="355.8" cy="42.4" r="0.7"/>
	</g>
</g>
<path class="st2" d="M38,111.6c0,0,14.4,14.1,30.1,19.7c-32.7,10.4-45.6-31-45.6-31c39.4-0.6,46,19.5,47.1,27.3
	C61.1,124.1,48.9,117.2,38,111.6z"/>
<path class="st2" d="M1026.8,104.8c-6.8-0.8-24.4-6.1-24.7-40.3c0,0,36.1,10.3,27.8,38.9c-5.2-13.5-17.7-25.7-17.7-25.7
	C1017.2,87,1023.4,97.4,1026.8,104.8z"/>
<path class="st2" d="M1336.1,488.9c2.2,6.5,4.7,24.7-26.3,39.3c0,0-5.8-37.1,23.7-41.6c-10.1,10.4-15.9,26.9-15.9,26.9
	C1323.9,505,1330.8,495,1336.1,488.9z"/>
<path class="st2" d="M1670.2,464.6c3.6-4.9,15.5-16,41.8-1c0,0-23.9,23.1-42.1,4c12.7,2,27.5-2.2,27.5-2.2
	C1688.1,465.2,1677.3,465.4,1670.2,464.6z"/>
<path class="st2" d="M1207.7,668.3c8.2-3,31-7,50.8,31.5c0,0-46.7,8.9-53.6-28.1c13.6,12.3,34.7,19,34.7,19
	C1228.6,683,1215.7,674.8,1207.7,668.3z"/>
<path class="st2" d="M41.6,792.1c0,0,16.1-11,24.4-25c3.7,33.1-38,37.6-38,37.6c6.8-37.7,27.2-40.2,34.8-39.7
	C57.8,772.5,49,782.8,41.6,792.1z"/>
<path class="st2" d="M824,685c-4.6,10.6-21.7,36.3-77,20c0,0,34.2-53.1,76.2-25.8c-24.4,1.8-50.1,16-50.1,16
	C790.6,691.7,810.4,686.8,824,685z"/>
<path class="st2" d="M1715.9,270.2c0,0-19.7,10.4-30.9,25.2c0.1-38,48-37.7,48-37.7c-12.6,41.9-36,42.1-44.7,40.6
	C1695,290.4,1706.3,279.9,1715.9,270.2z"/>
<g class="st0">
	<path class="st1" d="M1591.9,423.6l3.3,8.2c0.1,0.3,0.4,0.6,0.7,0.6c0.3,0.1,0.6,0.1,0.9-0.1c2.2-1.2,4-3.1,5.3-5.2
		c0.2-0.3,0.2-0.6,0.1-1c-0.1-0.3-0.3-0.5-0.6-0.6l-8.1-3.5c-0.4-0.2-0.9-0.1-1.2,0.2C1591.9,422.7,1591.8,423.2,1591.9,423.6z"/>
	<path class="st1" d="M1587.5,422.7c-0.2-0.5-0.8-0.9-1.5-0.6l0,0l-8.2,3.3c-0.6,0.2-0.9,0.9-0.6,1.5l0,0c0,0,0,0.1,0.1,0.1
		c1.2,2.2,3.1,4,5.2,5.3c0.3,0.2,0.6,0.2,0.9,0.1c0.3-0.1,0.6-0.3,0.7-0.6l3.5-8.2C1587.6,423.2,1587.5,422.9,1587.5,422.7z"/>
	<path class="st1" d="M1585.2,433.2c0.1,0.3,0.4,0.6,0.7,0.7c2.4,0.7,5,0.7,7.4,0.1c0.3-0.1,0.6-0.3,0.7-0.6s0.2-0.6,0-0.9l-3.3-8.2
		c-0.2-0.4-0.6-0.7-1-0.7c-0.5,0-0.8,0.3-1,0.7l0,0l-3.5,8.2C1585.1,432.6,1585.1,432.9,1585.2,433.2z"/>
	<path class="st1" d="M1575.8,416c-0.7,2.4-0.7,5-0.1,7.4c0.1,0.4,0.3,0.6,0.6,0.8c0.3,0.1,0.6,0.1,0.9,0l0,0l8.2-3.3
		c0.7-0.3,0.8-1,0.6-1.5c-0.1-0.2-0.2-0.5-0.6-0.6l-8.2-3.5c-0.3-0.1-0.6-0.1-0.9,0C1576.1,415.5,1575.9,415.7,1575.8,416z"/>
	<path class="st1" d="M1587.3,420.9c0.6,0.2,1.1,0.7,1.4,1.4c0,0,0,0,0,0.1c0.3-0.1,0.6-0.2,1-0.2c0.4,0,0.7,0.1,1,0.2
		c0.1-0.3,0.3-0.6,0.6-0.9c0.3-0.2,0.5-0.4,0.9-0.5l-4.9-2.1c0,0,0,0,0,0.1C1587.6,419.6,1587.6,420.3,1587.3,420.9z"/>
	<path class="st1" d="M1607.4,427.4l-4-1.7c0,0,0,0,0,0.1c0.3,0.7,0.2,1.5-0.1,2.1c-1.4,2.4-3.4,4.3-5.8,5.7c-0.6,0.4-1.4,0.4-2,0.2
		c-0.1,0-0.2,0-0.2-0.1c0,0.1,0,0.2-0.1,0.2c-0.3,0.6-0.9,1.1-1.6,1.3c-2.6,0.7-5.5,0.7-8.1-0.1c-0.7-0.2-1.3-0.7-1.6-1.4l0,0
		c0,0,0,0,0-0.1c-0.1,0-0.1,0.1-0.2,0.1c-0.7,0.2-1.4,0.1-2-0.2c-2.4-1.4-4.3-3.4-5.7-5.8c-0.1-0.1-0.1-0.2-0.2-0.3l0,0
		c-0.3-0.7-0.2-1.4,0.1-2c0,0-0.1,0-0.1,0c-0.6-0.3-1.1-0.7-1.3-1.3l0,0c0-0.1-0.1-0.2-0.1-0.3c-0.7-2.6-0.7-5.5,0.1-8.1
		c0.2-0.7,0.7-1.2,1.3-1.5c0.1,0,0.1-0.1,0.2-0.1l-4-1.7c-4.1,9.7,0.4,21,10.2,25.2C1592,441.7,1603.3,437.1,1607.4,427.4z"/>
</g>
<g class="st0">
	<path class="st1" d="M1236.8,29.5l21.1,1.2c0.8,0,1.6-0.2,2.1-0.8c0.5-0.6,0.8-1.3,0.7-2.1c-0.5-6-2.5-11.7-5.8-16.6
		c-0.5-0.6-1.2-1.1-2-1.1c-0.7,0-1.4,0.2-2,0.7l-15.7,14c-0.8,0.8-1.1,1.9-0.7,2.9C1234.8,28.7,1235.7,29.4,1236.8,29.5z"/>
	<path class="st1" d="M1230.3,38.2c-1.4-0.1-2.8,0.8-2.9,2.6l0,0l-1.2,21.1c-0.1,1.5,1,2.8,2.5,2.9l0,0c0.1,0,0.2,0,0.4,0
		c6-0.5,11.7-2.5,16.6-5.8c0.6-0.4,1-1.1,1.1-1.9c0.1-0.8-0.2-1.6-0.7-2.1l-14-15.8C1231.5,38.5,1230.8,38.2,1230.3,38.2z"/>
	<path class="st1" d="M1250.4,53.7c0.8,0,1.6-0.3,2.2-0.9c3.9-4.5,6.5-10,7.7-15.9c0.2-0.8,0-1.6-0.5-2.1c-0.5-0.6-1.2-1-2-1
		l-21.1-1.2c-1.1-0.1-2.1,0.5-2.6,1.5s-0.3,2.1,0.4,2.9l0,0l14.1,15.8C1249,53.3,1249.7,53.7,1250.4,53.7z"/>
	<path class="st1" d="M1204,56.5c4.5,3.9,10,6.5,15.9,7.7c0.9,0.2,1.7-0.1,2.3-0.6c0.5-0.5,0.9-1.1,0.9-1.9l0,0l1.2-21.1
		c0.1-1.7-1.2-2.8-2.6-2.9c-0.5,0-1.2,0.1-1.9,0.7l-15.7,14.1c-0.6,0.5-0.9,1.2-0.9,2.1C1203.2,55.3,1203.5,56,1204,56.5z"/>
	<path class="st1" d="M1226.1,36.7c1.1-1.1,2.7-1.7,4.4-1.6c0.1,0,0.1,0,0.2,0c0-0.8,0.2-1.6,0.6-2.4c0.4-0.8,0.9-1.4,1.5-2
		c-0.5-0.6-1-1.3-1.2-2.1c-0.3-0.8-0.4-1.6-0.3-2.4l-9.4,8.4c0.1,0,0.1,0,0.2,0C1223.6,34.7,1225.1,35.5,1226.1,36.7z"/>
	<path class="st1" d="M1260.5,0l-7.7,6.8c0.1,0,0.1,0,0.2,0c1.8,0.1,3.4,1,4.4,2.5c3.7,5.4,5.8,11.7,6.3,18.1
		c0.2,1.7-0.5,3.3-1.6,4.6c-0.1,0.1-0.3,0.3-0.5,0.4c0.1,0.1,0.3,0.3,0.4,0.5c1,1.3,1.4,3.1,1.1,4.7c-1.2,6.4-4.1,12.4-8.4,17.3
		c-1.2,1.4-2.9,2.1-4.7,2l0,0c-0.1,0-0.1,0-0.2,0c0,0.2,0,0.4,0,0.6c-0.2,1.7-1.1,3.1-2.5,4.1c-5.4,3.7-11.7,5.8-18.1,6.3
		c-0.3,0-0.5,0-0.8,0l0,0c-1.7-0.1-3.2-0.9-4.2-2.1c-0.1,0.1-0.1,0.1-0.1,0.2c-1.2,1-2.6,1.5-4.2,1.4l0,0c-0.2,0-0.5,0-0.8-0.1
		c-6.4-1.2-12.4-4.1-17.3-8.4c-1.2-1.1-2-2.7-2-4.3c0-0.2,0-0.4,0-0.6l-7.6,6.8c16.8,18.8,45.7,20.4,64.5,3.6S1277.3,18.8,1260.5,0z
		"/>
</g>
<g class="st0">
	<path class="st1" d="M30.5,362.7l0.1,13.6c0,0.5,0.2,1,0.6,1.3c0.4,0.3,0.9,0.5,1.4,0.4c3.8-0.5,7.4-2.1,10.5-4.4
		c0.4-0.3,0.6-0.8,0.6-1.4c0-0.5-0.2-0.9-0.5-1.2l-9.6-9.5c-0.5-0.5-1.2-0.6-1.9-0.3C30.9,361.4,30.5,362,30.5,362.7z"/>
	<path class="st1" d="M24.6,358.9c0-0.9-0.7-1.7-1.8-1.7l0,0l-13.6,0.1c-1,0-1.7,0.8-1.7,1.7l0,0c0,0.1,0,0.2,0,0.2
		c0.5,3.8,2.1,7.4,4.4,10.5c0.3,0.4,0.7,0.6,1.2,0.6c0.5,0,1-0.2,1.4-0.5l9.6-9.7C24.5,359.7,24.6,359.2,24.6,358.9z"/>
	<path class="st1" d="M15.4,372.5c0,0.5,0.2,1,0.6,1.4c3,2.3,6.7,3.8,10.5,4.3c0.5,0.1,1-0.1,1.4-0.4c0.4-0.3,0.6-0.8,0.6-1.3
		l-0.1-13.6c0-0.7-0.4-1.3-1.1-1.6c-0.7-0.3-1.4-0.1-1.9,0.4l0,0l-9.6,9.7C15.6,371.6,15.4,372,15.4,372.5z"/>
	<path class="st1" d="M11.7,342.8c-2.3,3-3.8,6.7-4.3,10.5c-0.1,0.6,0.1,1.1,0.5,1.4c0.3,0.3,0.8,0.5,1.2,0.5l0,0l13.6-0.1
		c1.1,0,1.7-0.9,1.7-1.8c0-0.3-0.1-0.8-0.5-1.2l-9.7-9.5c-0.4-0.4-0.8-0.6-1.4-0.5C12.5,342.2,12,342.4,11.7,342.8z"/>
	<path class="st1" d="M25.4,356.1c0.8,0.7,1.2,1.7,1.2,2.7c0,0,0,0.1,0,0.1c0.5,0,1,0.1,1.6,0.3c0.5,0.2,1,0.5,1.3,0.9
		c0.4-0.4,0.8-0.7,1.3-0.9c0.5-0.2,1-0.3,1.6-0.3l-5.8-5.7c0,0,0,0.1,0,0.1C26.5,354.5,26.1,355.5,25.4,356.1z"/>
	<path class="st1" d="M50.4,376.8l-4.7-4.7c0,0,0,0.1,0,0.1c0,1.2-0.5,2.2-1.4,3c-3.3,2.6-7.3,4.2-11.4,4.8c-1.1,0.2-2.2-0.2-3-0.9
		c-0.1-0.1-0.2-0.2-0.3-0.3c-0.1,0.1-0.2,0.2-0.3,0.3c-0.8,0.7-1.9,1.1-3,0.9c-4.2-0.5-8.1-2.1-11.5-4.7c-0.9-0.7-1.4-1.8-1.5-2.9
		l0,0c0,0,0-0.1,0-0.1c-0.1,0-0.2,0-0.4,0c-1.1-0.1-2-0.6-2.7-1.4c-2.6-3.3-4.2-7.3-4.8-11.4c0-0.2,0-0.3,0-0.5l0,0
		c0-1.1,0.5-2.1,1.2-2.8c0,0-0.1-0.1-0.1-0.1c-0.7-0.7-1.1-1.6-1.1-2.6l0,0c0-0.2,0-0.3,0-0.5c0.5-4.2,2.1-8.1,4.7-11.5
		c0.6-0.8,1.6-1.4,2.7-1.5c0.1,0,0.2,0,0.4,0l-4.7-4.6C-2.9,347-2.8,365.7,8.8,377.1S39,388.3,50.4,376.8z"/>
</g>
</svg>
