<?xml version="1.0" encoding="utf-8"?>
<!-- Generator: Adobe Illustrator 22.1.0, SVG Export Plug-In . SVG Version: 6.00 Build 0)  -->
<svg version="1.1" id="Layer_1" xmlns="http://www.w3.org/2000/svg" xmlns:xlink="http://www.w3.org/1999/xlink" x="0px" y="0px"
	 viewBox="0 0 1684.8 694.1" style="enable-background:new 0 0 1684.8 694.1;" xml:space="preserve">
<style type="text/css">
	.st0{opacity:0.5;}
	.st1{fill:#FFFFFF;}
	.st2{fill:#FBD0B5;}
	.st3{opacity:0.5;fill:#FFFFFF;}
	.st4{fill:#FFF5EF;}
	.st5{fill:#FCD1B5;}
	.st6{fill:#FDECE1;}
	.st7{fill:#FFE8CD;}
</style>
<g class="st0">
	<path class="st1" d="M869.8,555c-1.3-1.1-3.2-1.6-5.7-1.3c-3.4,0.4-8,2.4-13.8,6.6c-1,0.7-1.9,1.4-2.8,2.2
		c-9.8,8.1-16.3,18.9-17.7,23.4c-0.2,0.5,0,0.8,0.2,1c3.6-3.7,9.9-8.6,17.5-13.6c2.6-1.7,5.1-3.2,7.5-4.6c2,0,4.3-0.4,6.5-1.2
		c3.9-1.3,7-3.5,8.8-5.7c1-1.3,1.5-2.7,1.4-4c0-0.2-0.1-0.5-0.2-0.7C871.4,556.3,870.7,555.6,869.8,555z"/>
	<path class="st1" d="M820.2,573.4l17.4-2.8c0.4-0.5,0.8-0.9,1.2-1.4l-19.3,3.1C819.7,572.7,820,573,820.2,573.4z"/>
	<g>
		<path class="st1" d="M836.3,572.3l-14.9,2.4c0.3,0.3,0.7,0.5,1,0.8l13.1-2.1C835.8,573,836,572.7,836.3,572.3z"/>
	</g>
	<g>
		<path class="st1" d="M817.2,569.9l-0.1-5.8c-0.4,0.1-0.8,0.1-1.1,0.2c-6.7,1.7-10.9,8.2-8.9,16.1c2,8,9.2,13.3,15.9,11.3
			c8.2-2.5,2.7-6.3,11-16.7l-12.4,2C820.3,577.2,817.3,570.6,817.2,569.9z"/>
	</g>
	<path class="st1" d="M852.4,548.8c-1.1-2.2-1.8-3.5-2.5-4.2c-0.9-1.5-5.7-2.2-11.5-1.6c-6.1,0.7-10.8,2.6-10.9,4.4l0.7,2.5
		c0,0-4.3-1.2-1.5-4.2c-0.5,0.1-1.1,0.2-1.6,0.3c-5.7,1.5-6,4.6-6.8,8.6c-0.8,3.7,0.3,15.1,0.3,15.1c0.1,0.4,0.2,0.9,0.3,1.3
		c0,0,0.1,0,0.1,0c0.1,0,0.1,0,0.2,0l21.1-3.4c1.9-2.1,4.1-4.2,6.3-6.1c1-0.8,1.9-1.5,2.9-2.2c1.9-1.3,3.6-2.5,5.3-3.5L852.4,548.8z
		"/>
</g>
<g id="Ppxovp.tif" class="st0">
	<g>
		<path class="st2" d="M600.6,0c0.9,3.7,1.9,7.4,2.8,11.1c0,0.2,0.1,0.2,0.3,0.2c1.9-0.1,3.9-0.2,5.8-0.3c1.8-0.1,3.5-0.2,5.3-0.3
			c0.1,0,0.1,0,0.2,0c0,0,0,0.1,0,0.1c-0.1,0-0.2,0.1-0.3,0.1c-3.1,2-6.2,4-9.3,6c-0.2,0.1-0.2,0.2-0.1,0.4c1.3,3.3,2.6,6.7,3.8,10
			c0.1,0.2,0.2,0.4,0.4,0.7c-0.1,0-0.2,0-0.3-0.1c-0.4-0.4-0.8-0.7-1.2-1.1c-2.4-2-4.8-4.1-7.3-6.1c-0.1-0.1-0.1-0.1-0.1-0.1
			c-0.1,0-0.2,0.1-0.3,0.1c-2.9,2.4-5.8,4.8-8.8,7.2c0,0-0.1,0.1-0.1,0.1c0,0-0.1,0-0.1,0c0-0.1,0-0.3,0.1-0.4c1.3-3.5,2.7-7,4-10.5
			c0-0.1,0-0.1,0.1-0.2c-0.1-0.1-0.1-0.1-0.2-0.1c-2.8-1.8-5.6-3.7-8.4-5.5c-0.4-0.2-0.7-0.4-1.1-0.7c0,0,0-0.1,0-0.1
			c0.3,0,0.7,0,1,0c1.2,0.1,2.3,0.1,3.5,0.2c1.5,0.1,2.9,0.2,4.4,0.3c0.8,0.1,1.7,0.1,2.5,0.2c0.1,0,0.2,0,0.2-0.2
			c0.9-3.7,1.9-7.4,2.9-11.1c0,0,0,0,0,0C600.5,0,600.6,0,600.6,0z M600.5,15.7c-2.9,4-5.7,8-8.5,12c0.1,0,0.2-0.1,0.2-0.1
			c2.7-2.2,5.4-4.5,8.1-6.7c0.1-0.1,0.2-0.2,0.2-0.4c0-1.5,0-3,0-4.5C600.5,15.9,600.5,15.8,600.5,15.7z M586.6,11
			C586.6,11,586.6,11,586.6,11c0,0.1,0.1,0.1,0.1,0.1c2.9,1.9,5.9,3.8,8.8,5.8c0.1,0.1,0.3,0.1,0.4,0c1.3-0.5,2.7-1,4-1.5
			c0.1,0,0.1-0.1,0.2-0.1C595.7,13.8,591.2,12.4,586.6,11z M600.5,15.1c0-4.8,0-9.6,0-14.3c0,0.1-0.1,0.1-0.1,0.2
			c-0.9,3.4-1.8,6.9-2.6,10.3c0,0.1,0,0.2,0.1,0.3c0.3,0.4,0.6,0.8,0.9,1.2C599.3,13.5,599.9,14.3,600.5,15.1z M600.8,15.1
			C600.8,15.1,600.8,15.1,600.8,15.1c4.5-1.4,9-2.8,13.5-4.2c-0.3,0-0.6,0-0.9,0c-1.2,0.1-2.5,0.1-3.7,0.2c-1.3,0.1-2.6,0.2-3.9,0.2
			c-0.7,0-1.3,0.1-2,0.1c-0.2,0-0.3,0.1-0.4,0.2c-0.5,0.7-1,1.3-1.5,2C601.5,14.1,601.2,14.6,600.8,15.1z M608.9,27
			C608.9,27,608.9,27,608.9,27c0-0.1,0-0.1,0-0.1c-1.2-3.2-2.4-6.4-3.7-9.6c0-0.1-0.1-0.2-0.2-0.2c-1-0.4-2.1-0.8-3.1-1.2
			c-0.3-0.1-0.6-0.2-0.9-0.3c0,0,0,0,0,0C603.6,19.4,606.3,23.2,608.9,27z"/>
		<path class="st1" d="M600.5,15.7c0,0.1,0,0.2,0,0.3c0,1.5,0,3,0,4.5c0,0.2,0,0.3-0.2,0.4c-2.7,2.2-5.4,4.5-8.1,6.7
			c-0.1,0-0.1,0.1-0.2,0.1C594.8,23.7,597.6,19.7,600.5,15.7z"/>
		<path class="st1" d="M586.6,11c4.5,1.4,9.1,2.9,13.6,4.3c-0.1,0.1-0.2,0.1-0.2,0.1c-1.3,0.5-2.7,1-4,1.5c-0.2,0.1-0.3,0-0.4,0
			c-2.9-1.9-5.9-3.9-8.8-5.8C586.7,11.1,586.7,11,586.6,11C586.6,11,586.6,11,586.6,11z"/>
		<path class="st1" d="M600.5,15.1c-0.6-0.8-1.2-1.5-1.7-2.3c-0.3-0.4-0.6-0.8-0.9-1.2c-0.1-0.1-0.1-0.2-0.1-0.3
			c0.9-3.4,1.8-6.9,2.6-10.3c0-0.1,0-0.1,0.1-0.2C600.5,5.5,600.5,10.3,600.5,15.1z"/>
		<path class="st1" d="M600.8,15.1c0.4-0.5,0.7-1,1.1-1.4c0.5-0.7,1-1.3,1.5-2c0.1-0.1,0.2-0.2,0.4-0.2c0.7,0,1.3-0.1,2-0.1
			c1.3-0.1,2.6-0.2,3.9-0.2c1.2-0.1,2.5-0.1,3.7-0.2c0.3,0,0.6,0,0.9,0C609.8,12.3,605.3,13.7,600.8,15.1
			C600.8,15.1,600.8,15.1,600.8,15.1z"/>
		<path class="st1" d="M608.9,27c-2.7-3.8-5.3-7.6-8-11.4c0,0,0,0,0,0c0.3,0.1,0.6,0.2,0.9,0.3c1,0.4,2.1,0.8,3.1,1.2
			c0.1,0,0.2,0.1,0.2,0.2c1.2,3.2,2.4,6.4,3.7,9.6C608.9,26.9,608.9,27,608.9,27C608.9,27,608.9,27,608.9,27z"/>
	</g>
</g>
<g id="Ppxovp.tif_1_" class="st0">
	<g>
		<path class="st2" d="M216.4,101.5c0.8,3,1.5,6,2.3,9.1c0,0.2,0.1,0.2,0.2,0.2c1.6-0.1,3.2-0.2,4.7-0.3c1.4-0.1,2.9-0.2,4.3-0.3
			c0.1,0,0.1,0,0.2,0c0,0,0,0.1,0,0.1c-0.1,0-0.1,0.1-0.2,0.1c-2.5,1.6-5,3.3-7.5,4.9c-0.1,0.1-0.2,0.2-0.1,0.3
			c1,2.7,2.1,5.4,3.1,8.2c0.1,0.2,0.2,0.4,0.3,0.6c-0.1,0-0.2,0-0.3-0.1c-0.3-0.3-0.7-0.6-1-0.9c-2-1.7-3.9-3.3-5.9-5
			c-0.1,0-0.1-0.1-0.1-0.1c-0.1,0-0.2,0.1-0.2,0.1c-2.4,2-4.8,3.9-7.1,5.9c0,0,0,0-0.1,0.1c0,0-0.1,0-0.1,0c0-0.1,0-0.2,0.1-0.3
			c1.1-2.8,2.2-5.7,3.3-8.5c0-0.1,0-0.1,0.1-0.2c-0.1,0-0.1-0.1-0.2-0.1c-2.3-1.5-4.6-3-6.9-4.5c-0.3-0.2-0.6-0.4-0.9-0.5
			c0,0,0-0.1,0-0.1c0.3,0,0.5,0,0.8,0c0.9,0.1,1.9,0.1,2.8,0.2c1.2,0.1,2.4,0.2,3.6,0.2c0.7,0,1.4,0.1,2,0.1c0.1,0,0.2,0,0.2-0.1
			c0.8-3,1.6-6,2.3-9.1c0,0,0,0,0,0C216.3,101.5,216.4,101.5,216.4,101.5z M216.3,114.2c-2.3,3.3-4.6,6.5-6.9,9.8
			c0.1,0,0.1,0,0.2-0.1c2.2-1.8,4.4-3.6,6.6-5.5c0.1-0.1,0.1-0.2,0.1-0.3c0-1.2,0-2.4,0-3.7C216.3,114.4,216.3,114.4,216.3,114.2z
			 M205,110.4C205,110.4,205,110.4,205,110.4c0,0.1,0.1,0.1,0.1,0.1c2.4,1.6,4.8,3.1,7.2,4.7c0.1,0.1,0.2,0.1,0.3,0
			c1.1-0.4,2.2-0.8,3.3-1.2c0.1,0,0.1,0,0.2-0.1C212.4,112.7,208.7,111.6,205,110.4z M216.3,113.8c0-3.9,0-7.8,0-11.7
			c0,0-0.1,0.1-0.1,0.1c-0.7,2.8-1.4,5.6-2.2,8.4c0,0.1,0,0.2,0.1,0.3c0.2,0.3,0.5,0.7,0.8,1C215.4,112.5,215.8,113.1,216.3,113.8z
			 M216.6,113.8C216.6,113.8,216.6,113.8,216.6,113.8c3.7-1.1,7.3-2.3,11-3.4c-0.2,0-0.5,0-0.7,0c-1,0.1-2,0.1-3.1,0.2
			c-1.1,0.1-2.1,0.1-3.2,0.2c-0.5,0-1.1,0.1-1.6,0.1c-0.1,0-0.2,0.1-0.3,0.2c-0.4,0.5-0.8,1.1-1.2,1.6
			C217.2,113,216.9,113.4,216.6,113.8z M223.2,123.5C223.2,123.5,223.2,123.5,223.2,123.5c0,0,0-0.1,0-0.1c-1-2.6-2-5.2-3-7.8
			c0-0.1-0.1-0.2-0.2-0.2c-0.8-0.3-1.7-0.6-2.5-1c-0.2-0.1-0.5-0.2-0.7-0.3c0,0,0,0,0,0C218.9,117.3,221,120.4,223.2,123.5z"/>
		<path class="st1" d="M216.3,114.2c0,0.1,0,0.2,0,0.2c0,1.2,0,2.4,0,3.7c0,0.1,0,0.2-0.1,0.3c-2.2,1.8-4.4,3.6-6.6,5.5
			c0,0-0.1,0.1-0.2,0.1C211.7,120.8,214,117.5,216.3,114.2z"/>
		<path class="st1" d="M205,110.4c3.7,1.2,7.4,2.4,11.1,3.5c-0.1,0-0.1,0.1-0.2,0.1c-1.1,0.4-2.2,0.8-3.3,1.2c-0.1,0-0.2,0-0.3,0
			c-2.4-1.6-4.8-3.1-7.2-4.7C205.1,110.5,205.1,110.5,205,110.4C205,110.4,205,110.4,205,110.4z"/>
		<path class="st1" d="M216.3,113.8c-0.5-0.6-1-1.3-1.4-1.9c-0.3-0.3-0.5-0.7-0.8-1c0-0.1-0.1-0.2-0.1-0.3c0.7-2.8,1.4-5.6,2.2-8.4
			c0,0,0-0.1,0.1-0.1C216.3,106,216.3,109.8,216.3,113.8z"/>
		<path class="st1" d="M216.6,113.8c0.3-0.4,0.6-0.8,0.9-1.2c0.4-0.5,0.8-1.1,1.2-1.6c0.1-0.1,0.2-0.2,0.3-0.2
			c0.5,0,1.1-0.1,1.6-0.1c1.1-0.1,2.1-0.1,3.2-0.2c1-0.1,2-0.1,3.1-0.2c0.2,0,0.5,0,0.7,0C223.9,111.5,220.3,112.7,216.6,113.8
			C216.6,113.8,216.6,113.8,216.6,113.8z"/>
		<path class="st1" d="M223.2,123.5c-2.2-3.1-4.3-6.2-6.5-9.3c0,0,0,0,0,0c0.2,0.1,0.5,0.2,0.7,0.3c0.8,0.3,1.7,0.6,2.5,1
			c0.1,0,0.2,0.1,0.2,0.2c1,2.6,2,5.2,3,7.8C223.2,123.4,223.2,123.4,223.2,123.5C223.2,123.5,223.2,123.5,223.2,123.5z"/>
	</g>
</g>
<g id="Ppxovp.tif_2_" class="st0">
	<g>
		<path class="st2" d="M219.7,244.6c2.5,4.6,5,9.2,7.6,13.9c0.1,0.2,0.2,0.2,0.5,0.2c2.5-0.8,5.1-1.6,7.6-2.4
			c2.3-0.7,4.6-1.5,6.9-2.2c0.1,0,0.2,0,0.3,0c0,0,0,0.1,0,0.1c-0.1,0.1-0.2,0.2-0.3,0.3c-3.4,3.7-6.9,7.5-10.3,11.2
			c-0.2,0.2-0.2,0.3,0,0.6c2.8,4,5.7,8,8.5,12.1c0.2,0.3,0.5,0.5,0.8,0.8c-0.2,0-0.3,0-0.4,0c-0.7-0.3-1.3-0.7-2-1.1
			c-3.9-1.9-7.8-3.8-11.8-5.7c-0.1-0.1-0.2-0.1-0.2-0.1c-0.1,0.1-0.2,0.2-0.3,0.3c-3.1,4.2-6.2,8.4-9.2,12.6c0,0-0.1,0.1-0.1,0.1
			c0,0-0.1,0-0.1,0c0-0.2-0.1-0.4,0-0.6c0.6-5.1,1.2-10.2,1.8-15.3c0-0.1,0-0.2,0-0.3c-0.1,0-0.2-0.1-0.3-0.1
			c-4.4-1.5-8.7-3-13.1-4.5c-0.5-0.2-1.1-0.4-1.6-0.5c0,0,0-0.1,0-0.1c0.4-0.1,0.9-0.2,1.3-0.3c1.6-0.3,3.1-0.6,4.7-0.9
			c2-0.4,4-0.7,6-1.1c1.1-0.2,2.3-0.4,3.4-0.6c0.2,0,0.3-0.1,0.3-0.3c0-5.3,0-10.5,0-15.8c0,0,0,0,0-0.1
			C219.6,244.6,219.6,244.6,219.7,244.6z M224.8,265.5c-2.4,6.3-4.8,12.6-7.3,18.8c0.1-0.1,0.2-0.1,0.3-0.2
			c2.9-3.9,5.7-7.8,8.6-11.7c0.1-0.2,0.2-0.3,0.1-0.5c-0.5-2-1-4-1.5-6C224.9,265.8,224.9,265.7,224.8,265.5z M204.8,263.9
			C204.8,263.9,204.8,264,204.8,263.9c0.1,0.1,0.2,0.1,0.2,0.1c4.6,1.6,9.1,3.1,13.7,4.7c0.2,0.1,0.4,0,0.5-0.1
			c1.6-1.1,3.3-2.3,4.9-3.4c0.1-0.1,0.1-0.1,0.3-0.2C217.8,264.7,211.3,264.3,204.8,263.9z M224.6,264.8c-1.6-6.4-3.2-12.8-4.9-19.1
			c0,0.1-0.1,0.2-0.1,0.3c0,4.9,0,9.8,0,14.7c0,0.1,0.1,0.3,0.2,0.4c0.5,0.5,1.1,0.9,1.7,1.3C222.5,263.1,223.5,263.9,224.6,264.8z
			 M225.1,264.7C225.1,264.7,225.1,264.7,225.1,264.7c5.6-3.3,11-6.7,16.5-10.1c-0.4,0.1-0.8,0.2-1.2,0.3c-1.6,0.5-3.3,1-4.9,1.5
			c-1.7,0.5-3.4,1.1-5.1,1.6c-0.9,0.3-1.8,0.6-2.6,0.8c-0.2,0.1-0.3,0.2-0.4,0.4c-0.4,1.1-0.9,2.1-1.3,3.2
			C225.7,263.1,225.4,263.9,225.1,264.7z M239.9,277.8C239.9,277.8,239.9,277.8,239.9,277.8c0-0.1,0-0.1,0-0.2
			c-2.7-3.8-5.4-7.7-8.1-11.5c-0.1-0.1-0.3-0.2-0.4-0.2c-1.5-0.2-3-0.4-4.5-0.5c-0.4-0.1-0.9-0.1-1.3-0.2c0,0,0,0,0,0.1
			C230.3,269.4,235.1,273.6,239.9,277.8z"/>
		<path class="st1" d="M224.8,265.5c0.1,0.2,0.1,0.3,0.1,0.4c0.5,2,1,4,1.5,6c0.1,0.2,0,0.4-0.1,0.5c-2.9,3.9-5.7,7.8-8.6,11.7
			c-0.1,0.1-0.1,0.2-0.3,0.2C220,278.1,222.4,271.9,224.8,265.5z"/>
		<path class="st1" d="M204.8,263.9c6.5,0.4,13.1,0.8,19.7,1.2c-0.1,0.1-0.2,0.2-0.3,0.2c-1.6,1.1-3.3,2.3-4.9,3.4
			c-0.2,0.1-0.3,0.2-0.5,0.1c-4.6-1.6-9.1-3.1-13.7-4.7C204.9,264,204.8,264,204.8,263.9C204.8,264,204.8,263.9,204.8,263.9z"/>
		<path class="st1" d="M224.6,264.8c-1.1-0.9-2.1-1.7-3.1-2.5c-0.6-0.4-1.1-0.9-1.7-1.3c-0.1-0.1-0.2-0.3-0.2-0.4
			c0-4.9,0-9.8,0-14.7c0-0.1,0-0.2,0.1-0.3C221.4,252,223,258.3,224.6,264.8z"/>
		<path class="st1" d="M225.1,264.7c0.3-0.8,0.6-1.5,0.9-2.3c0.4-1.1,0.9-2.1,1.3-3.2c0.1-0.2,0.2-0.3,0.4-0.4
			c0.9-0.3,1.8-0.6,2.6-0.8c1.7-0.5,3.4-1.1,5.1-1.6c1.6-0.5,3.3-1,4.9-1.5c0.4-0.1,0.8-0.2,1.2-0.3
			C236.1,257.9,230.6,261.3,225.1,264.7C225.1,264.7,225.1,264.7,225.1,264.7z"/>
		<path class="st1" d="M239.9,277.8c-4.8-4.2-9.7-8.3-14.5-12.5c0,0,0,0,0-0.1c0.4,0.1,0.9,0.1,1.3,0.2c1.5,0.2,3,0.3,4.5,0.5
			c0.1,0,0.3,0.1,0.4,0.2c2.7,3.8,5.4,7.7,8.1,11.5C239.9,277.7,239.9,277.7,239.9,277.8C239.9,277.8,239.9,277.8,239.9,277.8z"/>
	</g>
</g>
<g id="Ppxovp.tif_3_" class="st0">
	<g>
		<path class="st2" d="M988.2,106c1.3,5.2,2.7,10.4,4,15.7c0.1,0.3,0.2,0.3,0.4,0.3c2.7-0.2,5.5-0.3,8.2-0.5c2.5-0.1,5-0.3,7.4-0.4
			c0.1,0,0.2,0,0.3,0c0,0,0,0.1,0,0.1c-0.1,0.1-0.2,0.1-0.4,0.2c-4.3,2.8-8.7,5.7-13,8.5c-0.2,0.2-0.3,0.3-0.2,0.5
			c1.8,4.7,3.6,9.4,5.4,14.1c0.1,0.3,0.3,0.6,0.6,1c-0.2-0.1-0.4-0.1-0.4-0.1c-0.6-0.5-1.1-1.1-1.7-1.5c-3.4-2.9-6.8-5.7-10.2-8.6
			c-0.1-0.1-0.2-0.2-0.2-0.1c-0.1,0.1-0.3,0.1-0.4,0.2c-4.1,3.4-8.2,6.8-12.3,10.2c0,0-0.1,0.1-0.1,0.1c0,0-0.1,0-0.1,0
			c0-0.2,0-0.4,0.1-0.6c1.9-4.9,3.8-9.8,5.7-14.8c0-0.1,0.1-0.2,0.1-0.3c-0.1-0.1-0.2-0.1-0.3-0.2c-4-2.6-7.9-5.2-11.9-7.7
			c-0.5-0.3-1-0.6-1.5-0.9c0,0,0-0.1,0-0.1c0.5,0,0.9,0,1.4,0c1.6,0.1,3.3,0.2,4.9,0.3c2.1,0.1,4.1,0.3,6.2,0.4
			c1.2,0.1,2.4,0.1,3.5,0.2c0.2,0,0.3,0,0.3-0.2c1.3-5.2,2.7-10.4,4-15.7c0,0,0,0,0-0.1C988,106,988.1,106,988.2,106z M988,128
			c-4,5.7-8,11.3-11.9,16.9c0.1,0,0.2-0.1,0.3-0.2c3.8-3.1,7.6-6.3,11.4-9.4c0.2-0.1,0.2-0.3,0.2-0.5c0-2.1,0-4.2,0-6.3
			C988,128.3,988,128.2,988,128z M968.5,121.4C968.5,121.4,968.5,121.4,968.5,121.4c0.1,0.1,0.1,0.2,0.2,0.2
			c4.1,2.7,8.3,5.4,12.4,8.1c0.2,0.1,0.4,0.1,0.6,0.1c1.9-0.7,3.8-1.4,5.7-2.1c0.1,0,0.2-0.1,0.3-0.2
			C981.2,125.5,974.9,123.4,968.5,121.4z M988,127.2c0-6.8,0-13.5,0-20.2c-0.1,0.1-0.1,0.2-0.1,0.2c-1.2,4.8-2.5,9.7-3.7,14.5
			c0,0.1,0,0.3,0.1,0.5c0.4,0.6,0.9,1.2,1.3,1.7C986.3,125,987.1,126.1,988,127.2z M988.4,127.2
			C988.5,127.2,988.5,127.3,988.4,127.2c6.4-1.9,12.7-3.9,19-5.9c-0.4,0-0.8,0-1.2,0c-1.8,0.1-3.5,0.2-5.3,0.3
			c-1.8,0.1-3.7,0.2-5.5,0.3c-0.9,0.1-1.9,0.1-2.8,0.2c-0.2,0-0.4,0.1-0.5,0.3c-0.7,0.9-1.4,1.9-2.1,2.8
			C989.4,125.9,988.9,126.6,988.4,127.2z M999.9,144C999.9,144,999.9,144,999.9,144c0-0.1,0-0.1,0-0.2c-1.7-4.5-3.4-9-5.1-13.5
			c-0.1-0.1-0.2-0.3-0.3-0.3c-1.5-0.6-2.9-1.1-4.4-1.7c-0.4-0.2-0.9-0.3-1.3-0.5c0,0,0,0-0.1,0.1C992.4,133.3,996.1,138.6,999.9,144
			z"/>
		<path class="st1" d="M988,128c0,0.2,0,0.3,0,0.4c0,2.1,0,4.2,0,6.3c0,0.2-0.1,0.4-0.2,0.5c-3.8,3.1-7.6,6.3-11.4,9.4
			c-0.1,0.1-0.2,0.1-0.3,0.2C980,139.3,984,133.7,988,128z"/>
		<path class="st1" d="M968.5,121.4c6.4,2,12.8,4.1,19.2,6.1c-0.1,0.1-0.2,0.1-0.3,0.2c-1.9,0.7-3.8,1.4-5.7,2.1
			c-0.2,0.1-0.4,0.1-0.6-0.1c-4.1-2.7-8.3-5.4-12.4-8.1C968.6,121.5,968.5,121.5,968.5,121.4C968.5,121.4,968.5,121.4,968.5,121.4z"
			/>
		<path class="st1" d="M988,127.2c-0.9-1.1-1.6-2.2-2.4-3.2c-0.4-0.6-0.9-1.2-1.3-1.7c-0.1-0.1-0.1-0.3-0.1-0.5
			c1.2-4.8,2.5-9.7,3.7-14.5c0-0.1,0.1-0.2,0.1-0.2C988,113.7,988,120.4,988,127.2z"/>
		<path class="st1" d="M988.4,127.2c0.5-0.7,1-1.3,1.5-2c0.7-0.9,1.4-1.9,2.1-2.8c0.1-0.2,0.3-0.3,0.5-0.3c0.9,0,1.9-0.1,2.8-0.2
			c1.8-0.1,3.7-0.2,5.5-0.3c1.8-0.1,3.5-0.2,5.3-0.3c0.4,0,0.8,0,1.2,0C1001.1,123.3,994.8,125.3,988.4,127.2
			C988.5,127.3,988.5,127.2,988.4,127.2z"/>
		<path class="st1" d="M999.9,144c-3.7-5.4-7.5-10.7-11.2-16.1c0,0,0,0,0.1-0.1c0.4,0.2,0.9,0.3,1.3,0.5c1.5,0.6,2.9,1.1,4.4,1.7
			c0.1,0.1,0.3,0.2,0.3,0.3c1.7,4.5,3.4,9,5.1,13.5C999.9,143.9,999.9,143.9,999.9,144C999.9,144,999.9,144,999.9,144z"/>
	</g>
</g>
<g id="Ppxovp.tif_4_" class="st0">
	<g>
		<path class="st2" d="M1611.1,394.6c1.5,5.8,3,11.7,4.5,17.5c0.1,0.3,0.2,0.3,0.5,0.3c3.1-0.2,6.1-0.4,9.2-0.5
			c2.8-0.2,5.6-0.3,8.3-0.5c0.1,0,0.2,0,0.3,0c0,0.1,0,0.1,0,0.2c-0.1,0.1-0.3,0.1-0.4,0.2c-4.9,3.2-9.7,6.4-14.6,9.5
			c-0.3,0.2-0.3,0.3-0.2,0.6c2,5.3,4,10.5,6,15.8c0.1,0.4,0.4,0.7,0.6,1.1c-0.2-0.1-0.4-0.1-0.5-0.1c-0.6-0.6-1.3-1.2-1.9-1.7
			c-3.8-3.2-7.6-6.4-11.4-9.6c-0.1-0.1-0.2-0.2-0.2-0.1c-0.1,0.1-0.3,0.1-0.4,0.2c-4.6,3.8-9.2,7.6-13.8,11.4c0,0-0.1,0.1-0.1,0.1
			c-0.1,0-0.1,0-0.2,0c0-0.2,0-0.5,0.1-0.7c2.1-5.5,4.2-11,6.3-16.5c0-0.1,0.1-0.2,0.1-0.3c-0.1-0.1-0.2-0.2-0.3-0.2
			c-4.4-2.9-8.8-5.8-13.3-8.7c-0.6-0.4-1.1-0.7-1.7-1.1c0-0.1,0-0.1,0-0.2c0.5,0,1.1,0,1.6,0c1.8,0.1,3.7,0.2,5.5,0.3
			c2.3,0.1,4.6,0.3,6.9,0.4c1.3,0.1,2.6,0.2,4,0.3c0.2,0,0.3,0,0.4-0.3c1.5-5.8,3-11.7,4.5-17.5c0,0,0-0.1,0-0.1
			C1610.9,394.6,1611,394.6,1611.1,394.6z M1610.8,419.2c-4.5,6.4-8.9,12.6-13.4,18.9c0.1,0,0.2-0.1,0.3-0.2
			c4.3-3.5,8.5-7,12.8-10.5c0.2-0.2,0.3-0.3,0.3-0.6c0-2.4,0-4.7,0-7.1C1610.9,419.6,1610.8,419.5,1610.8,419.2z M1589,411.8
			C1589,411.8,1589,411.8,1589,411.8c0.1,0.1,0.1,0.2,0.2,0.2c4.6,3,9.3,6.1,13.9,9.1c0.2,0.1,0.4,0.2,0.6,0.1
			c2.1-0.8,4.2-1.6,6.4-2.4c0.1,0,0.2-0.1,0.4-0.2C1603.3,416.4,1596.2,414.1,1589,411.8z M1610.8,418.3c0-7.6,0-15.1,0-22.6
			c-0.1,0.1-0.1,0.2-0.1,0.3c-1.4,5.4-2.8,10.8-4.2,16.3c0,0.2,0,0.4,0.1,0.5c0.5,0.7,1,1.3,1.5,2
			C1609,415.9,1609.9,417.1,1610.8,418.3z M1611.4,418.3C1611.4,418.4,1611.4,418.4,1611.4,418.3c7.1-2.2,14.2-4.4,21.2-6.6
			c-0.5-0.1-0.9,0-1.4,0c-2,0.1-3.9,0.2-5.9,0.3c-2.1,0.1-4.1,0.2-6.2,0.4c-1.1,0.1-2.1,0.1-3.2,0.2c-0.3,0-0.4,0.1-0.6,0.3
			c-0.8,1.1-1.6,2.1-2.3,3.1C1612.5,416.8,1611.9,417.6,1611.4,418.3z M1624.1,437.1C1624.1,437.1,1624.2,437.1,1624.1,437.1
			c0-0.1,0-0.1,0-0.2c-1.9-5-3.8-10.1-5.8-15.1c-0.1-0.1-0.2-0.3-0.4-0.4c-1.6-0.6-3.3-1.2-4.9-1.9c-0.5-0.2-1-0.4-1.4-0.5
			c0,0,0,0-0.1,0.1C1615.8,425.1,1619.9,431.1,1624.1,437.1z"/>
		<path class="st1" d="M1610.8,419.2c0,0.2,0,0.4,0,0.5c0,2.4,0,4.7,0,7.1c0,0.2-0.1,0.4-0.3,0.6c-4.3,3.5-8.5,7-12.8,10.5
			c-0.1,0.1-0.2,0.1-0.3,0.2C1601.9,431.8,1606.3,425.6,1610.8,419.2z"/>
		<path class="st1" d="M1589,411.8c7.1,2.3,14.3,4.5,21.5,6.8c-0.2,0.1-0.3,0.1-0.4,0.2c-2.1,0.8-4.3,1.6-6.4,2.4
			c-0.2,0.1-0.4,0.1-0.6-0.1c-4.6-3-9.3-6.1-13.9-9.1C1589.2,412,1589.1,411.9,1589,411.8C1589,411.8,1589,411.8,1589,411.8z"/>
		<path class="st1" d="M1610.8,418.3c-1-1.3-1.8-2.4-2.7-3.6c-0.5-0.6-1-1.3-1.5-2c-0.1-0.1-0.2-0.4-0.1-0.5
			c1.4-5.4,2.8-10.8,4.2-16.3c0-0.1,0.1-0.2,0.1-0.3C1610.8,403.2,1610.8,410.7,1610.8,418.3z"/>
		<path class="st1" d="M1611.4,418.3c0.6-0.8,1.1-1.5,1.7-2.3c0.8-1,1.6-2.1,2.3-3.1c0.2-0.2,0.3-0.3,0.6-0.3
			c1.1-0.1,2.1-0.1,3.2-0.2c2.1-0.1,4.1-0.2,6.2-0.4c2-0.1,3.9-0.2,5.9-0.3c0.5,0,0.9-0.1,1.4,0
			C1625.5,414,1618.5,416.2,1611.4,418.3C1611.4,418.4,1611.4,418.4,1611.4,418.3z"/>
		<path class="st1" d="M1624.1,437.1c-4.2-6-8.4-12-12.5-18c0,0,0,0,0.1-0.1c0.5,0.2,1,0.4,1.4,0.5c1.6,0.6,3.3,1.2,4.9,1.9
			c0.2,0.1,0.3,0.2,0.4,0.4c1.9,5,3.8,10.1,5.8,15.1C1624.1,436.9,1624.2,437,1624.1,437.1C1624.2,437.1,1624.1,437.1,1624.1,437.1z
			"/>
	</g>
</g>
<g id="Ppxovp.tif_6_" class="st0">
	<g>
		<path class="st2" d="M979.1,598.4c0.9,3.5,1.8,6.9,2.7,10.4c0,0.2,0.1,0.2,0.3,0.2c1.8-0.1,3.6-0.2,5.4-0.3
			c1.6-0.1,3.3-0.2,4.9-0.3c0.1,0,0.1,0,0.2,0c0,0,0,0.1,0,0.1c-0.1,0-0.2,0.1-0.2,0.1c-2.9,1.9-5.8,3.8-8.7,5.7
			c-0.2,0.1-0.2,0.2-0.1,0.4c1.2,3.1,2.4,6.2,3.6,9.4c0.1,0.2,0.2,0.4,0.4,0.7c-0.1,0-0.2,0-0.3-0.1c-0.4-0.3-0.7-0.7-1.1-1
			c-2.3-1.9-4.5-3.8-6.8-5.7c-0.1-0.1-0.1-0.1-0.1-0.1c-0.1,0-0.2,0.1-0.3,0.1c-2.7,2.2-5.5,4.5-8.2,6.8c0,0-0.1,0.1-0.1,0.1
			c0,0-0.1,0-0.1,0c0-0.1,0-0.3,0.1-0.4c1.3-3.3,2.5-6.5,3.8-9.8c0-0.1,0-0.1,0.1-0.2c-0.1-0.1-0.1-0.1-0.2-0.1
			c-2.6-1.7-5.3-3.4-7.9-5.1c-0.3-0.2-0.7-0.4-1-0.6c0,0,0-0.1,0-0.1c0.3,0,0.6,0,0.9,0c1.1,0.1,2.2,0.1,3.3,0.2
			c1.4,0.1,2.7,0.2,4.1,0.3c0.8,0,1.6,0.1,2.4,0.1c0.1,0,0.2,0,0.2-0.1c0.9-3.5,1.8-6.9,2.7-10.4c0,0,0,0,0,0
			C979,598.4,979.1,598.4,979.1,598.4z M979,613c-2.7,3.8-5.3,7.5-7.9,11.2c0.1,0,0.1-0.1,0.2-0.1c2.5-2.1,5.1-4.2,7.6-6.3
			c0.1-0.1,0.2-0.2,0.2-0.3c0-1.4,0-2.8,0-4.2C979,613.3,979,613.2,979,613z M966,608.6C966,608.7,966,608.7,966,608.6
			c0,0.1,0.1,0.1,0.1,0.1c2.8,1.8,5.5,3.6,8.3,5.4c0.1,0.1,0.2,0.1,0.4,0c1.3-0.5,2.5-0.9,3.8-1.4c0.1,0,0.1-0.1,0.2-0.1
			C974.5,611.3,970.3,610,966,608.6z M979,612.5c0-4.5,0-9,0-13.4c0,0-0.1,0.1-0.1,0.2c-0.8,3.2-1.7,6.4-2.5,9.7
			c0,0.1,0,0.2,0.1,0.3c0.3,0.4,0.6,0.8,0.9,1.2C977.9,611.1,978.4,611.8,979,612.5z M979.3,612.5
			C979.3,612.5,979.3,612.5,979.3,612.5c4.2-1.3,8.4-2.6,12.6-3.9c-0.3,0-0.6,0-0.8,0c-1.2,0.1-2.3,0.1-3.5,0.2
			c-1.2,0.1-2.4,0.1-3.7,0.2c-0.6,0-1.3,0.1-1.9,0.1c-0.2,0-0.3,0.1-0.4,0.2c-0.5,0.6-0.9,1.2-1.4,1.9
			C979.9,611.6,979.6,612.1,979.3,612.5z M986.9,623.7C986.9,623.7,986.9,623.6,986.9,623.7c0-0.1,0-0.1,0-0.1c-1.1-3-2.3-6-3.4-9
			c0-0.1-0.1-0.2-0.2-0.2c-1-0.4-1.9-0.7-2.9-1.1c-0.3-0.1-0.6-0.2-0.9-0.3c0,0,0,0,0,0C981.9,616.5,984.4,620.1,986.9,623.7z"/>
		<path class="st1" d="M979,613c0,0.1,0,0.2,0,0.3c0,1.4,0,2.8,0,4.2c0,0.1,0,0.2-0.2,0.3c-2.5,2.1-5.1,4.2-7.6,6.3
			c-0.1,0-0.1,0.1-0.2,0.1C973.7,620.5,976.3,616.8,979,613z"/>
		<path class="st1" d="M966,608.6c4.2,1.3,8.5,2.7,12.8,4.1c-0.1,0-0.2,0.1-0.2,0.1c-1.3,0.5-2.5,0.9-3.8,1.4c-0.1,0.1-0.2,0-0.4,0
			c-2.7-1.8-5.5-3.6-8.3-5.4C966.1,608.7,966.1,608.7,966,608.6C966,608.7,966,608.7,966,608.6z"/>
		<path class="st1" d="M979,612.5c-0.6-0.7-1.1-1.4-1.6-2.1c-0.3-0.4-0.6-0.8-0.9-1.2c-0.1-0.1-0.1-0.2-0.1-0.3
			c0.8-3.2,1.6-6.4,2.5-9.7c0-0.1,0-0.1,0.1-0.2C979,603.5,979,608,979,612.5z"/>
		<path class="st1" d="M979.3,612.5c0.3-0.4,0.7-0.9,1-1.3c0.5-0.6,0.9-1.2,1.4-1.9c0.1-0.1,0.2-0.2,0.4-0.2c0.6,0,1.3-0.1,1.9-0.1
			c1.2-0.1,2.4-0.1,3.7-0.2c1.2-0.1,2.3-0.1,3.5-0.2c0.3,0,0.5,0,0.8,0C987.7,609.9,983.5,611.2,979.3,612.5
			C979.3,612.5,979.3,612.5,979.3,612.5z"/>
		<path class="st1" d="M986.9,623.7c-2.5-3.6-5-7.1-7.5-10.7c0,0,0,0,0,0c0.3,0.1,0.6,0.2,0.9,0.3c1,0.4,1.9,0.7,2.9,1.1
			c0.1,0,0.2,0.1,0.2,0.2c1.1,3,2.3,6,3.4,9C986.9,623.6,986.9,623.6,986.9,623.7C986.9,623.6,986.9,623.7,986.9,623.7z"/>
	</g>
</g>
<g id="Ppxovp.tif_5_" class="st0">
	<g>
		<path class="st2" d="M1672.3,432.4c0.8,3.2,1.6,6.4,2.5,9.6c0,0.2,0.1,0.2,0.3,0.2c1.7-0.1,3.4-0.2,5-0.3c1.5-0.1,3.1-0.2,4.6-0.3
			c0.1,0,0.1,0,0.2,0c0,0,0,0.1,0,0.1c-0.1,0-0.1,0.1-0.2,0.1c-2.7,1.7-5.3,3.5-8,5.2c-0.1,0.1-0.2,0.2-0.1,0.3
			c1.1,2.9,2.2,5.8,3.3,8.7c0.1,0.2,0.2,0.4,0.4,0.6c-0.1,0-0.2,0-0.3-0.1c-0.4-0.3-0.7-0.6-1.1-1c-2.1-1.8-4.2-3.5-6.3-5.3
			c-0.1,0-0.1-0.1-0.1-0.1c-0.1,0-0.2,0.1-0.2,0.1c-2.5,2.1-5.1,4.2-7.6,6.2c0,0,0,0-0.1,0.1c0,0-0.1,0-0.1,0c0-0.1,0-0.3,0.1-0.4
			c1.2-3,2.3-6,3.5-9.1c0-0.1,0-0.1,0.1-0.2c-0.1,0-0.1-0.1-0.2-0.1c-2.4-1.6-4.9-3.2-7.3-4.8c-0.3-0.2-0.6-0.4-0.9-0.6
			c0,0,0-0.1,0-0.1c0.3,0,0.6,0,0.9,0c1,0.1,2,0.1,3,0.2c1.3,0.1,2.5,0.2,3.8,0.2c0.7,0,1.5,0.1,2.2,0.1c0.1,0,0.2,0,0.2-0.1
			c0.8-3.2,1.6-6.4,2.5-9.6c0,0,0,0,0,0C1672.2,432.4,1672.3,432.4,1672.3,432.4z M1672.2,446c-2.5,3.5-4.9,6.9-7.3,10.4
			c0.1,0,0.1-0.1,0.2-0.1c2.3-1.9,4.7-3.9,7-5.8c0.1-0.1,0.1-0.2,0.1-0.3c0-1.3,0-2.6,0-3.9C1672.2,446.1,1672.2,446.1,1672.2,446z
			 M1660.2,441.9C1660.2,441.9,1660.2,441.9,1660.2,441.9c0,0.1,0.1,0.1,0.1,0.1c2.5,1.7,5.1,3.3,7.6,5c0.1,0.1,0.2,0.1,0.3,0
			c1.2-0.4,2.3-0.9,3.5-1.3c0.1,0,0.1-0.1,0.2-0.1C1668,444.4,1664.1,443.1,1660.2,441.9z M1672.2,445.5c0-4.2,0-8.3,0-12.4
			c0,0-0.1,0.1-0.1,0.1c-0.8,3-1.5,6-2.3,8.9c0,0.1,0,0.2,0.1,0.3c0.3,0.4,0.5,0.7,0.8,1.1C1671.2,444.1,1671.6,444.8,1672.2,445.5z
			 M1672.5,445.5C1672.5,445.5,1672.5,445.5,1672.5,445.5c3.9-1.2,7.8-2.4,11.7-3.6c-0.3,0-0.5,0-0.8,0c-1.1,0.1-2.2,0.1-3.2,0.2
			c-1.1,0.1-2.3,0.1-3.4,0.2c-0.6,0-1.2,0.1-1.7,0.1c-0.1,0-0.2,0.1-0.3,0.2c-0.4,0.6-0.9,1.2-1.3,1.7
			C1673.1,444.6,1672.8,445.1,1672.5,445.5z M1679.5,455.8C1679.5,455.8,1679.5,455.8,1679.5,455.8c0,0,0-0.1,0-0.1
			c-1.1-2.8-2.1-5.5-3.2-8.3c0-0.1-0.1-0.2-0.2-0.2c-0.9-0.3-1.8-0.7-2.7-1c-0.3-0.1-0.5-0.2-0.8-0.3c0,0,0,0,0,0
			C1674.9,449.2,1677.2,452.5,1679.5,455.8z"/>
		<path class="st1" d="M1672.2,446c0,0.1,0,0.2,0,0.3c0,1.3,0,2.6,0,3.9c0,0.1,0,0.2-0.1,0.3c-2.3,1.9-4.7,3.9-7,5.8
			c-0.1,0-0.1,0.1-0.2,0.1C1667.3,452.9,1669.7,449.4,1672.2,446z"/>
		<path class="st1" d="M1660.2,441.9c3.9,1.2,7.8,2.5,11.8,3.8c-0.1,0-0.1,0.1-0.2,0.1c-1.2,0.4-2.3,0.9-3.5,1.3c-0.1,0-0.2,0-0.3,0
			c-2.5-1.7-5.1-3.3-7.6-5C1660.3,442,1660.2,441.9,1660.2,441.9C1660.2,441.9,1660.2,441.9,1660.2,441.9z"/>
		<path class="st1" d="M1672.2,445.5c-0.5-0.7-1-1.3-1.5-2c-0.3-0.4-0.5-0.7-0.8-1.1c-0.1-0.1-0.1-0.2-0.1-0.3c0.8-3,1.5-6,2.3-8.9
			c0-0.1,0-0.1,0.1-0.1C1672.2,437.2,1672.2,441.3,1672.2,445.5z"/>
		<path class="st1" d="M1672.5,445.5c0.3-0.4,0.6-0.8,0.9-1.2c0.4-0.6,0.9-1.1,1.3-1.7c0.1-0.1,0.2-0.2,0.3-0.2
			c0.6,0,1.2-0.1,1.7-0.1c1.1-0.1,2.3-0.1,3.4-0.2c1.1-0.1,2.2-0.1,3.2-0.2c0.3,0,0.5,0,0.8,0
			C1680.3,443.1,1676.4,444.3,1672.5,445.5C1672.5,445.5,1672.5,445.5,1672.5,445.5z"/>
		<path class="st1" d="M1679.5,455.8c-2.3-3.3-4.6-6.6-6.9-9.9c0,0,0,0,0,0c0.3,0.1,0.5,0.2,0.8,0.3c0.9,0.3,1.8,0.7,2.7,1
			c0.1,0,0.2,0.1,0.2,0.2c1.1,2.8,2.1,5.5,3.2,8.3C1679.5,455.7,1679.5,455.7,1679.5,455.8C1679.5,455.8,1679.5,455.8,1679.5,455.8z
			"/>
	</g>
</g>
<path class="st3" d="M814,176.2h-0.4c-0.3,0-0.4,0-0.6,0.1l-0.5-0.4c0.4-0.5,0.8-1,1.3-1.5c0,0-0.6-0.3-0.9-0.9
	c-0.2-0.3-0.8-1.3-1.8-2l0,0l0,0l0,0l0,0c-1.2-0.6-2.3-0.9-2.7-0.9c-0.7,0-1.1-0.5-1.1-0.5c-0.3,0.6-0.6,1.2-0.9,1.8l-0.5-0.3
	c0-0.2,0-0.4-0.1-0.6l-0.2-0.4c-0.3-0.7-1-0.7-1.4-0.1l-0.3,0.4c-0.4,0.6-0.1,1.2,0.6,1.2h0.4c0.3,0,0.4-0.1,0.6-0.2l0.6,0.4
	c-0.4,0.8-0.9,1.5-1.3,2.2l-0.7-0.4c0-0.2,0-0.4-0.1-0.6l-0.2-0.4c-0.3-0.7-1-0.7-1.4-0.1l-0.1,0.4c-0.4,0.6-0.1,1.2,0.6,1.2h0.4
	c0.3,0,0.4-0.1,0.6-0.2l0.7,0.4c-0.5,0.8-1,1.5-1.4,2.1l-0.6-0.3c0-0.2,0-0.4-0.1-0.6l-0.2-0.4c-0.3-0.7-1-0.7-1.4-0.1l-0.3,0.4
	c-0.3,0.7,0,1.2,0.7,1.3h0.4c0.3,0,0.4-0.1,0.6-0.2l0.6,0.4c-0.6,0.8-1,1.2-1,1.2c0.5,1.3-0.1,2.9-0.1,2.9l-23.3,31.9
	c-0.7-0.6-4.6-3.8-9-3.1c-4.9,0.8-6.3,5.5-7,9.1c-0.8,3.6-2.6,4.3-7.8,6c-5.2,1.5-19.5,11.1-8.1,24.8l0,0c0,0,0,0,0.1,0.1
	c0.1,0.1,0.1,0.2,0.2,0.2l0.1,0.1c1.4,1.5,6.9,6.9,13.4,8.8h0.1c16.6,5.4,20.2-11.3,19.8-16.7c-0.4-5.4-0.4-7.4,2.7-9.4s7-5.1,6-9.9
	c-0.9-4-4.8-6.5-6-7.1l22.2-32.5c0,0,0.5-0.6,2.4-0.9c0,0,0.3-0.6,0.9-1.6l0.5,0.4c0,0.2,0,0.4,0.1,0.6l0.1,0.4
	c0.3,0.7,0.9,0.8,1.4,0.2l0.3-0.4c0.5-0.6,0.2-1.2-0.6-1.3H810c-0.3,0-0.4,0-0.6,0.1l-0.5-0.4c0.4-0.6,0.8-1.3,1.4-2.1l0.6,0.4
	c0,0.2,0,0.4,0.1,0.6l0.2,0.4c0.3,0.7,0.9,0.8,1.4,0.2l0.3-0.4c0.5-0.6,0.2-1.2-0.6-1.3h-0.4c-0.3,0-0.4,0-0.6,0.1l-0.6-0.4
	c0.5-0.6,1-1.3,1.5-2l0.5,0.4c0,0.2,0,0.4,0.1,0.6l0.2,0.4c0.3,0.7,0.9,0.8,1.4,0.2l0.3-0.4C815,176.8,814.7,176.3,814,176.2z
	 M772.6,221.1c2.7,0,4.9,2.2,4.9,4.9c0,2.7-2.2,4.9-4.9,4.9c-2.7,0-4.9-2.2-4.9-4.9C767.7,223.3,769.9,221.1,772.6,221.1z
	 M770,240.1l-0.6,0.9c-0.2,0.3-0.6,0.3-0.8,0.1l-0.6-0.4c-0.8-0.5-1.9-0.1-2.7-0.3c-1-0.3-3.2-1.9-3.7-2.7c-0.4-0.7-0.4-2-1.2-2.5
	l0,0l-0.5-0.4c-0.3-0.2-0.3-0.6-0.1-0.8l0.6-0.9c0.2-0.3,0.6-0.3,0.8-0.1l8.8,6.4C770.2,239.4,770.2,239.8,770,240.1z M778.8,234.2
	c-0.1,1.2,1.6,6.5-3.4,8.6c0,0-0.6-2.3-4.4-4.4c-2.8-1.6-0.7-4.9,0.4-5.7c0,0,5.9,1.7,8.1-5.8c0,0,1.7,0.8,1.2,3.8
	c-0.1,0.2-0.2,0.9,0.2,1.7C780.9,232.4,779,232.9,778.8,234.2z"/>
<g class="st0">
	<path class="st1" d="M21.8,326.8l4.4,28c0,0-5.1,8-10,11.7c-0.5,0.4-1,0.6-1.6,0.8l-1.2,0.4c-1.4,0.5-3,0.5-4.4,0
		c-2.4-0.8-6.3-1.7-8.5,0.3c-3.3,2.9,13.2,8.6,17,8.3c3.8-0.3,14.6-4.5,14.6-4.5v4h12l3.2-6.7l-1.4-12.5l1.4-2.6l1-27.3l-5.3-2.1
		c-5.6-2.2-11.9-2.1-17.4,0.4L21.8,326.8z"/>
	<path class="st4" d="M22.4,359.9c-1.8,2.3-4.1,4.8-6.3,6.5c-0.5,0.4-1,0.6-1.6,0.8l-1.2,0.4c-1.4,0.5-3,0.5-4.4,0
		c-2.4-0.8-6.3-1.7-8.5,0.3c0,0,8.5,2.1,10.6,2.1c5.5,0.1,18.7-9.6,18.7-9.6L22.4,359.9z"/>
	<path class="st5" d="M45.9,356.4l1.2-2.4l1-27.3l-5.3-2.1c-5.6-2.2-11.9-2.1-17.4,0.4l-3.7,1.7l4.4,28l-3.9,5.3l12.7,3.8
		L45.9,356.4z"/>
	<polygon class="st6" points="30,362.3 25.5,325.1 21.8,326.8 26.2,354.7 22.3,360 	"/>
	<path class="st5" d="M47.1,369H35.1c-1.9,0-3.8,0.3-5.6,0.9c-3.1,1.1-11,3.8-11,3.8c-8.3,1.1-18-5.8-18-5.8
		c-3.3,2.9,13.2,8.6,17,8.3c3.8-0.3,14.6-4.5,14.6-4.5v4h12l3.2-6.7L47.1,369z"/>
	<path class="st6" d="M34.9,369c-1,0-1.9,0.1-2.9,0.3v6.5h2.9V369z"/>
	<path class="st6" d="M13.4,373.6c-6.8-1.2-13-5.7-13-5.7c-3.3,2.9,13,8.6,16.9,8.3C17.3,376.3,14.7,373.8,13.4,373.6z"/>
	<rect x="34.4" y="326.5" class="st1" width="1.1" height="35.4"/>
	<g>
		<path class="st5" d="M35.7,362.1l-5.4-2.4c-1.4-0.6-2.7-1.6-3.8-2.8c-0.6-0.6-1.4-1.1-2.3-1.1l-3.3,4.8c0.5,1.2,1.7,2.1,3.1,2.1
			c0,0,0,0,0,0c1.7,0,3.3,0.3,4.9,1l5.1,2.3c1,0.5,2.3,0,2.7-1l0,0C37.2,363.8,36.8,362.6,35.7,362.1z"/>
	</g>
	<g>
		<path class="st5" d="M51.5,363.3C51.5,363.3,51.5,363.3,51.5,363.3c-0.1-0.4-0.5-0.7-1-0.6c-4.4,0.8-10.2,1.1-14.7,0.6l-0.4,1.5
			c4.5,0.5,10.9,0.3,15.4-0.6C51.3,364.1,51.6,363.7,51.5,363.3z"/>
	</g>
	<g>
		<path class="st1" d="M52.8,358.9c0,0.2-0.2,0.4-0.4,0.4c-0.2,0-0.4-0.2-0.4-0.4c0-0.2,0.2-0.4,0.4-0.4
			C52.7,358.5,52.8,358.7,52.8,358.9z"/>
		<path class="st1" d="M55.6,360.8c0,0.2-0.2,0.4-0.4,0.4c-0.2,0-0.4-0.2-0.4-0.4c0-0.2,0.2-0.4,0.4-0.4
			C55.4,360.4,55.6,360.6,55.6,360.8z"/>
		<path class="st1" d="M56.2,364.1c0,0.2-0.2,0.4-0.4,0.4c-0.2,0-0.4-0.2-0.4-0.4c0-0.2,0.2-0.4,0.4-0.4
			C56,363.7,56.2,363.9,56.2,364.1z"/>
		<path class="st1" d="M54.3,366.9c0,0.2-0.2,0.4-0.4,0.4c-0.2,0-0.4-0.2-0.4-0.4c0-0.2,0.2-0.4,0.4-0.4
			C54.1,366.5,54.3,366.7,54.3,366.9z"/>
		<path class="st1" d="M51,367.5c0,0.2-0.2,0.4-0.4,0.4c-0.2,0-0.4-0.2-0.4-0.4c0-0.2,0.2-0.4,0.4-0.4C50.8,367.1,51,367.3,51,367.5
			z"/>
		<path class="st1" d="M48.3,365.6c0,0.2-0.2,0.4-0.4,0.4c-0.2,0-0.4-0.2-0.4-0.4c0-0.2,0.2-0.4,0.4-0.4
			C48.1,365.2,48.3,365.4,48.3,365.6z"/>
		<path class="st1" d="M47.7,362.3c0,0.2-0.2,0.4-0.4,0.4c-0.2,0-0.4-0.2-0.4-0.4c0-0.2,0.2-0.4,0.4-0.4
			C47.5,361.9,47.7,362.1,47.7,362.3z"/>
		<path class="st1" d="M49.6,359.5c0,0.2-0.2,0.4-0.4,0.4c-0.2,0-0.4-0.2-0.4-0.4c0-0.2,0.2-0.4,0.4-0.4
			C49.4,359.1,49.6,359.3,49.6,359.5z"/>
		<path class="st1" d="M52.5,359.4l0.1,2.1c0,0.1,0.1,0.2,0.2,0.2l2-0.7c0.2-0.1,0.3,0.2,0.2,0.3l-1.4,1.5c-0.1,0.1-0.1,0.2,0.1,0.3
			l1.9,0.9c0.2,0.1,0.1,0.3-0.1,0.4l-2.1,0.1c-0.1,0-0.2,0.1-0.2,0.2l0.7,2c0.1,0.2-0.2,0.3-0.3,0.2l-1.5-1.4
			c-0.1-0.1-0.2-0.1-0.3,0.1l-0.9,1.9c-0.1,0.2-0.3,0.1-0.4-0.1l-0.1-2.1c0-0.1-0.1-0.2-0.2-0.2l-2,0.7c-0.2,0.1-0.3-0.2-0.2-0.3
			l1.4-1.5c0.1-0.1,0.1-0.2-0.1-0.3l-1.9-0.9c-0.2-0.1-0.1-0.3,0.1-0.4l2.1-0.1c0.1,0,0.2-0.1,0.2-0.2l-0.7-2
			c-0.1-0.2,0.2-0.3,0.3-0.2l1.5,1.4c0.1,0.1,0.2,0.1,0.3-0.1l0.9-1.9C52.3,359.1,52.5,359.2,52.5,359.4z"/>
	</g>
	<path class="st1" d="M38.1,363.8c0,1.7-1.4,3.1-3.1,3.1c-1.7,0-3.1-1.4-3.1-3.1s1.4-3.1,3.1-3.1C36.7,360.6,38.1,362,38.1,363.8z"
		/>
	<rect x="32.7" y="322" class="st5" width="4.3" height="7.5"/>
	<path class="st5" d="M36.1,363.8c0,0.7-0.5,1.2-1.2,1.2c-0.7,0-1.2-0.5-1.2-1.2c0-0.7,0.5-1.2,1.2-1.2
		C35.6,362.5,36.1,363.1,36.1,363.8z"/>
	<g>
		<path class="st1" d="M46.5,328.1c0,0.3-0.2,0.5-0.5,0.5s-0.5-0.2-0.5-0.5c0-0.3,0.2-0.5,0.5-0.5C46.3,327.6,46.5,327.8,46.5,328.1
			z"/>
		<path class="st1" d="M46.4,330.2c0,0.3-0.2,0.5-0.5,0.5c-0.3,0-0.5-0.2-0.5-0.5c0-0.3,0.2-0.5,0.5-0.5
			C46.2,329.7,46.4,329.9,46.4,330.2z"/>
		<path class="st1" d="M46.3,332.3c0,0.3-0.2,0.5-0.5,0.5c-0.3,0-0.5-0.2-0.5-0.5c0-0.3,0.2-0.5,0.5-0.5S46.4,332,46.3,332.3z"/>
		<path class="st1" d="M46.3,334.4c0,0.3-0.2,0.5-0.5,0.5c-0.3,0-0.5-0.2-0.5-0.5c0-0.3,0.2-0.5,0.5-0.5
			C46.1,333.9,46.3,334.1,46.3,334.4z"/>
		<path class="st1" d="M46.2,336.5c0,0.3-0.2,0.5-0.5,0.5c-0.3,0-0.5-0.2-0.5-0.5c0-0.3,0.2-0.5,0.5-0.5
			C46,336,46.2,336.2,46.2,336.5z"/>
		<path class="st1" d="M46.1,338.6c0,0.3-0.2,0.5-0.5,0.5s-0.5-0.2-0.5-0.5c0-0.3,0.2-0.5,0.5-0.5S46.1,338.3,46.1,338.6z"/>
		<path class="st1" d="M46,340.7c0,0.3-0.2,0.5-0.5,0.5s-0.5-0.2-0.5-0.5c0-0.3,0.2-0.5,0.5-0.5S46,340.4,46,340.7z"/>
		<path class="st1" d="M45.9,342.8c0,0.3-0.2,0.5-0.5,0.5c-0.3,0-0.5-0.2-0.5-0.5c0-0.3,0.2-0.5,0.5-0.5S46,342.5,45.9,342.8z"/>
		<path class="st1" d="M45.9,344.9c0,0.3-0.2,0.5-0.5,0.5c-0.3,0-0.5-0.2-0.5-0.5s0.2-0.5,0.5-0.5C45.7,344.4,45.9,344.6,45.9,344.9
			z"/>
		<path class="st1" d="M45.8,347c0,0.3-0.2,0.5-0.5,0.5c-0.3,0-0.5-0.2-0.5-0.5c0-0.3,0.2-0.5,0.5-0.5
			C45.6,346.5,45.8,346.7,45.8,347z"/>
		<path class="st1" d="M45.7,349.1c0,0.3-0.2,0.5-0.5,0.5c-0.3,0-0.5-0.2-0.5-0.5s0.2-0.5,0.5-0.5C45.5,348.6,45.7,348.9,45.7,349.1
			z"/>
		<path class="st1" d="M45.6,351.2c0,0.3-0.2,0.5-0.5,0.5c-0.3,0-0.5-0.2-0.5-0.5c0-0.3,0.2-0.5,0.5-0.5S45.6,351,45.6,351.2z"/>
		<path class="st1" d="M45.6,353.3c0,0.3-0.2,0.5-0.5,0.5s-0.5-0.2-0.5-0.5c0-0.3,0.2-0.5,0.5-0.5C45.4,352.8,45.6,353.1,45.6,353.3
			z"/>
	</g>
	<g>
		<path class="st1" d="M45.1,355.8c-0.2,0.1-0.5,0.1-0.7-0.1c-0.1-0.2-0.1-0.5,0.1-0.7c0.2-0.1,0.5-0.1,0.7,0.1
			C45.4,355.4,45.3,355.7,45.1,355.8z"/>
		<path class="st1" d="M43.4,357c-0.2,0.1-0.5,0.1-0.7-0.1c-0.1-0.2-0.1-0.5,0.1-0.7c0.2-0.1,0.5-0.1,0.7,0.1
			C43.7,356.6,43.6,356.9,43.4,357z"/>
		<path class="st1" d="M41.6,358.2c-0.2,0.1-0.5,0.1-0.7-0.1c-0.1-0.2-0.1-0.5,0.1-0.7c0.2-0.1,0.5-0.1,0.7,0.1
			C41.9,357.7,41.9,358,41.6,358.2z"/>
		<path class="st1" d="M39.9,359.4c-0.2,0.1-0.5,0.1-0.7-0.1c-0.1-0.2-0.1-0.5,0.1-0.7c0.2-0.1,0.5-0.1,0.7,0.1
			C40.2,358.9,40.1,359.2,39.9,359.4z"/>
		<path class="st1" d="M38.1,360.5c-0.2,0.1-0.5,0.1-0.7-0.1c-0.1-0.2-0.1-0.5,0.1-0.7c0.2-0.1,0.5-0.1,0.7,0.1
			C38.4,360.1,38.4,360.4,38.1,360.5z"/>
	</g>
</g>
<g class="st0">
	<path class="st1" d="M1151.6,632.1l4.5-1.4l-2.1-7.2l-14.9,3.6l1.3,8.6c0.1,0.1,9.8,9.7,13.4,22c5.1,17.5-9.5,23.2-14.1,24.6
		c-4.6,1.3-20,4.4-25.1-13.1c-3.6-12.3-0.7-25.6-0.6-25.8l-3.5-8l-14.5,5l2.1,7.2l4.6-1.2c-0.7,5.9-1.2,15.9,1.7,25.7
		c5.1,17.4,20.5,25.6,38.4,20.4c17.8-5.2,26.4-20.4,21.3-37.9C1161.2,644.9,1155.4,636.7,1151.6,632.1z M1142.4,691.5
		c-17.2,5-32-2.8-37-19.6c-2.8-9.4-2.4-18.9-1.6-25.3c0-0.4-0.1-0.8-0.4-1c-0.3-0.2-0.7-0.3-1-0.2l-3.5,0.9l-1.5-5.1l12.4-4.3
		l2.9,6.7c-0.5,2.3-2.6,14.6,0.7,26c2.3,7.9,6.9,12.7,13.6,14.4c5.3,1.3,10.4,0.2,13-0.5c2.6-0.8,7.5-2.6,11.2-6.6
		c4.7-5,6-11.6,3.6-19.5c-3.3-11.4-11.8-20.6-13.4-22.3l-1.1-7.2l12.8-3.1l1.5,5.1l-3.5,1.1c-0.4,0.1-0.6,0.4-0.8,0.8
		c-0.1,0.4,0,0.8,0.2,1.1c4.1,4.9,9.5,12.8,12.3,22.2C1167.8,671.8,1159.6,686.4,1142.4,691.5z"/>
	<path class="st7" d="M1150.7,632.8c-0.2-0.3-0.3-0.7-0.2-1.1c0.1-0.4,0.4-0.7,0.8-0.8l3.5-1.1l-1.5-5.1l-12.8,3.1l1.1,7.2
		c1.6,1.7,10.1,10.9,13.4,22.3c2.3,7.9,1.1,14.4-3.6,19.5c-3.7,3.9-8.6,5.8-11.2,6.6c-2.6,0.8-7.7,1.8-13,0.5
		c-6.7-1.7-11.3-6.5-13.6-14.4c-3.3-11.4-1.2-23.7-0.7-26l-2.9-6.7l-12.4,4.3l1.5,5.1l3.5-0.9c0.4-0.1,0.8,0,1,0.2
		c0.3,0.2,0.4,0.6,0.4,1c-0.8,6.4-1.1,15.9,1.6,25.3c4.9,16.8,19.8,24.6,37,19.6c17.2-5,25.4-19.7,20.5-36.4
		C1160.2,645.6,1154.7,637.8,1150.7,632.8z M1107.1,640.3c1.2-0.3,2.4,0.3,2.7,1.5c0.3,1.2-0.3,2.4-1.5,2.7
		c-1.2,0.3-2.4-0.3-2.7-1.5C1105.3,641.8,1105.9,640.6,1107.1,640.3z M1108.8,666.1c-1.2,0.3-2.4-0.3-2.7-1.5
		c-0.3-1.2,0.3-2.4,1.5-2.7c1.2-0.3,2.4,0.3,2.7,1.5C1110.6,664.5,1110,665.7,1108.8,666.1z M1119.3,686.5c-1.2,0.3-2.4-0.3-2.7-1.5
		c-0.3-1.2,0.3-2.4,1.5-2.7c1.2-0.3,2.4,0.3,2.7,1.5C1121.1,684.9,1120.5,686.1,1119.3,686.5z M1141.9,689.7
		c-1.2,0.3-2.4-0.3-2.7-1.5c-0.3-1.2,0.3-2.4,1.5-2.7c1.2-0.3,2.4,0.3,2.7,1.5C1143.7,688.1,1143,689.3,1141.9,689.7z M1145.7,633.5
		c-1.2,0.3-2.4-0.3-2.7-1.5c-0.3-1.2,0.3-2.4,1.5-2.7c1.2-0.3,2.4,0.3,2.7,1.5C1147.6,631.9,1146.9,633.1,1145.7,633.5z
		 M1159.1,674.8c-1.2,0.3-2.4-0.3-2.7-1.5c-0.3-1.2,0.3-2.4,1.5-2.7c1.2-0.3,2.4,0.3,2.7,1.5
		C1160.9,673.2,1160.3,674.4,1159.1,674.8z M1157,651.9c-1.2,0.3-2.4-0.3-2.7-1.5c-0.3-1.2,0.3-2.4,1.5-2.7c1.2-0.3,2.4,0.3,2.7,1.5
		C1158.8,650.4,1158.1,651.6,1157,651.9z"/>
</g>
<g class="st0">
	<path class="st1" d="M1347.6,100.1c-1.4,0-0.1,9.5-1.9,9.5c-0.9,0-1.1-2.1-2.2-2.1c-1.1,0-1.3,3.1-0.5,6.6c0.8,3.5,3.2,7.4,1.8,7.8
		c-1.3,0.4-5.7-7.8-6.6-11.3c-0.9-3.5-1.1-8.1-1.1-11.4c-0.7-0.7-1.4-1.9-2.2-3.6c-1.7-4.1,0-6,2-8.4c-2.4-0.3-5.5-1-8.6-2.2
		c-5.3-2.1-9.6-6.1-12.4-7.6c-4.6-2.4-10-0.8-10-1.8c0-1,3.5-2.7,8.4-2.2c5.3,0.5,11.2,4.5,15.8,6.2c3.9,1.4,7.1,1.3,11.7,1.3
		c1.6-1.5,3.4-2.5,5.8-2.5s4.2,1,5.8,2.5c4.6,0.1,7.8,0.2,11.7-1.3c4.7-1.7,10.6-5.7,15.8-6.2c4.9-0.5,8.4,1.2,8.4,2.2
		c0,1-5.4-0.6-10,1.8c-2.9,1.5-7.1,5.5-12.4,7.6c-3.1,1.2-6.2,1.9-8.6,2.2c2,2.4,3.7,4.2,2,8.4c-0.7,1.8-1.5,2.9-2.2,3.6
		c0,3.3-0.2,7.9-1.1,11.4c-0.9,3.4-5.3,11.7-6.6,11.3c-1.3-0.4,1-4.4,1.8-7.8c0.8-3.5,0.6-6.6-0.5-6.6c-1.1,0-1.3,2.1-2.2,2.1
		C1347.7,109.6,1349,100.1,1347.6,100.1z"/>
	<path class="st7" d="M1342.5,91.1c-0.5-0.5-3.8,4.5-6.5,6.6c0.4,0.7,0.8,1.2,1.1,1.6c0,1.2,0,2.5,0.1,3.9
		C1340.4,99.8,1343.1,91.7,1342.5,91.1z M1323.7,80.2c-4.1-2.6-6.4-3.3-7.4-2.5c2.8,1.6,7,5.4,12.1,7.4c3.1,1.2,6.2,1.9,8.6,2.2
		C1343.3,82.6,1330.9,84.8,1323.7,80.2z M1343.5,107.5c1.1,0,1.3,2.1,2.2,2.1c-0.3-2.3-1-3.4-2.3-3.4c-1.4,0-3.7,1.4-2.2,6.6
		c1.2,4.2,2.3,7.3,3.9,9c0.7-0.9-1.3-4.5-2.1-7.7C1342.2,110.6,1342.4,107.5,1343.5,107.5z M1381.1,75.5c-7.4,0.7-11.4,6.7-18.6,8.1
		c-2.2,0.5-5.9,1.1-6.8,2c-0.3,0.3-0.5,0.7-0.6,1c-6.5-0.3,1.1,11.5,0.6,19.2c-0.4,7.8-3,12.2-5.4,16.1c0,0,0.1,0,0.1,0.1
		c1.4,0.4,5.7-7.8,6.6-11.3c0.9-3.5,1.1-8.1,1.1-11.4c0.7-0.7,1.4-1.9,2.2-3.6c1.7-4.1,0-6-2-8.4c2.4-0.3,5.5-1,8.6-2.2
		c5.3-2.1,9.6-6.1,12.4-7.6c4.5-2.3,9.9-0.8,10-1.7C1387.7,75.3,1385.1,75.1,1381.1,75.5z"/>
</g>
</svg>
