<?xml version="1.0" encoding="utf-8"?>
<!-- Generator: Adobe Illustrator 22.1.0, SVG Export Plug-In . SVG Version: 6.00 Build 0)  -->
<svg version="1.1" id="Layer_1" xmlns="http://www.w3.org/2000/svg" xmlns:xlink="http://www.w3.org/1999/xlink" x="0px" y="0px"
	 viewBox="0 0 1261.4 768.4" style="enable-background:new 0 0 1261.4 768.4;" xml:space="preserve">
<style type="text/css">
	.st0{opacity:0.21;}
	.st1{fill:#FFFFFF;}
	.st2{opacity:0.21;fill:#FFFFFF;}
</style>
<g class="st0">
	<g>
		<path class="st1" d="M1007.4,70.4c0,10.7,5.9,15.4,8.3,16.8c2.4-1.4,8.3-6,8.3-16.8c0-8.9-3.9-19.7-7-26.8c-0.4-1-2.1-1.1-2.5-0.1
			C1011.3,50.5,1007.4,61.5,1007.4,70.4z"/>
		<path class="st1" d="M1022.6,92.3c1.4,1,4.6,2.7,9.3,2.7c3,0,6.2-0.8,9.4-2.2c8.4-3.9,16.9-12.5,22-18.3c0.5-0.6,0.7-1.7-0.5-1.7
			c-7.7,0.2-19.9,1-28.4,4.9C1024.6,82.3,1022.9,89.6,1022.6,92.3z"/>
		<path class="st1" d="M1028.9,70.4c0,1.8-0.1,3.5-0.4,5c1.2-0.7,2.4-1.4,3.8-2.1c1.8-0.8,3.7-1.5,5.6-2.1
			c2.4-5.4,4.1-11.2,5.1-15.8c0.3-1.3-0.4-2-1.2-1.6c-4,2.1-9.1,5.5-13.6,9.4C1028.6,65.6,1028.9,68,1028.9,70.4z"/>
		<path class="st1" d="M989.9,92.8c3.2,1.5,6.4,2.2,9.4,2.2c4.6,0,7.8-1.7,9.3-2.7c-0.3-2.7-2-10-11.7-14.5
			c-8.2-3.8-20.3-4.8-28-4.9c-1,0-1.3,1.2-0.8,1.8C973.1,80.4,981.6,88.9,989.9,92.8z"/>
		<path class="st1" d="M990,52.1c0.5,5.4,1.6,12.8,3.8,19.2c1.8,0.6,3.5,1.2,5.1,1.9c1.4,0.6,2.7,1.3,3.8,2.1
			c-0.2-1.5-0.4-3.2-0.4-5c0-2.8,0.3-5.7,0.9-8.6c-4-4.3-8.5-8.2-12-10.8C990.3,50.2,990,51.3,990,52.1z"/>
		<path class="st1" d="M1051.4,131.8c-2.8-7.2-7.8-17.9-14.2-24.3c-5.3-5.3-10.5-6.4-14-6.4c-1.6,0-2.9,0.2-3.7,0.4
			c-0.7,2.7-1.6,10.1,6,17.7c6.5,6.5,17.4,11.4,24.5,14.2C1050.9,133.7,1051.8,132.6,1051.4,131.8z"/>
		<path class="st1" d="M1043.4,97.3c-2.6,1.2-5.3,2-7.9,2.4c1.7,1.1,3.5,2.5,5.2,4.2c0.6,0.6,1.2,1.2,1.8,1.9
			c6.3,0,12.8-1.2,17.6-2.1c1.3-0.3,1.3-1.1,0.8-1.5c-3.3-2.3-7.8-5.3-12.6-7.7C1046.7,95.6,1045.1,96.5,1043.4,97.3z"/>
		<path class="st1" d="M1023.3,123.8c-0.4-0.4-0.9-0.8-1.3-1.2c-3.3-3.3-5.3-6.5-6.4-9.6c-1.1,2.8-2.9,5.9-5.8,9
			c1.5,7.3,3.5,13.7,6,19.1c0.5,1.1,1.9,1.2,2.4,0.1C1020.4,136.6,1022.8,129.5,1023.3,123.8z"/>
		<path class="st1" d="M988.1,105.6c0.3,0,0.5,0,0.8,0c0.5-0.6,1-1.1,1.5-1.6c1.7-1.7,3.5-3.1,5.2-4.2c-2.6-0.4-5.2-1.2-7.9-2.4
			c-2.2-1-4.5-2.4-6.7-3.9c-4.9,2.1-9.7,4.7-13.3,7c-0.8,0.5-0.6,1.9,0.6,2.2C973.9,104,981.4,105.6,988.1,105.6L988.1,105.6
			L988.1,105.6z"/>
		<path class="st1" d="M1011.7,101.4c-0.8-0.2-2.1-0.4-3.7-0.4c-3.5,0-8.7,1.1-14,6.4c-6.3,6.3-11.2,16.9-14,24
			c-0.4,1,0.7,2.1,1.7,1.7c7.1-2.8,17.7-7.7,24-14C1013.3,111.5,1012.4,104.1,1011.7,101.4z"/>
	</g>
	<g>
		<g>
			<circle class="st1" cx="1011.7" cy="92.7" r="1.9"/>
		</g>
		<g>
			<circle class="st1" cx="1018.8" cy="92.7" r="1.9"/>
		</g>
	</g>
	<g>
		<circle class="st1" cx="1015.2" cy="98.2" r="1.9"/>
	</g>
</g>
<g class="st0">
	<g>
		<path class="st1" d="M394.1,544.1c0,5.8,3.2,8.3,4.5,9.1c1.3-0.8,4.5-3.2,4.5-9.1c0-4.8-2.1-10.7-3.8-14.5c-0.2-0.6-1.1-0.6-1.4,0
			C396.3,533.3,394.1,539.2,394.1,544.1z"/>
		<path class="st1" d="M402.4,555.9c0.8,0.5,2.5,1.5,5,1.5c1.6,0,3.4-0.4,5.1-1.2c4.5-2.1,9.2-6.8,11.9-9.9c0.3-0.3,0.4-0.9-0.3-0.9
			c-4.2,0.1-10.8,0.5-15.4,2.7C403.4,550.5,402.5,554.5,402.4,555.9z"/>
		<path class="st1" d="M405.7,544.1c0,1-0.1,1.9-0.2,2.7c0.6-0.4,1.3-0.8,2.1-1.1c1-0.4,2-0.8,3-1.1c1.3-2.9,2.2-6.1,2.7-8.5
			c0.1-0.7-0.2-1.1-0.7-0.9c-2.2,1.1-4.9,3-7.3,5.1C405.6,541.5,405.7,542.8,405.7,544.1z"/>
		<path class="st1" d="M384.7,556.2c1.7,0.8,3.5,1.2,5.1,1.2c2.5,0,4.2-0.9,5-1.5c-0.2-1.5-1.1-5.4-6.4-7.9
			c-4.4-2.1-11-2.6-15.2-2.7c-0.5,0-0.7,0.7-0.4,1C375.6,549.5,380.1,554.1,384.7,556.2z"/>
		<path class="st1" d="M384.7,534.2c0.3,2.9,0.9,6.9,2.1,10.4c1,0.3,1.9,0.6,2.8,1.1c0.8,0.4,1.4,0.7,2.1,1.1
			c-0.1-0.8-0.2-1.7-0.2-2.7c0-1.5,0.2-3.1,0.5-4.7c-2.1-2.3-4.6-4.4-6.5-5.8C384.9,533.2,384.7,533.7,384.7,534.2z"/>
		<path class="st1" d="M418,577.3c-1.5-3.9-4.2-9.7-7.7-13.2c-2.9-2.9-5.7-3.5-7.6-3.5c-0.9,0-1.6,0.1-2,0.2
			c-0.4,1.4-0.9,5.5,3.3,9.6c3.5,3.5,9.4,6.2,13.3,7.7C417.7,578.3,418.1,577.8,418,577.3z"/>
		<path class="st1" d="M413.6,558.6c-1.4,0.7-2.8,1.1-4.3,1.3c0.9,0.6,1.9,1.3,2.8,2.3c0.3,0.3,0.7,0.7,1,1c3.4,0,6.9-0.6,9.5-1.1
			c0.7-0.1,0.7-0.6,0.4-0.8c-1.8-1.3-4.2-2.9-6.8-4.2C415.4,557.7,414.5,558.2,413.6,558.6z"/>
		<path class="st1" d="M402.7,573c-0.2-0.2-0.5-0.4-0.7-0.6c-1.8-1.8-2.8-3.5-3.5-5.2c-0.6,1.5-1.6,3.2-3.1,4.8
			c0.8,3.9,1.9,7.4,3.3,10.4c0.3,0.6,1,0.6,1.3,0.1C401.2,579.9,402.5,576.1,402.7,573z"/>
		<path class="st1" d="M383.7,563.1c0.2,0,0.3,0,0.4,0c0.3-0.3,0.5-0.6,0.8-0.9c0.9-0.9,1.9-1.7,2.8-2.3c-1.4-0.2-2.8-0.7-4.3-1.3
			c-1.2-0.6-2.4-1.3-3.6-2.1c-2.7,1.1-5.2,2.6-7.2,3.8c-0.4,0.3-0.4,1,0.3,1.2C376,562.3,380,563.1,383.7,563.1L383.7,563.1
			L383.7,563.1z"/>
		<path class="st1" d="M396.5,560.9c-0.4-0.1-1.1-0.2-2-0.2c-1.9,0-4.7,0.6-7.6,3.5c-3.4,3.4-6.1,9.1-7.6,13
			c-0.2,0.5,0.4,1.1,0.9,0.9c3.9-1.5,9.6-4.2,13-7.6C397.3,566.3,396.8,562.3,396.5,560.9z"/>
	</g>
	<g>
		<g>
			<circle class="st1" cx="396.4" cy="556.2" r="1"/>
		</g>
		<g>
			<circle class="st1" cx="400.3" cy="556.2" r="1"/>
		</g>
	</g>
	<g>
		<circle class="st1" cx="398.4" cy="559.1" r="1"/>
	</g>
</g>
<g class="st0">
	<g>
		<path class="st1" d="M99.7,14.9c0,5.8,3.2,8.3,4.5,9.1c1.3-0.8,4.5-3.2,4.5-9.1c0-4.8-2.1-10.7-3.8-14.5c-0.2-0.6-1.1-0.6-1.4,0
			C101.9,4.2,99.7,10.1,99.7,14.9z"/>
		<path class="st1" d="M108,26.8c0.8,0.5,2.5,1.5,5,1.5c1.6,0,3.4-0.4,5.1-1.2c4.5-2.1,9.2-6.8,11.9-9.9c0.3-0.3,0.4-0.9-0.3-0.9
			c-4.2,0.1-10.8,0.5-15.4,2.7C109.1,21.4,108.2,25.3,108,26.8z"/>
		<path class="st1" d="M111.4,14.9c0,1-0.1,1.9-0.2,2.7c0.6-0.4,1.3-0.8,2.1-1.1c1-0.4,2-0.8,3-1.1c1.3-2.9,2.2-6.1,2.7-8.5
			c0.1-0.7-0.2-1.1-0.7-0.9c-2.2,1.1-4.9,3-7.3,5.1C111.3,12.4,111.4,13.7,111.4,14.9z"/>
		<path class="st1" d="M90.3,27.1c1.7,0.8,3.5,1.2,5.1,1.2c2.5,0,4.2-0.9,5-1.5c-0.2-1.5-1.1-5.4-6.4-7.9c-4.4-2.1-11-2.6-15.2-2.7
			c-0.5,0-0.7,0.7-0.4,1C81.2,20.4,85.8,25,90.3,27.1z"/>
		<path class="st1" d="M90.4,5.1c0.3,2.9,0.9,6.9,2.1,10.4c1,0.3,1.9,0.6,2.8,1.1c0.8,0.4,1.4,0.7,2.1,1.1c-0.1-0.8-0.2-1.7-0.2-2.7
			c0-1.5,0.2-3.1,0.5-4.7c-2.1-2.3-4.6-4.4-6.5-5.8C90.5,4,90.3,4.6,90.4,5.1z"/>
		<path class="st1" d="M123.6,48.2c-1.5-3.9-4.2-9.7-7.7-13.2c-2.9-2.9-5.7-3.5-7.6-3.5c-0.9,0-1.6,0.1-2,0.2
			c-0.4,1.4-0.9,5.5,3.3,9.6c3.5,3.5,9.4,6.2,13.3,7.7C123.3,49.2,123.8,48.7,123.6,48.2z"/>
		<path class="st1" d="M119.2,29.5c-1.4,0.7-2.8,1.1-4.3,1.3c0.9,0.6,1.9,1.3,2.8,2.3c0.3,0.3,0.7,0.7,1,1c3.4,0,6.9-0.6,9.5-1.1
			c0.7-0.1,0.7-0.6,0.4-0.8c-1.8-1.3-4.2-2.9-6.8-4.2C121,28.6,120.1,29.1,119.2,29.5z"/>
		<path class="st1" d="M108.4,43.9c-0.2-0.2-0.5-0.4-0.7-0.6c-1.8-1.8-2.8-3.5-3.5-5.2c-0.6,1.5-1.6,3.2-3.1,4.8
			c0.8,3.9,1.9,7.4,3.3,10.4c0.3,0.6,1,0.6,1.3,0.1C106.8,50.8,108.1,47,108.4,43.9z"/>
		<path class="st1" d="M89.3,34c0.2,0,0.3,0,0.4,0c0.3-0.3,0.5-0.6,0.8-0.9c0.9-0.9,1.9-1.7,2.8-2.3c-1.4-0.2-2.8-0.7-4.3-1.3
			c-1.2-0.6-2.4-1.3-3.6-2.1c-2.7,1.1-5.2,2.6-7.2,3.8c-0.4,0.3-0.4,1,0.3,1.2C81.7,33.1,85.7,34,89.3,34L89.3,34L89.3,34z"/>
		<path class="st1" d="M102.1,31.8c-0.4-0.1-1.1-0.2-2-0.2c-1.9,0-4.7,0.6-7.6,3.5c-3.4,3.4-6.1,9.1-7.6,13
			c-0.2,0.5,0.4,1.1,0.9,0.9c3.9-1.5,9.6-4.2,13-7.6C103,37.2,102.5,33.2,102.1,31.8z"/>
	</g>
	<g>
		<g>
			<circle class="st1" cx="102.1" cy="27" r="1"/>
		</g>
		<g>
			<circle class="st1" cx="105.9" cy="27" r="1"/>
		</g>
	</g>
	<g>
		<circle class="st1" cx="104" cy="30" r="1"/>
	</g>
</g>
<g class="st0">
	<g>
		<path class="st1" d="M83.8,641.6c0,4.9,2.7,7,3.8,7.6c1.1-0.6,3.8-2.7,3.8-7.6c0-4-1.8-9-3.2-12.2c-0.2-0.5-0.9-0.5-1.1,0
			C85.7,632.6,83.8,637.6,83.8,641.6z"/>
		<path class="st1" d="M90.8,651.6c0.7,0.4,2.1,1.2,4.2,1.2c1.4,0,2.8-0.3,4.3-1c3.8-1.8,7.7-5.7,10-8.3c0.2-0.3,0.3-0.8-0.2-0.8
			c-3.5,0.1-9.1,0.5-12.9,2.2C91.7,647.1,90.9,650.4,90.8,651.6z"/>
		<path class="st1" d="M93.6,641.6c0,0.8-0.1,1.6-0.2,2.3c0.5-0.3,1.1-0.7,1.7-0.9c0.8-0.4,1.7-0.7,2.6-1c1.1-2.4,1.9-5.1,2.3-7.2
			c0.1-0.6-0.2-0.9-0.5-0.7c-1.8,0.9-4.1,2.5-6.2,4.3C93.5,639.5,93.6,640.6,93.6,641.6z"/>
		<path class="st1" d="M75.9,651.8c1.5,0.7,2.9,1,4.3,1c2.1,0,3.6-0.8,4.2-1.2c-0.1-1.2-0.9-4.6-5.3-6.6c-3.7-1.7-9.2-2.2-12.8-2.2
			c-0.4,0-0.6,0.6-0.4,0.8C68.3,646.2,72.1,650.1,75.9,651.8z"/>
		<path class="st1" d="M76,633.3c0.2,2.4,0.7,5.8,1.7,8.7c0.8,0.3,1.6,0.5,2.3,0.9c0.6,0.3,1.2,0.6,1.7,0.9
			c-0.1-0.7-0.2-1.5-0.2-2.3c0-1.3,0.2-2.6,0.4-3.9c-1.8-2-3.9-3.7-5.5-4.9C76.1,632.5,75.9,633,76,633.3z"/>
		<path class="st1" d="M103.9,669.6c-1.3-3.3-3.5-8.2-6.4-11.1c-2.4-2.4-4.8-2.9-6.4-2.9c-0.7,0-1.3,0.1-1.7,0.2
			c-0.3,1.2-0.7,4.6,2.7,8.1c2.9,2.9,7.9,5.2,11.2,6.5C103.7,670.4,104.1,670,103.9,669.6z"/>
		<path class="st1" d="M100.2,653.9c-1.2,0.6-2.4,0.9-3.6,1.1c0.8,0.5,1.6,1.1,2.4,1.9c0.3,0.3,0.5,0.6,0.8,0.9c2.9,0,5.8-0.5,8-1
			c0.6-0.1,0.6-0.5,0.4-0.7c-1.5-1.1-3.6-2.4-5.7-3.5C101.8,653.1,101,653.5,100.2,653.9z"/>
		<path class="st1" d="M91.1,666c-0.2-0.2-0.4-0.4-0.6-0.5c-1.5-1.5-2.4-3-2.9-4.4c-0.5,1.3-1.3,2.7-2.6,4.1
			c0.7,3.3,1.6,6.2,2.7,8.7c0.2,0.5,0.9,0.5,1.1,0C89.8,671.8,90.9,668.6,91.1,666z"/>
		<path class="st1" d="M75.1,657.6c0.1,0,0.3,0,0.4,0c0.2-0.3,0.5-0.5,0.7-0.7c0.8-0.8,1.6-1.4,2.4-1.9c-1.2-0.2-2.4-0.5-3.6-1.1
			c-1-0.5-2-1.1-3-1.8c-2.2,0.9-4.4,2.2-6,3.2c-0.4,0.2-0.3,0.9,0.3,1C68.6,656.9,72,657.6,75.1,657.6L75.1,657.6L75.1,657.6z"/>
		<path class="st1" d="M85.8,655.8c-0.4-0.1-1-0.2-1.7-0.2c-1.6,0-4,0.5-6.4,2.9c-2.9,2.9-5.1,7.7-6.4,10.9c-0.2,0.5,0.3,1,0.8,0.8
			c3.3-1.3,8.1-3.5,10.9-6.4C86.6,660.4,86.1,657,85.8,655.8z"/>
	</g>
	<g>
		<g>
			<circle class="st1" cx="85.8" cy="651.8" r="0.8"/>
		</g>
		<g>
			<circle class="st1" cx="89" cy="651.8" r="0.8"/>
		</g>
	</g>
	<g>
		<circle class="st1" cx="87.4" cy="654.3" r="0.8"/>
	</g>
</g>
<g class="st0">
	<g>
		<path class="st1" d="M1232,284.8c0,5.6,3.1,8,4.3,8.8c1.2-0.7,4.3-3.1,4.3-8.8c0-4.6-2.1-10.3-3.7-14c-0.2-0.5-1.1-0.6-1.3,0
			C1234,274.4,1232,280.1,1232,284.8z"/>
		<path class="st1" d="M1239.9,296.3c0.7,0.5,2.4,1.4,4.8,1.4c1.6,0,3.2-0.4,4.9-1.2c4.4-2,8.8-6.6,11.5-9.6
			c0.3-0.3,0.4-0.9-0.3-0.9c-4,0.1-10.4,0.5-14.9,2.6C1241,291,1240.1,294.8,1239.9,296.3z"/>
		<path class="st1" d="M1243.2,284.8c0,0.9-0.1,1.8-0.2,2.6c0.6-0.4,1.3-0.8,2-1.1c0.9-0.4,1.9-0.8,2.9-1.1c1.2-2.8,2.1-5.9,2.6-8.2
			c0.1-0.7-0.2-1.1-0.6-0.8c-2.1,1.1-4.7,2.9-7.1,4.9C1243.1,282.3,1243.2,283.6,1243.2,284.8z"/>
		<path class="st1" d="M1222.8,296.5c1.7,0.8,3.3,1.2,4.9,1.2c2.4,0,4.1-0.9,4.8-1.4c-0.1-1.4-1-5.2-6.1-7.6
			c-4.3-2-10.6-2.5-14.6-2.6c-0.5,0-0.7,0.6-0.4,0.9C1214,290,1218.5,294.5,1222.8,296.5z"/>
		<path class="st1" d="M1222.9,275.3c0.3,2.8,0.8,6.7,2,10c0.9,0.3,1.8,0.6,2.7,1c0.7,0.3,1.4,0.7,2,1.1c-0.1-0.8-0.2-1.7-0.2-2.6
			c0-1.5,0.2-3,0.5-4.5c-2.1-2.2-4.4-4.3-6.3-5.6C1223,274.3,1222.9,274.8,1222.9,275.3z"/>
		<path class="st1" d="M1255,316.9c-1.5-3.7-4.1-9.4-7.4-12.7c-2.8-2.8-5.5-3.4-7.3-3.4c-0.8,0-1.5,0.1-1.9,0.2
			c-0.4,1.4-0.8,5.3,3.1,9.2c3.4,3.4,9.1,6,12.8,7.4C1254.7,317.9,1255.2,317.4,1255,316.9z"/>
		<path class="st1" d="M1250.8,298.9c-1.4,0.6-2.8,1.1-4.1,1.3c0.9,0.6,1.8,1.3,2.7,2.2c0.3,0.3,0.6,0.7,0.9,1
			c3.3,0,6.7-0.6,9.2-1.1c0.7-0.1,0.7-0.6,0.4-0.8c-1.7-1.2-4.1-2.8-6.6-4C1252.5,298,1251.7,298.5,1250.8,298.9z"/>
		<path class="st1" d="M1240.3,312.7c-0.2-0.2-0.4-0.4-0.7-0.6c-1.7-1.7-2.7-3.4-3.4-5c-0.6,1.5-1.5,3.1-3,4.7
			c0.8,3.8,1.8,7.2,3.1,10c0.3,0.6,1,0.6,1.3,0.1C1238.8,319.4,1240,315.7,1240.3,312.7z"/>
		<path class="st1" d="M1221.9,303.2c0.1,0,0.3,0,0.4,0c0.3-0.3,0.5-0.6,0.8-0.9c0.9-0.9,1.8-1.6,2.7-2.2c-1.4-0.2-2.7-0.6-4.1-1.3
			c-1.2-0.5-2.3-1.2-3.5-2c-2.6,1.1-5.1,2.5-6.9,3.6c-0.4,0.3-0.3,1,0.3,1.2C1214.5,302.4,1218.4,303.2,1221.9,303.2L1221.9,303.2
			L1221.9,303.2z"/>
		<path class="st1" d="M1234.2,301c-0.4-0.1-1.1-0.2-1.9-0.2c-1.8,0-4.5,0.6-7.3,3.4c-3.3,3.3-5.9,8.8-7.3,12.6
			c-0.2,0.5,0.4,1.1,0.9,0.9c3.7-1.5,9.3-4,12.6-7.3C1235.1,306.3,1234.6,302.4,1234.2,301z"/>
	</g>
	<g>
		<g>
			<circle class="st1" cx="1234.2" cy="296.5" r="1"/>
		</g>
		<g>
			<circle class="st1" cx="1237.9" cy="296.5" r="1"/>
		</g>
	</g>
	<g>
		<circle class="st1" cx="1236.1" cy="299.3" r="1"/>
	</g>
</g>
<path class="st2" d="M29.8,731.5c0,0,32.8,7.6,55,24.8C70,700.7,0,719.7,0,719.7c34.6,56.3,68.9,47.7,81,42.1
	C68.1,752.9,47.5,741.9,29.8,731.5z"/>
<path class="st2" d="M1005.5,716.8c0,0,35.5,18.9,55.8,45.6c0-68.7-86.6-68.3-86.6-68.3c22.6,75.6,64.9,76.2,80.5,73.6
	C1043.1,753.4,1022.7,734.3,1005.5,716.8z"/>
<g class="st0">
	<path class="st1" d="M762,489.3c0,0-32.7,23.4-49.3,52.5c-9.1-68.1,76.8-79.1,76.8-79.1c-12.4,77.9-54.3,84.1-70.1,83.5
		C729.5,530.5,747.3,508.9,762,489.3z"/>
</g>
<path class="st2" d="M1183.2,486c0,0-23.1,1.2-40.1,10.2c16.6-35.7,61.6-14.6,61.6-14.6c-30.1,33.9-52.2,23.9-59.7,18.8
	C1154.8,495.9,1170.1,490.9,1183.2,486z"/>
<path class="st2" d="M239.9,293.4c0,0-25.4,13.6-39.9,32.7c-0.1-49.2,61.9-49,61.9-49c-16.1,54.2-46.4,54.6-57.6,52.7
	C213,319.6,227.6,305.9,239.9,293.4z"/>
</svg>
